<svg width="1537" height="308" viewBox="0 0 1537 308" fill="none" xmlns="http://www.w3.org/2000/svg">
<rect x="1.5" y="0.5" width="184.9" height="184.9" rx="20.4" fill="white" stroke="black"/>
<path d="M292.425 242V229.194H299.322V230.581H294.097V234.837H298.923V236.205H294.097V242H292.425ZM304.743 242V231.208H304.705L302.558 232.367L302.235 231.094L304.933 229.65H306.358V242H304.743ZM311.425 242V229.194H318.322V230.581H313.097V234.837H317.923V236.205H313.097V242H311.425ZM323.743 242V231.208H323.705L321.558 232.367L321.235 231.094L323.933 229.65H325.358V242H323.743ZM330.425 242V229.194H337.322V230.581H332.097V234.837H336.923V236.205H332.097V242H330.425ZM342.743 242V231.208H342.705L340.558 232.367L340.235 231.094L342.933 229.65H344.358V242H342.743Z" fill="#E0E0E0"/>
<path d="M207.139 287.46V288.828C206.797 288.809 206.36 288.847 205.885 288.923C203.244 289.341 201.876 291.241 201.591 293.293H201.629C202.218 292.495 203.263 291.849 204.631 291.849C206.816 291.849 208.355 293.445 208.355 295.839C208.355 298.119 206.816 300.209 204.232 300.209C201.61 300.209 199.881 298.157 199.881 294.946C199.881 292.514 200.736 290.595 201.971 289.379C202.997 288.372 204.365 287.745 205.923 287.555C206.417 287.479 206.835 287.46 207.139 287.46ZM204.27 298.917C205.695 298.917 206.664 297.72 206.664 295.953C206.664 294.186 205.657 293.122 204.118 293.122C203.111 293.122 202.161 293.73 201.705 294.642C201.61 294.832 201.534 295.06 201.534 295.364C201.553 297.397 202.503 298.917 204.27 298.917ZM213.973 287.441C216.557 287.441 218.058 289.759 218.058 293.692C218.058 297.891 216.481 300.209 213.764 300.209C211.351 300.209 209.698 297.948 209.66 293.863C209.66 289.702 211.465 287.441 213.973 287.441ZM213.859 288.733C212.415 288.733 211.351 290.519 211.351 293.882C211.351 297.093 212.339 298.917 213.859 298.917C215.55 298.917 216.367 296.922 216.367 293.768C216.367 290.728 215.607 288.733 213.859 288.733ZM222.289 287.441C223.999 287.441 225.12 288.771 225.12 291.108C225.12 293.711 223.771 295.003 222.175 295.003C220.617 295.003 219.306 293.768 219.287 291.298C219.287 288.828 220.617 287.441 222.289 287.441ZM222.194 288.448C221.168 288.448 220.598 289.683 220.598 291.222C220.56 292.799 221.168 293.996 222.213 293.996C223.315 293.996 223.809 292.818 223.809 291.203C223.809 289.683 223.372 288.448 222.194 288.448ZM223.106 300.228H222.042L229.319 287.422H230.383L223.106 300.228ZM230.345 292.552C232.055 292.552 233.176 293.882 233.176 296.238C233.176 298.841 231.827 300.133 230.231 300.133C228.673 300.133 227.362 298.898 227.343 296.409C227.343 293.939 228.673 292.552 230.345 292.552ZM230.25 293.559C229.224 293.559 228.654 294.794 228.654 296.352C228.616 297.929 229.224 299.126 230.269 299.126C231.371 299.126 231.865 297.948 231.865 296.314C231.865 294.813 231.428 293.559 230.25 293.559Z" fill="#E0E0E0"/>
<path d="M754.033 299.373L754.489 298.1C754.964 298.385 756.047 298.86 757.225 298.86C759.353 298.86 760.037 297.511 760.018 296.466C759.999 294.737 758.441 293.996 756.826 293.996H755.895V292.742H756.826C758.042 292.742 759.581 292.115 759.581 290.652C759.581 289.664 758.954 288.79 757.415 288.79C756.427 288.79 755.477 289.227 754.945 289.607L754.489 288.391C755.154 287.916 756.408 287.441 757.738 287.441C760.17 287.441 761.272 288.885 761.272 290.386C761.272 291.678 760.493 292.761 758.992 293.312V293.35C760.512 293.635 761.728 294.775 761.747 296.504C761.747 298.48 760.189 300.209 757.244 300.209C755.857 300.209 754.641 299.772 754.033 299.373ZM767.973 287.441C770.557 287.441 772.058 289.759 772.058 293.692C772.058 297.891 770.481 300.209 767.764 300.209C765.351 300.209 763.698 297.948 763.66 293.863C763.66 289.702 765.465 287.441 767.973 287.441ZM767.859 288.733C766.415 288.733 765.351 290.519 765.351 293.882C765.351 297.093 766.339 298.917 767.859 298.917C769.55 298.917 770.367 296.922 770.367 293.768C770.367 290.728 769.607 288.733 767.859 288.733ZM776.289 287.441C777.999 287.441 779.12 288.771 779.12 291.108C779.12 293.711 777.771 295.003 776.175 295.003C774.617 295.003 773.306 293.768 773.287 291.298C773.287 288.828 774.617 287.441 776.289 287.441ZM776.194 288.448C775.168 288.448 774.598 289.683 774.598 291.222C774.56 292.799 775.168 293.996 776.213 293.996C777.315 293.996 777.809 292.818 777.809 291.203C777.809 289.683 777.372 288.448 776.194 288.448ZM777.106 300.228H776.042L783.319 287.422H784.383L777.106 300.228ZM784.345 292.552C786.055 292.552 787.176 293.882 787.176 296.238C787.176 298.841 785.827 300.133 784.231 300.133C782.673 300.133 781.362 298.898 781.343 296.409C781.343 293.939 782.673 292.552 784.345 292.552ZM784.25 293.559C783.224 293.559 782.654 294.794 782.654 296.352C782.616 297.929 783.224 299.126 784.269 299.126C785.371 299.126 785.865 297.948 785.865 296.314C785.865 294.813 785.428 293.559 784.25 293.559Z" fill="#E0E0E0"/>
<path d="M1310.72 300V289.208H1310.68L1308.53 290.367L1308.21 289.094L1310.91 287.65H1312.33V300H1310.72ZM1320.97 287.441C1323.56 287.441 1325.06 289.759 1325.06 293.692C1325.06 297.891 1323.48 300.209 1320.76 300.209C1318.35 300.209 1316.7 297.948 1316.66 293.863C1316.66 289.702 1318.47 287.441 1320.97 287.441ZM1320.86 288.733C1319.42 288.733 1318.35 290.519 1318.35 293.882C1318.35 297.093 1319.34 298.917 1320.86 298.917C1322.55 298.917 1323.37 296.922 1323.37 293.768C1323.37 290.728 1322.61 288.733 1320.86 288.733ZM1329.29 287.441C1331 287.441 1332.12 288.771 1332.12 291.108C1332.12 293.711 1330.77 295.003 1329.18 295.003C1327.62 295.003 1326.31 293.768 1326.29 291.298C1326.29 288.828 1327.62 287.441 1329.29 287.441ZM1329.19 288.448C1328.17 288.448 1327.6 289.683 1327.6 291.222C1327.56 292.799 1328.17 293.996 1329.21 293.996C1330.32 293.996 1330.81 292.818 1330.81 291.203C1330.81 289.683 1330.37 288.448 1329.19 288.448ZM1330.11 300.228H1329.04L1336.32 287.422H1337.38L1330.11 300.228ZM1337.35 292.552C1339.06 292.552 1340.18 293.882 1340.18 296.238C1340.18 298.841 1338.83 300.133 1337.23 300.133C1335.67 300.133 1334.36 298.898 1334.34 296.409C1334.34 293.939 1335.67 292.552 1337.35 292.552ZM1337.25 293.559C1336.22 293.559 1335.65 294.794 1335.65 296.352C1335.62 297.929 1336.22 299.126 1337.27 299.126C1338.37 299.126 1338.87 297.948 1338.87 296.314C1338.87 294.813 1338.43 293.559 1337.25 293.559Z" fill="#E0E0E0"/>
<path d="M520.494 237.972H515.953L514.623 242H512.913L517.283 229.194H519.259L523.629 242H521.862L520.494 237.972ZM516.295 236.68H520.171L518.898 232.994C518.613 232.158 518.423 231.398 518.233 230.657H518.195C518.005 231.398 517.815 232.196 517.549 232.975L516.295 236.68ZM531.671 242H530.094V238.618H524.356V237.535L529.866 229.65H531.671V237.326H533.4V238.618H531.671V242ZM526.047 237.326H530.094V233.203C530.094 232.557 530.113 231.911 530.151 231.265H530.094C529.714 231.987 529.41 232.519 529.068 233.089L526.047 237.288V237.326ZM541.869 237.972H537.328L535.998 242H534.288L538.658 229.194H540.634L545.004 242H543.237L541.869 237.972ZM537.67 236.68H541.546L540.273 232.994C539.988 232.158 539.798 231.398 539.608 230.657H539.57C539.38 231.398 539.19 232.196 538.924 232.975L537.67 236.68ZM553.046 242H551.469V238.618H545.731V237.535L551.241 229.65H553.046V237.326H554.775V238.618H553.046V242ZM547.422 237.326H551.469V233.203C551.469 232.557 551.488 231.911 551.526 231.265H551.469C551.089 231.987 550.785 232.519 550.443 233.089L547.422 237.288V237.326ZM563.244 237.972H558.703L557.373 242H555.663L560.033 229.194H562.009L566.379 242H564.612L563.244 237.972ZM559.045 236.68H562.921L561.648 232.994C561.363 232.158 561.173 231.398 560.983 230.657H560.945C560.755 231.398 560.565 232.196 560.299 232.975L559.045 236.68ZM574.421 242H572.844V238.618H567.106V237.535L572.616 229.65H574.421V237.326H576.15V238.618H574.421V242ZM568.797 237.326H572.844V233.203C572.844 232.557 572.863 231.911 572.901 231.265H572.844C572.464 231.987 572.16 232.519 571.818 233.089L568.797 237.288V237.326Z" fill="#E0E0E0"/>
<path d="M741.074 241.373L741.53 240.1C742.005 240.385 743.088 240.86 744.266 240.86C746.394 240.86 747.078 239.511 747.059 238.466C747.04 236.737 745.482 235.996 743.867 235.996H742.936V234.742H743.867C745.083 234.742 746.622 234.115 746.622 232.652C746.622 231.664 745.995 230.79 744.456 230.79C743.468 230.79 742.518 231.227 741.986 231.607L741.53 230.391C742.195 229.916 743.449 229.441 744.779 229.441C747.211 229.441 748.313 230.885 748.313 232.386C748.313 233.678 747.534 234.761 746.033 235.312V235.35C747.553 235.635 748.769 236.775 748.788 238.504C748.788 240.48 747.23 242.209 744.285 242.209C742.898 242.209 741.682 241.772 741.074 241.373ZM753.172 235.559L753.153 235.502C751.766 234.856 751.177 233.792 751.177 232.728C751.177 230.771 752.83 229.441 755.015 229.441C757.409 229.441 758.625 230.923 758.625 232.481C758.625 233.526 758.093 234.666 756.573 235.369V235.426C758.112 236.034 759.062 237.136 759.062 238.618C759.062 240.784 757.219 242.209 754.863 242.209C752.279 242.209 750.721 240.689 750.721 238.884C750.721 237.326 751.652 236.205 753.172 235.559ZM754.901 240.993C756.402 240.993 757.371 240.062 757.371 238.789C757.371 237.307 756.326 236.566 754.654 236.091C753.21 236.509 752.431 237.478 752.431 238.656C752.374 239.891 753.324 240.993 754.901 240.993ZM754.92 230.638C753.533 230.638 752.773 231.55 752.773 232.614C752.754 233.849 753.704 234.514 755.129 234.894C756.193 234.533 757.01 233.773 757.01 232.652C757.01 231.664 756.421 230.638 754.92 230.638ZM760.557 241.373L761.013 240.1C761.488 240.385 762.571 240.86 763.749 240.86C765.877 240.86 766.561 239.511 766.542 238.466C766.523 236.737 764.965 235.996 763.35 235.996H762.419V234.742H763.35C764.566 234.742 766.105 234.115 766.105 232.652C766.105 231.664 765.478 230.79 763.939 230.79C762.951 230.79 762.001 231.227 761.469 231.607L761.013 230.391C761.678 229.916 762.932 229.441 764.262 229.441C766.694 229.441 767.796 230.885 767.796 232.386C767.796 233.678 767.017 234.761 765.516 235.312V235.35C767.036 235.635 768.252 236.775 768.271 238.504C768.271 240.48 766.713 242.209 763.768 242.209C762.381 242.209 761.165 241.772 760.557 241.373ZM772.654 235.559L772.635 235.502C771.248 234.856 770.659 233.792 770.659 232.728C770.659 230.771 772.312 229.441 774.497 229.441C776.891 229.441 778.107 230.923 778.107 232.481C778.107 233.526 777.575 234.666 776.055 235.369V235.426C777.594 236.034 778.544 237.136 778.544 238.618C778.544 240.784 776.701 242.209 774.345 242.209C771.761 242.209 770.203 240.689 770.203 238.884C770.203 237.326 771.134 236.205 772.654 235.559ZM774.383 240.993C775.884 240.993 776.853 240.062 776.853 238.789C776.853 237.307 775.808 236.566 774.136 236.091C772.692 236.509 771.913 237.478 771.913 238.656C771.856 239.891 772.806 240.993 774.383 240.993ZM774.402 230.638C773.015 230.638 772.255 231.55 772.255 232.614C772.236 233.849 773.186 234.514 774.611 234.894C775.675 234.533 776.492 233.773 776.492 232.652C776.492 231.664 775.903 230.638 774.402 230.638ZM780.039 241.373L780.495 240.1C780.97 240.385 782.053 240.86 783.231 240.86C785.359 240.86 786.043 239.511 786.024 238.466C786.005 236.737 784.447 235.996 782.832 235.996H781.901V234.742H782.832C784.048 234.742 785.587 234.115 785.587 232.652C785.587 231.664 784.96 230.79 783.421 230.79C782.433 230.79 781.483 231.227 780.951 231.607L780.495 230.391C781.16 229.916 782.414 229.441 783.744 229.441C786.176 229.441 787.278 230.885 787.278 232.386C787.278 233.678 786.499 234.761 784.998 235.312V235.35C786.518 235.635 787.734 236.775 787.753 238.504C787.753 240.48 786.195 242.209 783.25 242.209C781.863 242.209 780.647 241.772 780.039 241.373ZM792.136 235.559L792.117 235.502C790.73 234.856 790.141 233.792 790.141 232.728C790.141 230.771 791.794 229.441 793.979 229.441C796.373 229.441 797.589 230.923 797.589 232.481C797.589 233.526 797.057 234.666 795.537 235.369V235.426C797.076 236.034 798.026 237.136 798.026 238.618C798.026 240.784 796.183 242.209 793.827 242.209C791.243 242.209 789.685 240.689 789.685 238.884C789.685 237.326 790.616 236.205 792.136 235.559ZM793.865 240.993C795.366 240.993 796.335 240.062 796.335 238.789C796.335 237.307 795.29 236.566 793.618 236.091C792.174 236.509 791.395 237.478 791.395 238.656C791.338 239.891 792.288 240.993 793.865 240.993ZM793.884 230.638C792.497 230.638 791.737 231.55 791.737 232.614C791.718 233.849 792.668 234.514 794.093 234.894C795.157 234.533 795.974 233.773 795.974 232.652C795.974 231.664 795.385 230.638 793.884 230.638Z" fill="#E0E0E0"/>
<path d="M1195.91 229.46V230.828C1195.57 230.809 1195.13 230.847 1194.65 230.923C1192.01 231.341 1190.64 233.241 1190.36 235.293H1190.4C1190.99 234.495 1192.03 233.849 1193.4 233.849C1195.58 233.849 1197.12 235.445 1197.12 237.839C1197.12 240.119 1195.58 242.209 1193 242.209C1190.38 242.209 1188.65 240.157 1188.65 236.946C1188.65 234.514 1189.5 232.595 1190.74 231.379C1191.77 230.372 1193.13 229.745 1194.69 229.555C1195.19 229.479 1195.6 229.46 1195.91 229.46ZM1193.04 240.917C1194.46 240.917 1195.43 239.72 1195.43 237.953C1195.43 236.186 1194.43 235.122 1192.89 235.122C1191.88 235.122 1190.93 235.73 1190.47 236.642C1190.38 236.832 1190.3 237.06 1190.3 237.364C1190.32 239.397 1191.27 240.917 1193.04 240.917ZM1199.19 241.962V229.384C1200.2 229.213 1201.39 229.099 1202.7 229.099C1205.08 229.099 1206.77 229.669 1207.89 230.695C1209.05 231.74 1209.71 233.222 1209.71 235.293C1209.71 237.383 1209.05 239.093 1207.87 240.271C1206.66 241.468 1204.68 242.114 1202.19 242.114C1200.99 242.114 1200.02 242.057 1199.19 241.962ZM1200.84 230.581V240.708C1201.26 240.765 1201.87 240.784 1202.51 240.784C1206.07 240.784 1207.97 238.808 1207.97 235.35C1207.99 232.329 1206.28 230.41 1202.78 230.41C1201.92 230.41 1201.28 230.486 1200.84 230.581ZM1218.2 237.972H1213.65L1212.32 242H1210.61L1214.98 229.194H1216.96L1221.33 242H1219.56L1218.2 237.972ZM1214 236.68H1217.87L1216.6 232.994C1216.31 232.158 1216.12 231.398 1215.93 230.657H1215.9C1215.71 231.398 1215.52 232.196 1215.25 232.975L1214 236.68ZM1223.6 242.19V240.822C1223.96 240.86 1224.38 240.822 1224.95 240.765C1225.91 240.632 1226.83 240.252 1227.53 239.568C1228.35 238.827 1228.94 237.744 1229.16 236.3H1229.11C1228.42 237.136 1227.43 237.611 1226.18 237.611C1223.98 237.611 1222.55 235.939 1222.55 233.83C1222.55 231.493 1224.24 229.441 1226.77 229.441C1229.3 229.441 1230.85 231.474 1230.85 234.666C1230.85 237.364 1229.94 239.264 1228.73 240.442C1227.78 241.373 1226.47 241.943 1225.14 242.095C1224.53 242.19 1224 242.209 1223.6 242.19ZM1226.62 230.714C1225.21 230.714 1224.2 231.968 1224.2 233.735C1224.2 235.274 1225.14 236.357 1226.58 236.357C1227.7 236.357 1228.57 235.806 1229.01 235.065C1229.11 234.894 1229.16 234.723 1229.16 234.438C1229.16 232.329 1228.38 230.714 1226.62 230.714ZM1240.25 242H1232.37V240.974L1233.68 239.701C1236.83 236.699 1238.28 235.103 1238.28 233.241C1238.28 231.987 1237.69 230.828 1235.85 230.828C1234.73 230.828 1233.79 231.398 1233.22 231.873L1232.69 230.695C1233.53 229.992 1234.76 229.441 1236.17 229.441C1238.83 229.441 1239.95 231.265 1239.95 233.032C1239.95 235.312 1238.3 237.155 1235.69 239.663L1234.73 240.575V240.613H1240.25V242ZM1246.25 229.441C1248.84 229.441 1250.34 231.759 1250.34 235.692C1250.34 239.891 1248.76 242.209 1246.04 242.209C1243.63 242.209 1241.98 239.948 1241.94 235.863C1241.94 231.702 1243.74 229.441 1246.25 229.441ZM1246.14 230.733C1244.69 230.733 1243.63 232.519 1243.63 235.882C1243.63 239.093 1244.62 240.917 1246.14 240.917C1247.83 240.917 1248.65 238.922 1248.65 235.768C1248.65 232.728 1247.89 230.733 1246.14 230.733Z" fill="#E0E0E0"/>
<path d="M1416.48 242V229.194H1423.38V230.581H1418.15V234.837H1422.98V236.205H1418.15V242H1416.48ZM1425.74 242V229.194H1432.64V230.581H1427.41V234.837H1432.24V236.205H1427.41V242H1425.74ZM1440.14 237.972H1435.6L1434.27 242H1432.56L1436.93 229.194H1438.91L1443.28 242H1441.51L1440.14 237.972ZM1435.94 236.68H1439.82L1438.55 232.994C1438.26 232.158 1438.07 231.398 1437.88 230.657H1437.84C1437.65 231.398 1437.46 232.196 1437.2 232.975L1435.94 236.68ZM1451.32 242H1449.74V238.618H1444.01V237.535L1449.52 229.65H1451.32V237.326H1453.05V238.618H1451.32V242ZM1445.7 237.326H1449.74V233.203C1449.74 232.557 1449.76 231.911 1449.8 231.265H1449.74C1449.36 231.987 1449.06 232.519 1448.72 233.089L1445.7 237.288V237.326ZM1458.46 229.441C1461.04 229.441 1462.54 231.759 1462.54 235.692C1462.54 239.891 1460.97 242.209 1458.25 242.209C1455.84 242.209 1454.18 239.948 1454.15 235.863C1454.15 231.702 1455.95 229.441 1458.46 229.441ZM1458.35 230.733C1456.9 230.733 1455.84 232.519 1455.84 235.882C1455.84 239.093 1456.83 240.917 1458.35 240.917C1460.04 240.917 1460.85 238.922 1460.85 235.768C1460.85 232.728 1460.09 230.733 1458.35 230.733ZM1468.2 229.441C1470.79 229.441 1472.29 231.759 1472.29 235.692C1472.29 239.891 1470.71 242.209 1467.99 242.209C1465.58 242.209 1463.93 239.948 1463.89 235.863C1463.89 231.702 1465.69 229.441 1468.2 229.441ZM1468.09 230.733C1466.64 230.733 1465.58 232.519 1465.58 235.882C1465.58 239.093 1466.57 240.917 1468.09 240.917C1469.78 240.917 1470.6 238.922 1470.6 235.768C1470.6 232.728 1469.84 230.733 1468.09 230.733Z" fill="#E0E0E0"/>
<path d="M969.76 242V231.208H969.722L967.575 232.367L967.252 231.094L969.95 229.65H971.375V242H969.76ZM976.842 242.19V240.822C977.203 240.86 977.621 240.822 978.191 240.765C979.16 240.632 980.072 240.252 980.775 239.568C981.592 238.827 982.181 237.744 982.409 236.3H982.352C981.668 237.136 980.68 237.611 979.426 237.611C977.222 237.611 975.797 235.939 975.797 233.83C975.797 231.493 977.488 229.441 980.015 229.441C982.542 229.441 984.1 231.474 984.1 234.666C984.1 237.364 983.188 239.264 981.972 240.442C981.022 241.373 979.711 241.943 978.381 242.095C977.773 242.19 977.241 242.209 976.842 242.19ZM979.863 230.714C978.457 230.714 977.45 231.968 977.45 233.735C977.45 235.274 978.381 236.357 979.825 236.357C980.946 236.357 981.82 235.806 982.257 235.065C982.352 234.894 982.409 234.723 982.409 234.438C982.409 232.329 981.63 230.714 979.863 230.714ZM989.243 242V231.208H989.205L987.058 232.367L986.735 231.094L989.433 229.65H990.858V242H989.243ZM996.324 242.19V240.822C996.685 240.86 997.103 240.822 997.673 240.765C998.642 240.632 999.554 240.252 1000.26 239.568C1001.07 238.827 1001.66 237.744 1001.89 236.3H1001.83C1001.15 237.136 1000.16 237.611 998.908 237.611C996.704 237.611 995.279 235.939 995.279 233.83C995.279 231.493 996.97 229.441 999.497 229.441C1002.02 229.441 1003.58 231.474 1003.58 234.666C1003.58 237.364 1002.67 239.264 1001.45 240.442C1000.5 241.373 999.193 241.943 997.863 242.095C997.255 242.19 996.723 242.209 996.324 242.19ZM999.345 230.714C997.939 230.714 996.932 231.968 996.932 233.735C996.932 235.274 997.863 236.357 999.307 236.357C1000.43 236.357 1001.3 235.806 1001.74 235.065C1001.83 234.894 1001.89 234.723 1001.89 234.438C1001.89 232.329 1001.11 230.714 999.345 230.714ZM1008.73 242V231.208H1008.69L1006.54 232.367L1006.22 231.094L1008.92 229.65H1010.34V242H1008.73ZM1015.81 242.19V240.822C1016.17 240.86 1016.59 240.822 1017.16 240.765C1018.12 240.632 1019.04 240.252 1019.74 239.568C1020.56 238.827 1021.15 237.744 1021.37 236.3H1021.32C1020.63 237.136 1019.64 237.611 1018.39 237.611C1016.19 237.611 1014.76 235.939 1014.76 233.83C1014.76 231.493 1016.45 229.441 1018.98 229.441C1021.51 229.441 1023.06 231.474 1023.06 234.666C1023.06 237.364 1022.15 239.264 1020.94 240.442C1019.99 241.373 1018.68 241.943 1017.35 242.095C1016.74 242.19 1016.21 242.209 1015.81 242.19ZM1018.83 230.714C1017.42 230.714 1016.41 231.968 1016.41 233.735C1016.41 235.274 1017.35 236.357 1018.79 236.357C1019.91 236.357 1020.78 235.806 1021.22 235.065C1021.32 234.894 1021.37 234.723 1021.37 234.438C1021.37 232.329 1020.59 230.714 1018.83 230.714Z" fill="#E0E0E0"/>
<path d="M67.6486 242V229.194H74.5456V230.581H69.3206V234.837H74.1466V236.205H69.3206V242H67.6486ZM76.9074 242V229.194H83.8044V230.581H78.5794V234.837H83.4054V236.205H78.5794V242H76.9074ZM86.1662 242V229.194H93.0632V230.581H87.8382V234.837H92.6642V236.205H87.8382V242H86.1662ZM95.425 242V229.194H102.322V230.581H97.097V234.837H101.923V236.205H97.097V242H95.425ZM104.684 242V229.194H111.581V230.581H106.356V234.837H111.182V236.205H106.356V242H104.684ZM113.943 242V229.194H120.84V230.581H115.615V234.837H120.441V236.205H115.615V242H113.943Z" fill="#E0E0E0"/>
<rect x="226.5" y="0.5" width="184.9" height="184.9" rx="20.4" fill="#F1F1F1" stroke="black"/>
<rect x="451.5" y="0.5" width="184.9" height="184.9" rx="20.4" fill="#A4A4A4" stroke="black"/>
<rect x="676.5" y="0.5" width="184.9" height="184.9" rx="20.4" fill="#383838" stroke="black"/>
<rect x="1126.5" y="0.5" width="184.9" height="184.9" rx="20.4" fill="#6DA920" stroke="black"/>
<rect x="1351.5" y="0.5" width="184.9" height="184.9" rx="20.4" fill="#FFA400" stroke="black"/>
<rect x="901.5" y="0.5" width="184.9" height="184.9" rx="20.4" fill="#191919" stroke="black"/>
<path d="M1 307.028L1 237" stroke="white" stroke-width="2"/>
<line x1="431" y1="307.028" x2="431" y2="237" stroke="white" stroke-width="2"/>
<line x1="1108" y1="307.028" x2="1108" y2="237" stroke="white" stroke-width="2"/>
<line x1="1536" y1="307.028" x2="1536" y2="237" stroke="white" stroke-width="2"/>
<line x1="7.62443e-05" y1="278" x2="1537" y2="278.117" stroke="white" stroke-width="2"/>
</svg>
