<svg width="1708" height="2315" viewBox="0 0 1708 2315" fill="none" xmlns="http://www.w3.org/2000/svg">
<path d="M127 20.9756L127.75 21.4086V20.5426L127 20.9756Z" fill="#D9D9D9"/>
<path d="M126.5 21.4756L126.933 20.7256H126.067L126.5 21.4756Z" fill="#D9D9D9"/>
<path d="M127 21.9756L126.25 22.4086V21.5426L127 21.9756Z" fill="#D9D9D9"/>
<path d="M127.5 21.4756L127.933 22.2256H127.067L127.5 21.4756Z" fill="#D9D9D9"/>
<g opacity="0.2">
<path d="M152.654 260.285L195.59 331.001L235.364 258.46L152.654 260.285Z" fill="black"/>
<path d="M87.8092 279.203L158.525 236.267L85.9843 196.493L87.8092 279.203Z" fill="black"/>
<path d="M106.727 344.048L24.0174 345.873L63.7918 273.332L106.727 344.048Z" fill="black"/>
<path d="M171.572 325.13L173.397 407.84L100.856 368.065L171.572 325.13Z" fill="black"/>
</g>
<g opacity="0.2">
<path d="M833.049 169.993L752.409 188.471L808.732 249.068L833.049 169.993Z" fill="black"/>
<path d="M835.517 102.489L853.995 183.129L914.592 126.807L835.517 102.489Z" fill="black"/>
<path d="M768.014 100.021L792.331 20.946L848.653 81.5431L768.014 100.021Z" fill="black"/>
<path d="M765.546 167.525L686.471 143.207L747.068 86.8848L765.546 167.525Z" fill="black"/>
</g>
<g opacity="0.2">
<path d="M1255.66 1146.37L1240.03 1227.61L1318.2 1200.54L1255.66 1146.37Z" fill="black"/>
<path d="M1194.9 1116.87L1276.14 1132.51L1249.06 1054.34L1194.9 1116.87Z" fill="black"/>
<path d="M1165.4 1177.64L1102.86 1123.48L1181.04 1096.4L1165.4 1177.64Z" fill="black"/>
<path d="M1226.16 1207.14L1172 1269.68L1144.93 1191.5L1226.16 1207.14Z" fill="black"/>
</g>
<g opacity="0.2">
<path d="M544.922 2003.62L604.636 2060.88L624.366 1980.54L544.922 2003.62Z" fill="black"/>
<path d="M487.145 2038.62L544.403 1978.9L464.06 1959.17L487.145 2038.62Z" fill="black"/>
<path d="M522.141 2096.39L442.697 2119.48L462.426 2039.14L522.141 2096.39Z" fill="black"/>
<path d="M579.917 2061.4L603.003 2140.84L522.66 2121.11L579.917 2061.4Z" fill="black"/>
</g>
<g opacity="0.2">
<path d="M1199.56 2184.92L1190.78 2230.53L1234.67 2215.33L1199.56 2184.92Z" fill="black"/>
<path d="M1165.45 2168.36L1211.05 2177.14L1195.85 2133.26L1165.45 2168.36Z" fill="black"/>
<path d="M1148.89 2202.48L1113.78 2172.07L1157.67 2156.87L1148.89 2202.48Z" fill="black"/>
<path d="M1183 2219.04L1152.59 2254.14L1137.39 2210.26L1183 2219.04Z" fill="black"/>
</g>
<g opacity="0.2">
<path d="M1254.88 543.489L1139.71 631.24L1273.29 687.108L1254.88 543.489Z" fill="black"/>
<path d="M1210.01 434.11L1297.76 549.284L1353.63 415.703L1210.01 434.11Z" fill="black"/>
<path d="M1100.63 478.978L1082.23 335.359L1215.81 391.227L1100.63 478.978Z" fill="black"/>
<path d="M1145.5 588.357L1001.88 606.765L1057.75 473.183L1145.5 588.357Z" fill="black"/>
</g>
<g opacity="0.2">
<path d="M555.747 1303.03L590.247 1443.65L694.781 1343.46L555.747 1303.03Z" fill="black"/>
<path d="M437.55 1300.52L578.174 1266.02L477.985 1161.48L437.55 1300.52Z" fill="black"/>
<path d="M435.042 1418.71L296.008 1378.28L400.542 1278.09L435.042 1418.71Z" fill="black"/>
<path d="M553.239 1421.22L512.804 1560.26L412.615 1455.72L553.239 1421.22Z" fill="black"/>
</g>
<g opacity="0.2">
<path d="M1558.17 1804.4L1549.83 1948.96L1679.19 1883.91L1558.17 1804.4Z" fill="black"/>
<path d="M1445.93 1767.28L1590.48 1775.62L1525.43 1646.26L1445.93 1767.28Z" fill="black"/>
<path d="M1408.8 1879.52L1287.78 1800.02L1417.14 1734.96L1408.8 1879.52Z" fill="black"/>
<path d="M1521.04 1916.65L1441.54 2037.66L1376.49 1908.3L1521.04 1916.65Z" fill="black"/>
</g>
<g opacity="0.2">
<path d="M104.364 1759.52L128.757 1799.04L150.785 1758.15L104.364 1759.52Z" fill="black"/>
<path d="M68.0406 1770.4L107.56 1746.01L66.6745 1723.98L68.0406 1770.4Z" fill="black"/>
<path d="M78.9281 1806.73L32.5064 1808.09L54.5341 1767.21L78.9281 1806.73Z" fill="black"/>
<path d="M115.251 1795.84L116.617 1842.26L75.7317 1820.23L115.251 1795.84Z" fill="black"/>
</g>
<g opacity="0.2">
<path d="M977.816 1637.36L942.155 1667.11L985.751 1683.12L977.816 1637.36Z" fill="black"/>
<path d="M961.888 1602.95L991.639 1638.61L1007.65 1595.02L961.888 1602.95Z" fill="black"/>
<path d="M927.476 1618.88L919.54 1573.12L963.136 1589.13L927.476 1618.88Z" fill="black"/>
<path d="M943.404 1653.29L897.645 1661.23L913.652 1617.63L943.404 1653.29Z" fill="black"/>
</g>
<g opacity="0.2">
<path d="M443.373 687.863L434.248 733.4L478.246 718.534L443.373 687.863Z" fill="black"/>
<path d="M409.388 671.044L454.924 680.169L440.058 636.17L409.388 671.044Z" fill="black"/>
<path d="M392.568 705.029L357.695 674.358L401.693 659.493L392.568 705.029Z" fill="black"/>
<path d="M426.553 721.849L395.882 756.722L381.017 712.724L426.553 721.849Z" fill="black"/>
</g>
<g opacity="0.2">
<path d="M369.927 91.363L354.769 101.814L371.399 109.715L369.927 91.363Z" fill="black"/>
<path d="M364.888 77.2L375.339 92.3575L383.24 75.7279L364.888 77.2Z" fill="black"/>
<path d="M350.725 82.2395L349.253 63.8871L365.882 71.7884L350.725 82.2395Z" fill="black"/>
<path d="M355.764 96.4024L337.412 97.8745L345.313 81.2449L355.764 96.4024Z" fill="black"/>
</g>
<g opacity="0.2">
<path d="M822.016 959.019L818.399 977.072L835.841 971.178L822.016 959.019Z" fill="black"/>
<path d="M808.543 952.351L826.596 955.969L820.702 938.526L808.543 952.351Z" fill="black"/>
<path d="M801.875 965.824L788.05 953.665L805.493 947.772L801.875 965.824Z" fill="black"/>
<path d="M815.348 972.492L803.189 986.317L797.296 968.875L815.348 972.492Z" fill="black"/>
</g>
<g opacity="0.2">
<path d="M1497.02 1373.02L1493.4 1391.07L1510.84 1385.18L1497.02 1373.02Z" fill="black"/>
<path d="M1483.54 1366.35L1501.6 1369.97L1495.7 1352.53L1483.54 1366.35Z" fill="black"/>
<path d="M1476.88 1379.82L1463.05 1367.67L1480.49 1361.77L1476.88 1379.82Z" fill="black"/>
<path d="M1490.35 1386.49L1478.19 1400.32L1472.3 1382.87L1490.35 1386.49Z" fill="black"/>
</g>
<g opacity="0.2">
<path d="M136.249 2291.04L123.402 2304.23L141.247 2308.76L136.249 2291.04Z" fill="black"/>
<path d="M128.562 2278.12L141.751 2290.97L146.282 2273.12L128.562 2278.12Z" fill="black"/>
<path d="M115.643 2285.81L110.645 2268.09L128.49 2272.62L115.643 2285.81Z" fill="black"/>
<path d="M123.33 2298.72L105.61 2303.72L110.141 2285.88L123.33 2298.72Z" fill="black"/>
</g>
<g opacity="0.2">
<path d="M1206.86 131.831L1221.95 142.371L1223.53 124.027L1206.86 131.831Z" fill="black"/>
<path d="M1195.36 141.51L1205.89 126.413L1187.55 124.834L1195.36 141.51Z" fill="black"/>
<path d="M1205.03 153.012L1188.36 160.816L1189.94 142.473L1205.03 153.012Z" fill="black"/>
<path d="M1216.54 143.334L1224.34 160.009L1206 158.43L1216.54 143.334Z" fill="black"/>
</g>
<g opacity="0.2">
<path d="M616.917 412.89L632.013 423.429L633.592 405.086L616.917 412.89Z" fill="black"/>
<path d="M605.414 422.569L615.954 407.473L597.61 405.893L605.414 422.569Z" fill="black"/>
<path d="M615.093 434.071L598.417 441.875L599.997 423.531L615.093 434.071Z" fill="black"/>
<path d="M626.595 424.392L634.399 441.068L616.056 439.488L626.595 424.392Z" fill="black"/>
</g>
<g opacity="0.2">
<path d="M1521.92 841.89L1537.01 852.429L1538.59 834.086L1521.92 841.89Z" fill="black"/>
<path d="M1510.41 851.569L1520.95 836.473L1502.61 834.893L1510.41 851.569Z" fill="black"/>
<path d="M1520.09 863.071L1503.42 870.875L1505 852.531L1520.09 863.071Z" fill="black"/>
<path d="M1531.6 853.392L1539.4 870.068L1521.06 868.488L1531.6 853.392Z" fill="black"/>
</g>
<g opacity="0.2">
<path d="M104.108 1055.9L112.563 1072.25L122.499 1056.75L104.108 1055.9Z" fill="black"/>
<path d="M89.4223 1059.11L105.777 1050.66L90.2775 1040.72L89.4223 1059.11Z" fill="black"/>
<path d="M92.6344 1073.8L74.243 1072.94L84.1793 1057.44L92.6344 1073.8Z" fill="black"/>
<path d="M107.32 1070.58L106.465 1088.97L90.9649 1079.04L107.32 1070.58Z" fill="black"/>
</g>
<g opacity="0.2">
<path d="M1539.37 60.8633L1530.25 106.4L1574.25 91.534L1539.37 60.8633Z" fill="black"/>
<path d="M1505.39 44.0435L1550.92 53.1685L1536.06 9.17024L1505.39 44.0435Z" fill="black"/>
<path d="M1488.57 78.0288L1453.69 47.3581L1497.69 32.4923L1488.57 78.0288Z" fill="black"/>
<path d="M1522.55 94.8485L1491.88 129.722L1477.02 85.7235L1522.55 94.8485Z" fill="black"/>
</g>
</svg>
