<svg width="646" height="876" viewBox="0 0 646 876" fill="none" xmlns="http://www.w3.org/2000/svg">
<path d="M48.0303 7.93346L48.315 8.09784V7.76908L48.0303 7.93346Z" fill="#7C8B92"/>
<path d="M47.8422 8.12183L48.0065 7.83711H47.6778L47.8422 8.12183Z" fill="#7C8B92"/>
<path d="M48.0303 8.31164L47.7456 8.47602V8.14726L48.0303 8.31164Z" fill="#7C8B92"/>
<path d="M48.2201 8.12183L48.3845 8.40654H48.0557L48.2201 8.12183Z" fill="#7C8B92"/>
<g opacity="0.05">
<path d="M57.7328 98.4376L73.9705 125.182L89.0129 97.7474L57.7328 98.4376Z" fill="#7C8B92"/>
<path d="M33.2084 105.592L59.9528 89.3544L32.5183 74.312L33.2084 105.592Z" fill="#7C8B92"/>
<path d="M40.3636 130.116L9.08346 130.806L24.1259 103.372L40.3636 130.116Z" fill="#7C8B92"/>
<path d="M64.8876 122.962L65.5778 154.242L38.1433 139.199L64.8876 122.962Z" fill="#7C8B92"/>
</g>
<g opacity="0.2">
<path d="M315.055 64.2901L284.557 71.2784L305.858 94.1957L315.055 64.2901Z" fill="#7C8B92"/>
<path d="M315.989 38.7608L322.977 69.2582L345.894 47.9575L315.989 38.7608Z" fill="#7C8B92"/>
<path d="M290.459 37.8274L299.656 7.92177L320.957 30.8391L290.459 37.8274Z" fill="#7C8B92"/>
<path d="M289.526 63.3567L259.62 54.16L282.538 32.8593L289.526 63.3567Z" fill="#7C8B92"/>
</g>
<g opacity="0.2">
<path d="M474.884 433.55L468.97 464.274L498.534 454.034L474.884 433.55Z" fill="#7C8B92"/>
<path d="M451.901 422.393L482.625 428.307L472.385 398.743L451.901 422.393Z" fill="#7C8B92"/>
<path d="M440.745 445.374L417.095 424.89L446.659 414.65L440.745 445.374Z" fill="#7C8B92"/>
<path d="M463.726 456.531L443.242 480.182L433.002 450.617L463.726 456.531Z" fill="#7C8B92"/>
</g>
<g opacity="0.2">
<path d="M206.084 757.754L228.668 779.409L236.129 749.024L206.084 757.754Z" fill="#7C8B92"/>
<path d="M184.235 770.989L205.889 748.406L175.504 740.944L184.235 770.989Z" fill="#7C8B92"/>
<path d="M197.469 792.84L167.424 801.571L174.885 771.186L197.469 792.84Z" fill="#7C8B92"/>
<path d="M219.32 779.605L228.05 809.65L197.665 802.189L219.32 779.605Z" fill="#7C8B92"/>
</g>
<g opacity="0.2">
<path d="M453.664 826.322L450.343 843.569L466.94 837.821L453.664 826.322Z" fill="#7C8B92"/>
<path d="M440.763 820.059L458.01 823.379L452.262 806.782L440.763 820.059Z" fill="#7C8B92"/>
<path d="M434.499 832.959L421.223 821.46L437.82 815.712L434.499 832.959Z" fill="#7C8B92"/>
<path d="M447.4 839.223L435.901 852.499L430.153 835.903L447.4 839.223Z" fill="#7C8B92"/>
</g>
<g opacity="0.2">
<path d="M474.588 205.543L431.03 238.73L481.55 259.859L474.588 205.543Z" fill="#7C8B92"/>
<path d="M457.614 164.175L490.8 207.733L511.929 157.213L457.614 164.175Z" fill="#7C8B92"/>
<path d="M416.248 181.144L409.286 126.828L459.806 147.957L416.248 181.144Z" fill="#7C8B92"/>
<path d="M433.217 222.51L378.901 229.471L400.03 178.952L433.217 222.51Z" fill="#7C8B92"/>
</g>
<g opacity="0.2">
<path d="M210.178 492.794L223.226 545.977L262.76 508.086L210.178 492.794Z" fill="#7C8B92"/>
<path d="M165.477 491.846L218.66 478.798L180.769 439.264L165.477 491.846Z" fill="#7C8B92"/>
<path d="M164.529 536.547L111.948 521.255L151.482 483.364L164.529 536.547Z" fill="#7C8B92"/>
<path d="M209.23 537.496L193.938 590.077L156.047 550.543L209.23 537.496Z" fill="#7C8B92"/>
</g>
<g opacity="0.2">
<path d="M589.288 682.412L586.133 737.081L635.055 712.479L589.288 682.412Z" fill="#7C8B92"/>
<path d="M546.839 668.37L601.508 671.526L576.906 622.603L546.839 668.37Z" fill="#7C8B92"/>
<path d="M532.798 710.82L487.03 680.753L535.953 656.151L532.798 710.82Z" fill="#7C8B92"/>
<path d="M575.247 724.861L545.18 770.628L520.578 721.706L575.247 724.861Z" fill="#7C8B92"/>
</g>
<g opacity="0.2">
<path d="M39.4681 665.436L48.6937 680.382L57.0244 664.919L39.4681 665.436Z" fill="#7C8B92"/>
<path d="M25.732 669.553L40.6779 660.328L25.2154 651.997L25.732 669.553Z" fill="#7C8B92"/>
<path d="M29.8489 683.29L12.2926 683.807L20.6233 668.344L29.8489 683.29Z" fill="#7C8B92"/>
<path d="M43.586 679.173L44.1027 696.729L28.6401 688.398L43.586 679.173Z" fill="#7C8B92"/>
</g>
<g opacity="0.2">
<path d="M369.802 619.238L356.316 630.49L372.803 636.544L369.802 619.238Z" fill="#7C8B92"/>
<path d="M363.777 606.224L375.029 619.711L381.083 603.223L363.777 606.224Z" fill="#7C8B92"/>
<path d="M350.765 612.248L347.763 594.942L364.251 600.996L350.765 612.248Z" fill="#7C8B92"/>
<path d="M356.789 625.262L339.483 628.263L345.537 611.776L356.789 625.262Z" fill="#7C8B92"/>
</g>
<g opacity="0.2">
<path d="M167.679 260.145L164.228 277.366L180.868 271.744L167.679 260.145Z" fill="#7C8B92"/>
<path d="M154.826 253.784L172.048 257.235L166.425 240.595L154.826 253.784Z" fill="#7C8B92"/>
<path d="M148.465 266.637L135.276 255.037L151.916 249.415L148.465 266.637Z" fill="#7C8B92"/>
<path d="M161.318 272.998L149.719 286.186L144.097 269.547L161.318 272.998Z" fill="#7C8B92"/>
</g>
<g opacity="0.2">
<path d="M139.904 34.5528L134.172 38.5053L140.461 41.4935L139.904 34.5528Z" fill="#7C8B92"/>
<path d="M137.997 29.1965L141.95 34.929L144.938 28.6398L137.997 29.1965Z" fill="#7C8B92"/>
<path d="M132.641 31.1023L132.084 24.1616L138.373 27.1498L132.641 31.1023Z" fill="#7C8B92"/>
<path d="M134.547 36.4586L127.606 37.0153L130.594 30.7261L134.547 36.4586Z" fill="#7C8B92"/>
</g>
<g opacity="0.2">
<path d="M310.879 362.694L309.511 369.521L316.107 367.292L310.879 362.694Z" fill="#7C8B92"/>
<path d="M305.784 360.172L312.612 361.54L310.383 354.944L305.784 360.172Z" fill="#7C8B92"/>
<path d="M303.262 365.268L298.034 360.669L304.63 358.44L303.262 365.268Z" fill="#7C8B92"/>
<path d="M308.358 367.789L303.759 373.018L301.53 366.421L308.358 367.789Z" fill="#7C8B92"/>
</g>
<g opacity="0.2">
<path d="M566.161 519.265L564.793 526.093L571.39 523.864L566.161 519.265Z" fill="#7C8B92"/>
<path d="M561.065 516.744L567.892 518.112L565.664 511.515L561.065 516.744Z" fill="#7C8B92"/>
<path d="M558.543 521.839L553.315 517.241L559.912 515.012L558.543 521.839Z" fill="#7C8B92"/>
<path d="M563.639 524.361L559.04 529.589L556.812 522.993L563.639 524.361Z" fill="#7C8B92"/>
</g>
<g opacity="0.2">
<path d="M51.5279 866.453L46.6693 871.441L53.4181 873.155L51.5279 866.453Z" fill="#7C8B92"/>
<path d="M48.6204 861.567L53.6081 866.426L55.3219 859.677L48.6204 861.567Z" fill="#7C8B92"/>
<path d="M43.7354 864.474L41.8453 857.773L48.594 859.487L43.7354 864.474Z" fill="#7C8B92"/>
<path d="M46.6423 869.36L39.9408 871.25L41.6546 864.502L46.6423 869.36Z" fill="#7C8B92"/>
</g>
<g opacity="0.2">
<path d="M456.425 49.8574L462.134 53.8434L462.731 46.9061L456.425 49.8574Z" fill="#7C8B92"/>
<path d="M452.075 53.5178L456.061 47.8086L449.123 47.2113L452.075 53.5178Z" fill="#7C8B92"/>
<path d="M455.735 57.8679L449.429 60.8193L450.026 53.882L455.735 57.8679Z" fill="#7C8B92"/>
<path d="M460.085 54.2075L463.037 60.5141L456.099 59.9168L460.085 54.2075Z" fill="#7C8B92"/>
</g>
<g opacity="0.2">
<path d="M233.313 156.152L239.022 160.138L239.619 153.201L233.313 156.152Z" fill="#7C8B92"/>
<path d="M228.963 159.812L232.949 154.103L226.011 153.506L228.963 159.812Z" fill="#7C8B92"/>
<path d="M232.623 164.162L226.316 167.114L226.914 160.176L232.623 164.162Z" fill="#7C8B92"/>
<path d="M236.973 160.502L239.924 166.809L232.987 166.211L236.973 160.502Z" fill="#7C8B92"/>
</g>
<g opacity="0.2">
<path d="M575.577 318.396L581.286 322.382L581.883 315.445L575.577 318.396Z" fill="#7C8B92"/>
<path d="M571.226 322.057L575.212 316.348L568.275 315.75L571.226 322.057Z" fill="#7C8B92"/>
<path d="M574.888 326.407L568.581 329.358L569.178 322.421L574.888 326.407Z" fill="#7C8B92"/>
<path d="M579.238 322.747L582.189 329.053L575.252 328.456L579.238 322.747Z" fill="#7C8B92"/>
</g>
<g opacity="0.2">
<path d="M39.3724 399.331L42.57 405.517L46.3279 399.655L39.3724 399.331Z" fill="#7C8B92"/>
<path d="M33.8175 400.546L40.0028 397.348L34.1409 393.59L33.8175 400.546Z" fill="#7C8B92"/>
<path d="M35.0321 406.1L28.0766 405.777L31.8344 399.915L35.0321 406.1Z" fill="#7C8B92"/>
<path d="M40.586 404.885L40.2626 411.841L34.4007 408.083L40.586 404.885Z" fill="#7C8B92"/>
</g>
<g opacity="0.2">
<path d="M582.18 23.018L578.729 40.2396L595.369 34.6175L582.18 23.018Z" fill="#7C8B92"/>
<path d="M569.327 16.6569L586.549 20.1079L580.926 3.46811L569.327 16.6569Z" fill="#7C8B92"/>
<path d="M562.966 29.5099L549.777 17.9104L566.417 12.2883L562.966 29.5099Z" fill="#7C8B92"/>
<path d="M575.819 35.8709L564.22 49.0597L558.598 32.4199L575.819 35.8709Z" fill="#7C8B92"/>
</g>
</svg>
