<svg width="65" height="84" viewBox="0 0 65 84" fill="none" xmlns="http://www.w3.org/2000/svg">
<path d="M11.042 0.693359C13.649 0.693374 15.4129 1.11456 16.333 1.95801C16.4179 2.02983 16.4987 2.11015 16.5791 2.19531L16.5049 4.82129L17.7285 4.27051C18.0112 5.08947 18.2366 6.08218 18.4033 7.24902L18.4805 7.87109L16.8389 8.61035L18.7725 10.2275L20.7432 26.1182L18.7393 24.5234L18.623 28.6045L20.9229 27.5684L21.3857 31.2998L18.9561 32.3936L21.8184 34.7861L23.7881 50.667L21.4092 48.7725L21.293 52.8535L23.9131 51.6738L24.376 55.4043L21.627 56.6426L24.7578 59.2617L24.7861 58.7129L25.9941 68.4385C26.2242 70.2787 26.7225 71.4671 27.4893 72.0039C28.256 72.5407 29.483 72.8472 31.1699 72.9238L31.0547 83.8506H25.9941C19.2467 83.8506 14.7994 82.2022 12.6523 78.9053C11.5022 77.1417 10.6964 75.4164 10.2363 73.7295C9.89854 72.4346 9.58259 70.7674 9.28613 68.7285L11.1562 68.7822L9.64844 65.4326L8.96094 66.2949L5.97949 44.4648L8.49219 44.5371L6.98438 41.1875L5.74414 42.7441L2.72559 20.6445L6.36816 20.75L4.86035 17.3994L2.65918 20.1641L0 0.693359H11.042ZM61.709 3.36035L64.291 3.43359L58.7959 35.9062L56.0303 33.7041L55.9141 37.7852L58.6895 36.5361L57.9678 40.7988L56.2471 41.5742L57.6396 42.7383L53.2529 68.6689C52.8513 70.8494 52.4916 72.6003 52.1758 73.9219L50.1807 73.8174L51.4424 76.624C51.2644 77.1472 51.0515 77.6847 50.8047 78.2373L50.8818 76.7998L47.5322 78.3066L49.7988 80.2031C48.9961 81.4882 47.9629 82.3978 46.6973 82.9307C45.2404 83.5441 43.3618 83.8506 41.0615 83.8506H37.0635L36.4766 83.3838L36.4629 83.8506H33.9307L36.3652 68.9697L37.708 70.0938L37.9268 65.9678L36.7715 66.4873L37.3125 63.1787L38.7324 66.335L41.3516 63.2031L37.3438 62.9912L37.4678 62.2344L37.5928 62.1787L37.4902 62.0967L42.7568 29.9092L43.665 29.9355L42.9961 28.4492L43.2637 26.8164L46.3135 25.4453L43.8135 23.4561L46.4668 7.24902C46.7735 4.64201 47.426 2.91669 48.4229 2.07324C49.4197 1.15328 51.2214 0.693383 53.8281 0.693359H63.832L61.709 3.36035ZM23.7451 80.4258L26.876 83.0449L27.0947 78.918L23.7451 80.4258ZM20.0312 79.5029L24.1123 79.6191L22.6045 76.2695L20.0312 79.5029ZM27.9004 79.2861L30.5195 76.1543L26.3936 75.9355L27.9004 79.2861ZM43.8184 77.3838L47.8994 77.501L46.3916 74.1514L43.8184 77.3838ZM23.4102 76.6367L26.7607 75.1299L23.5273 72.5566L23.4102 76.6367ZM47.1982 74.5186L50.5479 73.0107L47.3154 70.4375L47.1982 74.5186ZM10.7891 69.5889L13.9199 72.207L14.1387 68.0811L10.7891 69.5889ZM14.9443 68.4482L17.5635 65.3174L13.4375 65.0986L14.9443 68.4482ZM10.4551 65.7998L13.8047 64.293L10.5713 61.7188L10.4551 65.7998ZM45.415 54.5244L48.5459 57.1436L48.7646 53.0166L45.415 54.5244ZM17.9131 55.7188L21.9932 55.8359L20.4863 52.4863L17.9131 55.7188ZM41.7012 53.6016L45.7822 53.7178L44.2744 50.3682L41.7012 53.6016ZM49.5703 53.3848L52.1895 50.2529L48.0635 50.0342L49.5703 53.3848ZM45.0811 50.7354L48.4307 49.2285L45.1973 46.6553L45.0811 50.7354ZM8.125 45.3438L11.2559 47.9629L11.4746 43.8359L8.125 45.3438ZM12.2803 44.2031L14.8994 41.0723L10.7734 40.8535L12.2803 44.2031ZM7.79102 41.5547L11.1406 40.0479L7.90723 37.4736L7.79102 41.5547ZM52.5342 40.6504L56.6143 40.7676L55.1074 37.418L52.5342 40.6504ZM43.2979 30.7412L46.4287 33.3604L46.6475 29.2344L43.2979 30.7412ZM15.2432 31.4697L19.3242 31.5869L17.8164 28.2373L15.2432 31.4697ZM47.4531 29.6016L50.0723 26.4697L45.9463 26.251L47.4531 29.6016ZM6.00098 21.5557L9.13281 24.1748L9.35059 20.0488L6.00098 21.5557ZM10.1572 20.416L12.7754 17.2842L8.64941 17.0664L10.1572 20.416ZM54.585 17.2295L57.7168 19.8486L57.9355 15.7227L54.585 17.2295ZM5.66699 17.7676L9.0166 16.2598L5.78418 13.6865L5.66699 17.7676ZM50.8711 16.3066L54.9521 16.4238L53.4443 13.0742L50.8711 16.3066ZM58.7402 16.0898L61.3594 12.958L57.2334 12.7402L58.7402 16.0898ZM54.251 13.4404L57.6006 11.9336L54.3672 9.36035L54.251 13.4404ZM13.125 7.6875L17.2061 7.80371L15.6992 4.4541L13.125 7.6875ZM64.6943 1.04492L64.5371 0.693359H64.7549L64.6943 1.04492Z" fill="black"/>
</svg>
