<svg width="50" height="50" viewBox="0 0 50 50" fill="none" xmlns="http://www.w3.org/2000/svg">
<circle cx="25" cy="25" r="25" fill="white"/>
<ellipse cx="27" cy="20.5" rx="11" ry="11.5" fill="#595959"/>
<ellipse cx="27" cy="20.5" rx="11" ry="11.5" fill="url(#paint0_linear_89_1582)" fill-opacity="0.2"/>
<circle cx="33" cy="25" r="10" fill="#595959"/>
<circle cx="33" cy="25" r="10" fill="url(#paint1_linear_89_1582)" fill-opacity="0.2"/>
<ellipse cx="19" cy="23.5" rx="10" ry="10.5" fill="#595959"/>
<ellipse cx="19" cy="23.5" rx="10" ry="10.5" fill="url(#paint2_linear_89_1582)" fill-opacity="0.2"/>
<ellipse cx="16" cy="27.5" rx="11" ry="10.5" fill="#595959"/>
<ellipse cx="16" cy="27.5" rx="11" ry="10.5" fill="url(#paint3_linear_89_1582)" fill-opacity="0.2"/>
<path fill-rule="evenodd" clip-rule="evenodd" d="M33.5 44C28.3573 44 24.003 40.6243 22.5321 35.9679L27.5 31C26.5 31.3333 24.8 31.4 26 29C26.9233 27.1534 30.8659 23.6096 34.0015 21.0107C40.1201 21.2733 45 26.3168 45 32.5C45 38.8513 39.8513 44 33.5 44ZM24.3571 36.4443C24.3301 36.387 24.2973 36.339 24.2586 36.3004C24.2268 36.2686 24.1915 36.2424 24.1529 36.2218C24.1142 36.2011 24.0744 36.1883 24.0337 36.1835C23.9936 36.1781 23.9536 36.1816 23.9136 36.194C23.8742 36.2058 23.8373 36.229 23.8028 36.2635C23.7621 36.3043 23.7359 36.3492 23.7242 36.3983C23.7125 36.4473 23.7101 36.4974 23.7171 36.5485C23.7241 36.5996 23.7379 36.6506 23.7587 36.7017C23.7788 36.7521 23.8006 36.7987 23.8241 36.8415C23.7778 36.7925 23.7314 36.7442 23.6851 36.6966C23.6388 36.649 23.5915 36.6011 23.5431 36.5528C23.5369 36.5466 23.5282 36.5476 23.5172 36.5559C23.5055 36.5635 23.4975 36.5694 23.4934 36.5735C23.4789 36.588 23.4661 36.6036 23.4551 36.6202C23.4441 36.6368 23.4365 36.654 23.4324 36.672C23.4289 36.6893 23.4293 36.7069 23.4335 36.7248C23.4376 36.7414 23.4477 36.7576 23.4635 36.7735C23.6156 36.9252 23.7694 37.0732 23.9249 37.2174C24.0797 37.3609 24.2328 37.5081 24.3842 37.6592L24.8798 38.1539L24.9057 38.1279C24.8814 38.0734 24.8507 38.0144 24.8133 37.9509C24.7766 37.8881 24.7307 37.8194 24.6753 37.7449C24.62 37.6704 24.5547 37.59 24.4793 37.5038C24.4047 37.4182 24.3172 37.3254 24.217 37.2254C24.1956 37.204 24.1669 37.1747 24.131 37.1374C24.095 37.1002 24.0573 37.0584 24.0179 37.0122C23.9785 36.9646 23.9405 36.9149 23.9039 36.8632C23.8679 36.8107 23.8395 36.7596 23.8188 36.7099C23.798 36.6589 23.7876 36.6105 23.7876 36.565C23.7882 36.5187 23.8054 36.4786 23.8392 36.4448C23.8682 36.4157 23.8996 36.3967 23.9334 36.3877C23.9673 36.3773 24.0011 36.3752 24.0349 36.3814C24.0688 36.3862 24.1019 36.3979 24.1344 36.4165C24.1669 36.4351 24.1962 36.4575 24.2225 36.4837C24.2432 36.5044 24.264 36.532 24.2847 36.5666C24.3048 36.6004 24.3204 36.6359 24.3315 36.6732C24.3425 36.7105 24.3471 36.7474 24.345 36.784C24.3423 36.8199 24.3285 36.8503 24.3037 36.8752C24.2837 36.8952 24.2623 36.9063 24.2395 36.9084C24.2174 36.9098 24.196 36.9091 24.1753 36.9064C24.1546 36.9023 24.1352 36.8988 24.1173 36.8961C24.1 36.8927 24.0862 36.8961 24.0758 36.9065C24.0676 36.9148 24.0631 36.9255 24.0624 36.9386C24.061 36.9511 24.0645 36.9614 24.0728 36.9697C24.0901 36.9869 24.1094 36.9987 24.1308 37.0048C24.1529 37.0103 24.1754 37.0121 24.1982 37.01C24.2209 37.0065 24.2427 36.9999 24.2634 36.9902C24.2841 36.9791 24.302 36.966 24.3172 36.9508C24.36 36.9079 24.3883 36.8575 24.402 36.7995C24.4158 36.7401 24.4185 36.68 24.4101 36.6193C24.4018 36.5585 24.3841 36.5002 24.3571 36.4443ZM24.2582 35.4444C24.2506 35.4244 24.2398 35.4075 24.226 35.3937C24.2087 35.3764 24.189 35.3678 24.1669 35.3678C24.1448 35.3679 24.1248 35.3768 24.1069 35.3948C24.0931 35.4086 24.0831 35.4256 24.0769 35.4456C24.0707 35.4643 24.0676 35.4839 24.0676 35.5047C24.0683 35.5247 24.0725 35.5447 24.0801 35.5647C24.0871 35.584 24.0974 35.6006 24.1112 35.6144C24.1292 35.6323 24.1493 35.642 24.1714 35.6433C24.1941 35.644 24.2145 35.6354 24.2324 35.6174C24.2462 35.6036 24.2562 35.5866 24.2624 35.5666C24.2686 35.5466 24.2714 35.5266 24.2707 35.5065C24.2699 35.4851 24.2658 35.4644 24.2582 35.4444ZM25.2199 35.9199C25.2198 35.8757 25.2146 35.8326 25.2042 35.7905L25.1938 35.7925C25.1904 35.8485 25.1788 35.9037 25.1588 35.9583C25.1395 36.0122 25.1095 36.0595 25.0688 36.1003C25.0343 36.1349 24.9984 36.1577 24.9611 36.1688C24.9239 36.1799 24.8862 36.1823 24.8483 36.1761C24.811 36.1693 24.7743 36.1555 24.7384 36.1348C24.7025 36.1127 24.669 36.0862 24.6379 36.0551C24.584 36.0013 24.5425 35.9392 24.5134 35.8688C24.485 35.7977 24.4677 35.7252 24.4614 35.6514L24.4396 35.6545C24.4286 35.707 24.4221 35.7605 24.4201 35.815C24.4188 35.8689 24.4237 35.9221 24.4348 35.9745C24.4452 36.0263 24.4625 36.076 24.4867 36.1237C24.5109 36.1713 24.5431 36.2151 24.5832 36.2551C24.6205 36.2924 24.6602 36.3217 24.7024 36.343C24.7445 36.363 24.7873 36.3747 24.8308 36.3781C24.8743 36.3802 24.9175 36.3729 24.9603 36.3562C25.0038 36.3389 25.0448 36.3109 25.0835 36.2722C25.1145 36.2411 25.14 36.2066 25.16 36.1686C25.1807 36.1299 25.1959 36.0898 25.2055 36.0484C25.2151 36.0056 25.2199 35.9627 25.2199 35.9199ZM26.5117 34.6256C26.5054 34.5848 26.4961 34.5458 26.4836 34.5086L26.4733 34.5106C26.4767 34.5362 26.4792 34.5635 26.4806 34.5925C26.482 34.6201 26.4806 34.6477 26.4765 34.6753C26.4717 34.7023 26.4641 34.7285 26.4538 34.7541C26.4428 34.7789 26.4276 34.8011 26.4083 34.8204C26.3848 34.8439 26.3555 34.8546 26.3203 34.8526C26.2851 34.8506 26.2471 34.8409 26.2063 34.8237C26.1649 34.8058 26.1224 34.7827 26.0789 34.7544C26.0346 34.7255 25.9918 34.6958 25.9503 34.6655C25.9096 34.6344 25.8715 34.6048 25.8363 34.5765C25.8017 34.5475 25.7727 34.5248 25.7492 34.5082C25.7389 34.5006 25.7278 34.4944 25.7161 34.4896C25.7036 34.4841 25.6912 34.4807 25.6788 34.4793C25.6656 34.4772 25.6532 34.4779 25.6415 34.4814C25.6291 34.4842 25.618 34.4904 25.6084 34.5001C25.5911 34.5174 25.5821 34.5374 25.5815 34.5602C25.5808 34.5816 25.5839 34.6047 25.5909 34.6296C25.6061 34.682 25.6245 34.7355 25.6459 34.7901C25.6681 34.8439 25.6916 34.8978 25.7165 34.9516C25.7414 35.0054 25.7667 35.0589 25.7923 35.1121C25.8172 35.1645 25.8407 35.2156 25.8629 35.2653C25.818 35.2426 25.7741 35.2167 25.7312 35.1877C25.6877 35.1581 25.6449 35.1271 25.6027 35.0946C25.5606 35.0622 25.5191 35.0298 25.4783 34.9974C25.4369 34.9643 25.3957 34.9329 25.355 34.9033C25.3322 34.8874 25.3073 34.8778 25.2804 34.8743C25.2541 34.8702 25.231 34.8782 25.211 34.8982C25.1951 34.9141 25.1862 34.9314 25.1841 34.95C25.1827 34.968 25.1879 34.9918 25.1997 35.0215C25.2232 35.0781 25.2461 35.1319 25.2682 35.183C25.2904 35.2327 25.3129 35.2814 25.3357 35.329C25.3585 35.3766 25.3821 35.4242 25.4063 35.4719C25.4312 35.5188 25.4575 35.5678 25.4851 35.6189C25.4375 35.5837 25.3919 35.5485 25.3483 35.5134C25.3048 35.4768 25.2623 35.4385 25.2208 35.3985C25.1786 35.3578 25.1368 35.3147 25.0953 35.2691C25.0539 35.2236 25.012 35.1736 24.9699 35.1191C24.9671 35.1149 24.963 35.1136 24.9574 35.1149C24.9526 35.1156 24.9478 35.1177 24.9429 35.1212C24.9374 35.1239 24.9326 35.1274 24.9284 35.1315L24.9191 35.1409C24.8853 35.1747 24.8674 35.2114 24.8654 35.2507C24.8626 35.2894 24.8806 35.3281 24.9193 35.3667C24.9594 35.4067 25.0044 35.4481 25.0541 35.4908C25.1039 35.5336 25.1536 35.5736 25.2034 35.6109C25.2531 35.6481 25.3005 35.6815 25.3454 35.7112C25.3896 35.7402 25.4262 35.7608 25.4553 35.7732C25.476 35.7829 25.496 35.7891 25.5153 35.7918C25.5354 35.7953 25.5544 35.788 25.5723 35.77C25.5833 35.759 25.5895 35.7472 25.5909 35.7348C25.593 35.7217 25.5919 35.7089 25.5878 35.6965C25.5843 35.6833 25.5791 35.6706 25.5722 35.6581C25.5653 35.6443 25.5587 35.6316 25.5525 35.6198C25.5262 35.5701 25.502 35.5239 25.4798 35.4811C25.4577 35.4369 25.4366 35.3945 25.4165 35.3538C25.3965 35.3117 25.3767 35.2699 25.3574 35.2285C25.338 35.1857 25.3186 35.1401 25.2992 35.0918C25.3469 35.1311 25.3922 35.168 25.435 35.2025C25.4779 35.237 25.5193 35.2687 25.5594 35.2977C25.6002 35.326 25.6409 35.3522 25.6817 35.3763C25.7225 35.4004 25.7653 35.4211 25.8102 35.4383L25.8403 35.4497C25.8513 35.4524 25.862 35.4542 25.8724 35.4548C25.8841 35.4555 25.8955 35.4545 25.9065 35.4517C25.9176 35.4489 25.9276 35.443 25.9366 35.4341C25.949 35.4216 25.9566 35.4078 25.9593 35.3926C25.9621 35.3774 25.9617 35.3619 25.9582 35.346C25.9561 35.3301 25.9523 35.3153 25.9468 35.3015C25.9406 35.287 25.935 35.2739 25.9302 35.2621C25.9067 35.2097 25.8831 35.1593 25.8596 35.111C25.8361 35.0626 25.8136 35.0154 25.7921 34.9691C25.7707 34.9229 25.7513 34.878 25.734 34.8345C25.7167 34.7897 25.7018 34.7451 25.6893 34.701C25.7564 34.7541 25.8244 34.8054 25.8935 34.8551C25.962 34.904 26.0279 34.9437 26.0915 34.974C26.1551 35.003 26.2148 35.0184 26.2707 35.0204C26.3267 35.0225 26.376 35.002 26.4188 34.9592C26.4491 34.9288 26.4716 34.8953 26.486 34.8587C26.5019 34.822 26.5115 34.7841 26.5149 34.7447C26.5183 34.7053 26.5173 34.6656 26.5117 34.6256Z" fill="#595959"/>
<path fill-rule="evenodd" clip-rule="evenodd" d="M33.5 44C28.3573 44 24.003 40.6243 22.5321 35.9679L27.5 31C26.5 31.3333 24.8 31.4 26 29C26.9233 27.1534 30.8659 23.6096 34.0015 21.0107C40.1201 21.2733 45 26.3168 45 32.5C45 38.8513 39.8513 44 33.5 44ZM24.3571 36.4443C24.3301 36.387 24.2973 36.339 24.2586 36.3004C24.2268 36.2686 24.1915 36.2424 24.1529 36.2218C24.1142 36.2011 24.0744 36.1883 24.0337 36.1835C23.9936 36.1781 23.9536 36.1816 23.9136 36.194C23.8742 36.2058 23.8373 36.229 23.8028 36.2635C23.7621 36.3043 23.7359 36.3492 23.7242 36.3983C23.7125 36.4473 23.7101 36.4974 23.7171 36.5485C23.7241 36.5996 23.7379 36.6506 23.7587 36.7017C23.7788 36.7521 23.8006 36.7987 23.8241 36.8415C23.7778 36.7925 23.7314 36.7442 23.6851 36.6966C23.6388 36.649 23.5915 36.6011 23.5431 36.5528C23.5369 36.5466 23.5282 36.5476 23.5172 36.5559C23.5055 36.5635 23.4975 36.5694 23.4934 36.5735C23.4789 36.588 23.4661 36.6036 23.4551 36.6202C23.4441 36.6368 23.4365 36.654 23.4324 36.672C23.4289 36.6893 23.4293 36.7069 23.4335 36.7248C23.4376 36.7414 23.4477 36.7576 23.4635 36.7735C23.6156 36.9252 23.7694 37.0732 23.9249 37.2174C24.0797 37.3609 24.2328 37.5081 24.3842 37.6592L24.8798 38.1539L24.9057 38.1279C24.8814 38.0734 24.8507 38.0144 24.8133 37.9509C24.7766 37.8881 24.7307 37.8194 24.6753 37.7449C24.62 37.6704 24.5547 37.59 24.4793 37.5038C24.4047 37.4182 24.3172 37.3254 24.217 37.2254C24.1956 37.204 24.1669 37.1747 24.131 37.1374C24.095 37.1002 24.0573 37.0584 24.0179 37.0122C23.9785 36.9646 23.9405 36.9149 23.9039 36.8632C23.8679 36.8107 23.8395 36.7596 23.8188 36.7099C23.798 36.6589 23.7876 36.6105 23.7876 36.565C23.7882 36.5187 23.8054 36.4786 23.8392 36.4448C23.8682 36.4157 23.8996 36.3967 23.9334 36.3877C23.9673 36.3773 24.0011 36.3752 24.0349 36.3814C24.0688 36.3862 24.1019 36.3979 24.1344 36.4165C24.1669 36.4351 24.1962 36.4575 24.2225 36.4837C24.2432 36.5044 24.264 36.532 24.2847 36.5666C24.3048 36.6004 24.3204 36.6359 24.3315 36.6732C24.3425 36.7105 24.3471 36.7474 24.345 36.784C24.3423 36.8199 24.3285 36.8503 24.3037 36.8752C24.2837 36.8952 24.2623 36.9063 24.2395 36.9084C24.2174 36.9098 24.196 36.9091 24.1753 36.9064C24.1546 36.9023 24.1352 36.8988 24.1173 36.8961C24.1 36.8927 24.0862 36.8961 24.0758 36.9065C24.0676 36.9148 24.0631 36.9255 24.0624 36.9386C24.061 36.9511 24.0645 36.9614 24.0728 36.9697C24.0901 36.9869 24.1094 36.9987 24.1308 37.0048C24.1529 37.0103 24.1754 37.0121 24.1982 37.01C24.2209 37.0065 24.2427 36.9999 24.2634 36.9902C24.2841 36.9791 24.302 36.966 24.3172 36.9508C24.36 36.9079 24.3883 36.8575 24.402 36.7995C24.4158 36.7401 24.4185 36.68 24.4101 36.6193C24.4018 36.5585 24.3841 36.5002 24.3571 36.4443ZM24.2582 35.4444C24.2506 35.4244 24.2398 35.4075 24.226 35.3937C24.2087 35.3764 24.189 35.3678 24.1669 35.3678C24.1448 35.3679 24.1248 35.3768 24.1069 35.3948C24.0931 35.4086 24.0831 35.4256 24.0769 35.4456C24.0707 35.4643 24.0676 35.4839 24.0676 35.5047C24.0683 35.5247 24.0725 35.5447 24.0801 35.5647C24.0871 35.584 24.0974 35.6006 24.1112 35.6144C24.1292 35.6323 24.1493 35.642 24.1714 35.6433C24.1941 35.644 24.2145 35.6354 24.2324 35.6174C24.2462 35.6036 24.2562 35.5866 24.2624 35.5666C24.2686 35.5466 24.2714 35.5266 24.2707 35.5065C24.2699 35.4851 24.2658 35.4644 24.2582 35.4444ZM25.2199 35.9199C25.2198 35.8757 25.2146 35.8326 25.2042 35.7905L25.1938 35.7925C25.1904 35.8485 25.1788 35.9037 25.1588 35.9583C25.1395 36.0122 25.1095 36.0595 25.0688 36.1003C25.0343 36.1349 24.9984 36.1577 24.9611 36.1688C24.9239 36.1799 24.8862 36.1823 24.8483 36.1761C24.811 36.1693 24.7743 36.1555 24.7384 36.1348C24.7025 36.1127 24.669 36.0862 24.6379 36.0551C24.584 36.0013 24.5425 35.9392 24.5134 35.8688C24.485 35.7977 24.4677 35.7252 24.4614 35.6514L24.4396 35.6545C24.4286 35.707 24.4221 35.7605 24.4201 35.815C24.4188 35.8689 24.4237 35.9221 24.4348 35.9745C24.4452 36.0263 24.4625 36.076 24.4867 36.1237C24.5109 36.1713 24.5431 36.2151 24.5832 36.2551C24.6205 36.2924 24.6602 36.3217 24.7024 36.343C24.7445 36.363 24.7873 36.3747 24.8308 36.3781C24.8743 36.3802 24.9175 36.3729 24.9603 36.3562C25.0038 36.3389 25.0448 36.3109 25.0835 36.2722C25.1145 36.2411 25.14 36.2066 25.16 36.1686C25.1807 36.1299 25.1959 36.0898 25.2055 36.0484C25.2151 36.0056 25.2199 35.9627 25.2199 35.9199ZM26.5117 34.6256C26.5054 34.5848 26.4961 34.5458 26.4836 34.5086L26.4733 34.5106C26.4767 34.5362 26.4792 34.5635 26.4806 34.5925C26.482 34.6201 26.4806 34.6477 26.4765 34.6753C26.4717 34.7023 26.4641 34.7285 26.4538 34.7541C26.4428 34.7789 26.4276 34.8011 26.4083 34.8204C26.3848 34.8439 26.3555 34.8546 26.3203 34.8526C26.2851 34.8506 26.2471 34.8409 26.2063 34.8237C26.1649 34.8058 26.1224 34.7827 26.0789 34.7544C26.0346 34.7255 25.9918 34.6958 25.9503 34.6655C25.9096 34.6344 25.8715 34.6048 25.8363 34.5765C25.8017 34.5475 25.7727 34.5248 25.7492 34.5082C25.7389 34.5006 25.7278 34.4944 25.7161 34.4896C25.7036 34.4841 25.6912 34.4807 25.6788 34.4793C25.6656 34.4772 25.6532 34.4779 25.6415 34.4814C25.6291 34.4842 25.618 34.4904 25.6084 34.5001C25.5911 34.5174 25.5821 34.5374 25.5815 34.5602C25.5808 34.5816 25.5839 34.6047 25.5909 34.6296C25.6061 34.682 25.6245 34.7355 25.6459 34.7901C25.6681 34.8439 25.6916 34.8978 25.7165 34.9516C25.7414 35.0054 25.7667 35.0589 25.7923 35.1121C25.8172 35.1645 25.8407 35.2156 25.8629 35.2653C25.818 35.2426 25.7741 35.2167 25.7312 35.1877C25.6877 35.1581 25.6449 35.1271 25.6027 35.0946C25.5606 35.0622 25.5191 35.0298 25.4783 34.9974C25.4369 34.9643 25.3957 34.9329 25.355 34.9033C25.3322 34.8874 25.3073 34.8778 25.2804 34.8743C25.2541 34.8702 25.231 34.8782 25.211 34.8982C25.1951 34.9141 25.1862 34.9314 25.1841 34.95C25.1827 34.968 25.1879 34.9918 25.1997 35.0215C25.2232 35.0781 25.2461 35.1319 25.2682 35.183C25.2904 35.2327 25.3129 35.2814 25.3357 35.329C25.3585 35.3766 25.3821 35.4242 25.4063 35.4719C25.4312 35.5188 25.4575 35.5678 25.4851 35.6189C25.4375 35.5837 25.3919 35.5485 25.3483 35.5134C25.3048 35.4768 25.2623 35.4385 25.2208 35.3985C25.1786 35.3578 25.1368 35.3147 25.0953 35.2691C25.0539 35.2236 25.012 35.1736 24.9699 35.1191C24.9671 35.1149 24.963 35.1136 24.9574 35.1149C24.9526 35.1156 24.9478 35.1177 24.9429 35.1212C24.9374 35.1239 24.9326 35.1274 24.9284 35.1315L24.9191 35.1409C24.8853 35.1747 24.8674 35.2114 24.8654 35.2507C24.8626 35.2894 24.8806 35.3281 24.9193 35.3667C24.9594 35.4067 25.0044 35.4481 25.0541 35.4908C25.1039 35.5336 25.1536 35.5736 25.2034 35.6109C25.2531 35.6481 25.3005 35.6815 25.3454 35.7112C25.3896 35.7402 25.4262 35.7608 25.4553 35.7732C25.476 35.7829 25.496 35.7891 25.5153 35.7918C25.5354 35.7953 25.5544 35.788 25.5723 35.77C25.5833 35.759 25.5895 35.7472 25.5909 35.7348C25.593 35.7217 25.5919 35.7089 25.5878 35.6965C25.5843 35.6833 25.5791 35.6706 25.5722 35.6581C25.5653 35.6443 25.5587 35.6316 25.5525 35.6198C25.5262 35.5701 25.502 35.5239 25.4798 35.4811C25.4577 35.4369 25.4366 35.3945 25.4165 35.3538C25.3965 35.3117 25.3767 35.2699 25.3574 35.2285C25.338 35.1857 25.3186 35.1401 25.2992 35.0918C25.3469 35.1311 25.3922 35.168 25.435 35.2025C25.4779 35.237 25.5193 35.2687 25.5594 35.2977C25.6002 35.326 25.6409 35.3522 25.6817 35.3763C25.7225 35.4004 25.7653 35.4211 25.8102 35.4383L25.8403 35.4497C25.8513 35.4524 25.862 35.4542 25.8724 35.4548C25.8841 35.4555 25.8955 35.4545 25.9065 35.4517C25.9176 35.4489 25.9276 35.443 25.9366 35.4341C25.949 35.4216 25.9566 35.4078 25.9593 35.3926C25.9621 35.3774 25.9617 35.3619 25.9582 35.346C25.9561 35.3301 25.9523 35.3153 25.9468 35.3015C25.9406 35.287 25.935 35.2739 25.9302 35.2621C25.9067 35.2097 25.8831 35.1593 25.8596 35.111C25.8361 35.0626 25.8136 35.0154 25.7921 34.9691C25.7707 34.9229 25.7513 34.878 25.734 34.8345C25.7167 34.7897 25.7018 34.7451 25.6893 34.701C25.7564 34.7541 25.8244 34.8054 25.8935 34.8551C25.962 34.904 26.0279 34.9437 26.0915 34.974C26.1551 35.003 26.2148 35.0184 26.2707 35.0204C26.3267 35.0225 26.376 35.002 26.4188 34.9592C26.4491 34.9288 26.4716 34.8953 26.486 34.8587C26.5019 34.822 26.5115 34.7841 26.5149 34.7447C26.5183 34.7053 26.5173 34.6656 26.5117 34.6256Z" fill="url(#paint4_linear_89_1582)" fill-opacity="0.2"/>
<path d="M29 18.5C35.4 13.7 33.3333 5.5 31.5 2C41.9 12.8 39.1667 17.8333 36.5 19C33.5 21.3333 27.2 26.6 26 29C24.8 31.4 26.5 31.3333 27.5 31L15 43.5L18 32.5C18.5 34.5 20.1 35.8 22.5 25C25.5 11.5 21 24.5 29 18.5Z" fill="#FF0000"/>
<path d="M29 18.5C35.4 13.7 33.3333 5.5 31.5 2C41.9 12.8 39.1667 17.8333 36.5 19C33.5 21.3333 27.2 26.6 26 29C24.8 31.4 26.5 31.3333 27.5 31L15 43.5L18 32.5C18.5 34.5 20.1 35.8 22.5 25C25.5 11.5 21 24.5 29 18.5Z" fill="url(#paint5_linear_89_1582)" fill-opacity="0.2"/>
<path d="M17.4868 42.5918C17.5221 42.627 17.558 42.6718 17.5947 42.7263C17.632 42.7802 17.667 42.8392 17.6995 42.9033C17.732 42.9675 17.7607 43.0341 17.7856 43.1032C17.8106 43.1708 17.8279 43.2364 17.8376 43.2999C17.848 43.3628 17.8491 43.4204 17.8409 43.4729C17.8334 43.5261 17.8134 43.5689 17.7809 43.6014C17.7609 43.6214 17.733 43.6308 17.6971 43.6294C17.6612 43.6281 17.6235 43.6216 17.5841 43.6099C17.5455 43.5975 17.5082 43.583 17.4722 43.5665C17.4363 43.5499 17.4083 43.5372 17.3883 43.5282C17.3323 43.5014 17.2781 43.4728 17.2256 43.4424C17.1731 43.4121 17.1206 43.3804 17.0681 43.3473C17.0646 43.3452 17.0584 43.3411 17.0494 43.3349C17.0397 43.328 17.0294 43.3218 17.0183 43.3163C17.008 43.3101 16.9979 43.3056 16.9883 43.3028C16.9786 43.2987 16.9724 43.298 16.9696 43.3008C16.9634 43.307 16.9572 43.3153 16.951 43.3256C16.9455 43.3353 16.9407 43.3457 16.9365 43.3567C16.9317 43.3671 16.9272 43.3778 16.9231 43.3889C16.9197 43.3992 16.9169 43.4082 16.9148 43.4158L16.8962 43.4137C16.8962 43.3972 16.8979 43.3761 16.9013 43.3506C16.9047 43.325 16.9099 43.2998 16.9168 43.2749C16.923 43.2494 16.9312 43.2252 16.9416 43.2024C16.9512 43.1789 16.9622 43.1609 16.9746 43.1485C16.9912 43.1319 17.0123 43.1253 17.0378 43.1288C17.0634 43.1308 17.0924 43.1398 17.1248 43.1556C17.1573 43.1701 17.1932 43.1901 17.2326 43.2156C17.2727 43.2404 17.3149 43.2666 17.3591 43.2942C17.366 43.2983 17.3798 43.3066 17.4005 43.319C17.4213 43.3314 17.4458 43.3455 17.4741 43.3614C17.5017 43.3766 17.5311 43.3928 17.5622 43.41C17.594 43.4265 17.6237 43.441 17.6513 43.4534C17.679 43.4644 17.7031 43.4727 17.7239 43.4782C17.7446 43.4837 17.7584 43.483 17.7653 43.4761C17.7846 43.4567 17.7956 43.4319 17.7984 43.4015C17.8011 43.3697 17.7979 43.3348 17.7889 43.2969C17.7806 43.2582 17.7678 43.2185 17.7505 43.1778C17.7325 43.1364 17.7124 43.0963 17.6903 43.0577C17.6682 43.019 17.645 42.9835 17.6208 42.9511C17.5973 42.918 17.5748 42.8907 17.5534 42.8693C17.5133 42.8293 17.4694 42.7938 17.4217 42.7628C17.3734 42.731 17.325 42.709 17.2767 42.6966C17.2283 42.6828 17.1817 42.6812 17.1368 42.6916C17.0926 42.7013 17.0547 42.7275 17.023 42.7704L17.0105 42.7642C17.0229 42.7338 17.0377 42.7051 17.055 42.6782C17.0722 42.6512 17.0919 42.6267 17.114 42.6046C17.1733 42.5451 17.2351 42.513 17.2993 42.5081C17.3635 42.5032 17.426 42.5311 17.4868 42.5918ZM17.6845 41.9479C17.6983 41.9617 17.709 41.9786 17.7166 41.9987C17.7242 42.0187 17.7284 42.0394 17.7291 42.0608C17.7298 42.0808 17.7271 42.1009 17.7209 42.1209C17.7147 42.1409 17.7047 42.1578 17.6909 42.1717C17.673 42.1896 17.6526 42.1983 17.6298 42.1976C17.6077 42.1963 17.5877 42.1866 17.5697 42.1687C17.5559 42.1549 17.5455 42.1383 17.5386 42.119C17.531 42.099 17.5268 42.079 17.5261 42.0589C17.5261 42.0382 17.5292 42.0185 17.5354 41.9999C17.5415 41.9798 17.5515 41.9629 17.5653 41.9491C17.5833 41.9311 17.6033 41.9221 17.6254 41.9221C17.6475 41.9221 17.6672 41.9307 17.6845 41.9479ZM18.6626 42.3447C18.673 42.3869 18.6783 42.43 18.6783 42.4742C18.6783 42.517 18.6736 42.5598 18.6639 42.6027C18.6543 42.6441 18.6391 42.6842 18.6185 42.7228C18.5985 42.7608 18.573 42.7954 18.5419 42.8265C18.5033 42.8652 18.4622 42.8932 18.4187 42.9105C18.3759 42.9271 18.3328 42.9344 18.2893 42.9324C18.2458 42.929 18.203 42.9173 18.1608 42.8973C18.1187 42.8759 18.0789 42.8466 18.0416 42.8094C18.0015 42.7694 17.9694 42.7256 17.9452 42.6779C17.9209 42.6303 17.9036 42.5806 17.8932 42.5288C17.8821 42.4764 17.8772 42.4232 17.8786 42.3693C17.8806 42.3148 17.8871 42.2612 17.8981 42.2088L17.9198 42.2056C17.9261 42.2795 17.9435 42.352 17.9718 42.4231C18.0009 42.4935 18.0424 42.5556 18.0963 42.6094C18.1274 42.6405 18.1609 42.667 18.1969 42.6891C18.2328 42.7098 18.2694 42.7235 18.3067 42.7304C18.3447 42.7366 18.3823 42.7341 18.4196 42.723C18.4569 42.712 18.4928 42.6891 18.5273 42.6546C18.568 42.6138 18.5979 42.5665 18.6172 42.5126C18.6372 42.458 18.6489 42.4028 18.6523 42.3468L18.6626 42.3447ZM19.612 41.3936C19.6237 41.4315 19.6334 41.4695 19.6411 41.5075C19.6494 41.5448 19.6529 41.5814 19.6515 41.6173C19.6502 41.6532 19.643 41.6881 19.6299 41.7219C19.6168 41.7558 19.5951 41.7879 19.5647 41.8183C19.5302 41.8529 19.4919 41.874 19.4498 41.8816C19.4084 41.8899 19.3649 41.8893 19.3193 41.8796C19.2737 41.8686 19.2274 41.8507 19.1805 41.8259C19.1342 41.8004 19.0889 41.7725 19.0447 41.7422C19.0005 41.7118 18.9586 41.6804 18.9193 41.648C18.8792 41.6149 18.8432 41.5853 18.8114 41.559C18.8087 41.5825 18.8129 41.6184 18.824 41.6668C18.8344 41.7144 18.8496 41.7675 18.8697 41.8262C18.8898 41.8849 18.914 41.9463 18.9424 42.0105C18.9715 42.074 19.0029 42.1337 19.0368 42.1896C19.0444 42.2014 19.051 42.2148 19.0565 42.23C19.0628 42.2445 19.0666 42.2593 19.068 42.2745C19.0708 42.2897 19.0704 42.3046 19.067 42.3191C19.0642 42.3343 19.0574 42.3474 19.0463 42.3585C19.0284 42.3764 19.009 42.3833 18.9883 42.3792C18.9683 42.3744 18.9486 42.3658 18.9293 42.3534C18.8215 42.2858 18.7234 42.2162 18.6349 42.1444C18.5471 42.072 18.4632 41.9958 18.383 41.9158C18.3636 41.8965 18.3501 41.8768 18.3425 41.8568C18.3349 41.8354 18.3321 41.8147 18.3342 41.7946C18.3355 41.7739 18.3417 41.7539 18.3528 41.7345C18.3631 41.7145 18.3765 41.6962 18.3931 41.6796C18.3952 41.6775 18.3983 41.6744 18.4024 41.6703C18.4072 41.6654 18.4124 41.6616 18.4179 41.6589C18.4228 41.6554 18.4276 41.6533 18.4324 41.6526C18.4373 41.6519 18.4411 41.6537 18.4438 41.6578C18.5164 41.7661 18.6001 41.8669 18.6948 41.96C18.7888 42.0525 18.8835 42.1373 18.9788 42.2145C18.9519 42.1724 18.9239 42.1224 18.8948 42.0644C18.8657 42.0051 18.8388 41.9436 18.8138 41.8801C18.7889 41.8153 18.7678 41.7514 18.7505 41.6886C18.7331 41.6244 18.7227 41.5664 18.7192 41.5146C18.7178 41.4897 18.7185 41.4669 18.7212 41.4462C18.724 41.4241 18.7343 41.4041 18.7522 41.3861C18.7626 41.3758 18.7733 41.3692 18.7843 41.3664C18.7954 41.3636 18.8061 41.3633 18.8164 41.3653C18.8275 41.3667 18.8382 41.3705 18.8486 41.3767C18.8589 41.3815 18.8686 41.387 18.8776 41.3933C18.9011 41.4098 18.9304 41.4322 18.9657 41.4605C19.0009 41.4888 19.0389 41.5184 19.0797 41.5495C19.1212 41.5798 19.164 41.6095 19.2082 41.6384C19.2518 41.6667 19.2943 41.6898 19.3357 41.7077C19.3765 41.7249 19.4145 41.7345 19.4497 41.7366C19.4849 41.7386 19.5139 41.7282 19.5366 41.7054C19.5553 41.6868 19.5698 41.6653 19.5801 41.6412C19.5904 41.6156 19.598 41.5894 19.6028 41.5624C19.6069 41.5348 19.6086 41.5068 19.6079 41.4785C19.6065 41.4495 19.604 41.4222 19.6006 41.3967L19.612 41.3936ZM19.2209 40.4085C19.2347 40.4223 19.2455 40.4392 19.2531 40.4592C19.2607 40.4792 19.2649 40.4999 19.2656 40.5213C19.2663 40.5414 19.2635 40.5614 19.2573 40.5814C19.2511 40.6015 19.2411 40.6184 19.2274 40.6322C19.2094 40.6502 19.1891 40.6588 19.1663 40.6582C19.1442 40.6568 19.1241 40.6472 19.1062 40.6292C19.0923 40.6154 19.082 40.5989 19.075 40.5795C19.0674 40.5595 19.0633 40.5395 19.0626 40.5195C19.0625 40.4988 19.0656 40.4791 19.0718 40.4604C19.078 40.4404 19.088 40.4235 19.1018 40.4096C19.1197 40.3917 19.1398 40.3827 19.1619 40.3827C19.184 40.3826 19.2036 40.3912 19.2209 40.4085ZM20.1991 40.8053C20.2095 40.8474 20.2147 40.8906 20.2148 40.9347C20.2148 40.9776 20.21 41.0204 20.2004 41.0632C20.1908 41.1046 20.1756 41.1447 20.1549 41.1834C20.1349 41.2214 20.1094 41.2559 20.0784 41.2871C20.0397 41.3258 19.9987 41.3538 19.9552 41.3711C19.9124 41.3877 19.8693 41.395 19.8257 41.393C19.7822 41.3895 19.7394 41.3778 19.6973 41.3579C19.6551 41.3365 19.6154 41.3072 19.5781 41.2699C19.538 41.2299 19.5058 41.1861 19.4816 41.1385C19.4574 41.0909 19.4401 41.0412 19.4297 40.9894C19.4186 40.9369 19.4137 40.8837 19.415 40.8299C19.417 40.7753 19.4236 40.7218 19.4345 40.6693L19.4563 40.6662C19.4626 40.7401 19.4799 40.8125 19.5083 40.8836C19.5374 40.9541 19.5789 41.0162 19.6328 41.07C19.6639 41.101 19.6974 41.1276 19.7333 41.1496C19.7693 41.1703 19.8059 41.1841 19.8432 41.191C19.8811 41.1971 19.9188 41.1947 19.9561 41.1836C19.9933 41.1725 20.0292 41.1497 20.0637 41.1151C20.1044 41.0743 20.1344 41.027 20.1537 40.9731C20.1737 40.9186 20.1853 40.8633 20.1887 40.8074L20.1991 40.8053ZM20.9073 40.0957C20.9191 40.1433 20.9223 40.1934 20.9168 40.2459C20.9113 40.297 20.8996 40.3481 20.8817 40.3992C20.8638 40.4489 20.8404 40.4966 20.8114 40.5422C20.7838 40.5878 20.7532 40.6276 20.7193 40.6614C20.678 40.7029 20.6331 40.7354 20.5848 40.7589C20.5372 40.7818 20.4881 40.7949 20.4377 40.7984C20.3873 40.8005 20.338 40.7927 20.2896 40.7747C20.2412 40.7555 20.1956 40.7244 20.1528 40.6817C20.1044 40.6334 20.0657 40.5775 20.0366 40.514C20.0082 40.4498 19.9916 40.3842 19.9867 40.3172C19.9825 40.2495 19.9911 40.1836 20.0124 40.1194C20.0337 40.0537 20.0696 39.9957 20.12 39.9452C20.1365 39.9286 20.1548 39.9138 20.1748 39.9006C20.1948 39.8875 20.2159 39.8782 20.238 39.8726C20.2594 39.8664 20.2808 39.8657 20.3022 39.8705C20.3243 39.8746 20.3454 39.8867 20.3654 39.9067C20.3855 39.9267 20.3979 39.9495 20.4028 39.975C20.4069 39.9999 20.4059 40.0251 20.3997 40.0506C20.3935 40.0762 20.3842 40.1014 20.3718 40.1263C20.3594 40.1497 20.3463 40.1712 20.3325 40.1905L20.318 40.176C20.3249 40.1636 20.3315 40.1494 20.3377 40.1335C20.3446 40.117 20.349 40.1 20.3511 40.0828C20.3531 40.0655 20.3521 40.0486 20.3479 40.032C20.3445 40.0148 20.3365 39.9999 20.3241 39.9875C20.3144 39.9778 20.304 39.9723 20.293 39.971C20.2819 39.9682 20.2709 39.9682 20.2598 39.971C20.2495 39.9731 20.2391 39.9772 20.2288 39.9835C20.2184 39.9897 20.2091 39.9969 20.2008 40.0052C20.1656 40.0405 20.1418 40.0802 20.1295 40.1244C20.1171 40.1672 20.114 40.2111 20.1203 40.256C20.1265 40.3009 20.1404 40.3443 20.1618 40.3864C20.184 40.4279 20.2113 40.4648 20.2438 40.4972C20.2811 40.5345 20.3201 40.5624 20.3609 40.581C20.4016 40.5982 20.4427 40.6068 20.4842 40.6068C20.5256 40.6067 20.5667 40.5974 20.6074 40.5787C20.6481 40.56 20.6868 40.5323 20.7233 40.4957C20.7468 40.4722 20.7692 40.4449 20.7906 40.4138C20.812 40.3813 20.8302 40.3478 20.8454 40.3133C20.8612 40.278 20.8736 40.2421 20.8826 40.2055C20.8915 40.1689 20.8956 40.1337 20.8949 40.0999L20.9073 40.0957ZM20.5152 39.1117C20.5291 39.1255 20.5398 39.1424 20.5474 39.1624C20.555 39.1824 20.5592 39.2031 20.5599 39.2245C20.5606 39.2445 20.5579 39.2646 20.5517 39.2846C20.5455 39.3046 20.5355 39.3216 20.5217 39.3354C20.5037 39.3534 20.4834 39.362 20.4606 39.3613C20.4385 39.36 20.4185 39.3503 20.4005 39.3324C20.3867 39.3186 20.3763 39.302 20.3694 39.2827C20.3617 39.2627 20.3576 39.2427 20.3569 39.2226C20.3569 39.2019 20.3599 39.1822 20.3661 39.1636C20.3723 39.1436 20.3823 39.1266 20.3961 39.1128C20.4141 39.0948 20.4341 39.0858 20.4562 39.0858C20.4783 39.0858 20.498 39.0944 20.5152 39.1117ZM21.4934 39.5085C21.5038 39.5506 21.509 39.5937 21.5091 39.6379C21.5091 39.6807 21.5043 39.7235 21.4947 39.7664C21.4851 39.8078 21.4699 39.8479 21.4493 39.8866C21.4293 39.9246 21.4037 39.9591 21.3727 39.9902C21.3341 40.0289 21.293 40.0569 21.2495 40.0742C21.2067 40.0908 21.1636 40.0981 21.1201 40.0961C21.0766 40.0927 21.0337 40.081 20.9916 40.061C20.9495 40.0397 20.9097 40.0103 20.8724 39.9731C20.8323 39.9331 20.8002 39.8893 20.7759 39.8416C20.7517 39.794 20.7344 39.7443 20.724 39.6925C20.7129 39.6401 20.708 39.5869 20.7093 39.533C20.7114 39.4785 20.7179 39.425 20.7289 39.3725L20.7506 39.3693C20.7569 39.4432 20.7742 39.5157 20.8026 39.5868C20.8317 39.6572 20.8732 39.7193 20.9271 39.7731C20.9582 39.8042 20.9917 39.8307 21.0276 39.8528C21.0636 39.8735 21.1002 39.8872 21.1375 39.8941C21.1755 39.9003 21.2131 39.8978 21.2504 39.8868C21.2877 39.8757 21.3235 39.8528 21.358 39.8183C21.3987 39.7775 21.4287 39.7302 21.448 39.6763C21.468 39.6217 21.4797 39.5665 21.4831 39.5105L21.4934 39.5085ZM22.3776 38.6226C22.39 38.6585 22.3973 38.6975 22.3994 38.7396C22.4015 38.7817 22.3992 38.8242 22.3923 38.867C22.3847 38.9092 22.3723 38.9492 22.3551 38.9872C22.3379 39.0252 22.3158 39.0577 22.2889 39.0847C22.2517 39.122 22.2092 39.1417 22.1616 39.1438C22.1153 39.1459 22.0704 39.137 22.0269 39.117C22.0269 39.1709 22.0197 39.223 22.0053 39.2734C21.9902 39.3232 21.9629 39.3677 21.9236 39.4071C21.8884 39.4424 21.8508 39.4676 21.8108 39.4829C21.7707 39.4967 21.7307 39.5016 21.6906 39.4975C21.6506 39.4934 21.6112 39.4817 21.5725 39.4624C21.5345 39.4424 21.4989 39.4158 21.4657 39.3827C21.4284 39.3455 21.3973 39.3041 21.3724 39.2585C21.3468 39.2123 21.3274 39.164 21.3143 39.1136C21.3004 39.0625 21.2924 39.0104 21.2903 38.9572C21.2882 38.904 21.2912 38.8519 21.2995 38.8008L21.3212 38.7976C21.3337 38.8681 21.3566 38.9371 21.3898 39.0047C21.4223 39.0717 21.4645 39.131 21.5163 39.1828C21.5384 39.2048 21.5643 39.2259 21.5941 39.2459C21.6238 39.2659 21.6549 39.281 21.6873 39.2914C21.7198 39.3017 21.7522 39.3051 21.7847 39.3016C21.8171 39.2968 21.8472 39.2805 21.8748 39.2529C21.8982 39.2294 21.9168 39.2031 21.9306 39.1741C21.9437 39.1444 21.9533 39.1126 21.9595 39.0788C21.9499 39.0719 21.9409 39.065 21.9326 39.0581C21.9236 39.0505 21.915 39.0426 21.9067 39.0343C21.8735 39.0012 21.8424 38.9604 21.8133 38.9121C21.7843 38.8638 21.7587 38.8128 21.7365 38.7589C21.7137 38.7044 21.695 38.6499 21.6804 38.5953C21.6659 38.5394 21.6568 38.4883 21.6534 38.442L21.6751 38.4389C21.7125 38.5079 21.7543 38.5759 21.8006 38.6428C21.847 38.7098 21.8978 38.7708 21.9531 38.826C21.978 38.8509 22.0035 38.8736 22.0298 38.8943C22.056 38.9136 22.0833 38.9278 22.1117 38.9367C22.14 38.9443 22.1686 38.9446 22.1976 38.9377C22.2259 38.93 22.2549 38.9114 22.2846 38.8816C22.3177 38.8485 22.3404 38.8091 22.3528 38.7635C22.3645 38.7172 22.3693 38.6709 22.3672 38.6247L22.3776 38.6226ZM22.9263 37.9235C22.9622 37.9594 22.9895 37.9998 23.0082 38.0446C23.0269 38.0895 23.0363 38.1354 23.0363 38.1824C23.0364 38.2293 23.0274 38.2756 23.0095 38.3212C22.9923 38.3661 22.9654 38.4069 22.9288 38.4435C22.9047 38.4677 22.8771 38.4877 22.846 38.5037C22.815 38.5196 22.7825 38.5306 22.7487 38.5369C22.7149 38.5418 22.6807 38.5414 22.6462 38.536C22.6116 38.5305 22.5792 38.5188 22.5488 38.5008L22.5663 38.4708C22.6064 38.4749 22.6454 38.4724 22.6834 38.4634C22.722 38.4537 22.7565 38.4336 22.7869 38.4032C22.8124 38.3777 22.8303 38.3486 22.8407 38.3162C22.8517 38.283 22.8558 38.2499 22.853 38.2167C22.8509 38.1829 22.8422 38.1501 22.827 38.1184C22.8118 38.0852 22.7917 38.0562 22.7669 38.0314C22.7371 38.0017 22.7085 37.9814 22.6808 37.9704C22.6525 37.9587 22.6249 37.9532 22.5979 37.9539C22.571 37.9532 22.5444 37.9564 22.5182 37.9633C22.4913 37.9695 22.464 37.9761 22.4364 37.983C22.4095 37.9893 22.3815 37.9938 22.3525 37.9966C22.3242 37.9987 22.2941 37.9949 22.2624 37.9853C22.3025 38.0267 22.3384 38.0764 22.3702 38.1343C22.4021 38.1923 22.4277 38.2537 22.4471 38.3186C22.4672 38.3828 22.481 38.4477 22.4887 38.5133C22.4963 38.5789 22.4964 38.6404 22.4889 38.6977L22.4661 38.6915C22.4647 38.6459 22.4546 38.5973 22.4359 38.5455C22.4172 38.4937 22.3937 38.4433 22.3653 38.3943C22.337 38.3439 22.3055 38.2967 22.2709 38.2525C22.237 38.2077 22.2039 38.169 22.1714 38.1366C22.1541 38.1194 22.1354 38.1042 22.1154 38.0911C22.0954 38.078 22.0774 38.0635 22.0615 38.0476C22.0421 38.0283 22.0328 38.0079 22.0335 37.9865C22.0348 37.9644 22.0445 37.9444 22.0624 37.9264C22.0762 37.9126 22.0904 37.9047 22.1049 37.9026C22.1193 37.9005 22.1352 37.9012 22.1525 37.9046C22.1691 37.9073 22.1874 37.9118 22.2074 37.918C22.2267 37.9235 22.2485 37.928 22.2727 37.9314C22.2968 37.9335 22.3234 37.9331 22.3524 37.9303C22.3814 37.9261 22.4135 37.9161 22.4487 37.9002C22.4895 37.8815 22.5305 37.8659 22.5719 37.8534C22.6134 37.8396 22.6541 37.8319 22.6942 37.8305C22.7349 37.8284 22.7749 37.8346 22.8143 37.8491C22.853 37.8628 22.8903 37.8877 22.9263 37.9235Z" fill="black"/>
<defs>
<linearGradient id="paint0_linear_89_1582" x1="30.85" y1="15.2429" x2="43.2234" y2="29.9139" gradientUnits="userSpaceOnUse">
<stop stop-opacity="0"/>
<stop offset="0.430351"/>
</linearGradient>
<linearGradient id="paint1_linear_89_1582" x1="36.5" y1="20.4286" x2="47.1689" y2="33.6536" gradientUnits="userSpaceOnUse">
<stop stop-opacity="0"/>
<stop offset="0.430351"/>
</linearGradient>
<linearGradient id="paint2_linear_89_1582" x1="22.5" y1="18.7" x2="33.8057" y2="32.047" gradientUnits="userSpaceOnUse">
<stop stop-opacity="0"/>
<stop offset="0.430351"/>
</linearGradient>
<linearGradient id="paint3_linear_89_1582" x1="19.85" y1="22.7" x2="30.9313" y2="37.0903" gradientUnits="userSpaceOnUse">
<stop stop-opacity="0"/>
<stop offset="0.430351"/>
</linearGradient>
<linearGradient id="paint4_linear_89_1582" x1="37.6979" y1="27.2507" x2="50.018" y2="42.1761" gradientUnits="userSpaceOnUse">
<stop stop-opacity="0"/>
<stop offset="0.430351"/>
</linearGradient>
<linearGradient id="paint5_linear_89_1582" x1="28.5" y1="24.5" x2="22.5" y2="20.5" gradientUnits="userSpaceOnUse">
<stop stop-opacity="0"/>
<stop offset="1"/>
</linearGradient>
</defs>
</svg>
