<svg width="40" height="43" viewBox="0 0 40 43" fill="none" xmlns="http://www.w3.org/2000/svg">
<ellipse cx="22" cy="18.5" rx="11" ry="11.5" fill="white"/>
<ellipse cx="22" cy="18.5" rx="11" ry="11.5" fill="url(#paint0_linear_89_1649)" fill-opacity="0.2"/>
<circle cx="28" cy="23" r="10" fill="white"/>
<circle cx="28" cy="23" r="10" fill="url(#paint1_linear_89_1649)" fill-opacity="0.2"/>
<ellipse cx="14" cy="21.5" rx="10" ry="10.5" fill="white"/>
<ellipse cx="14" cy="21.5" rx="10" ry="10.5" fill="url(#paint2_linear_89_1649)" fill-opacity="0.2"/>
<ellipse cx="11" cy="25.5" rx="11" ry="10.5" fill="white"/>
<ellipse cx="11" cy="25.5" rx="11" ry="10.5" fill="url(#paint3_linear_89_1649)" fill-opacity="0.2"/>
<path fill-rule="evenodd" clip-rule="evenodd" d="M28.4999 42C23.3572 42 19.0029 38.6243 17.532 33.9679L22.4999 29C21.4999 29.3333 19.7999 29.4 20.9999 27C21.9232 25.1534 25.8658 21.6096 29.0014 19.0107C35.12 19.2733 39.9999 24.3168 39.9999 30.5C39.9999 36.8513 34.8512 42 28.4999 42ZM19.357 34.4443C19.33 34.387 19.2972 34.339 19.2585 34.3004C19.2267 34.2686 19.1914 34.2424 19.1527 34.2218C19.114 34.2011 19.0743 34.1883 19.0336 34.1835C18.9935 34.1781 18.9535 34.1816 18.9134 34.194C18.8741 34.2058 18.8372 34.229 18.8027 34.2635C18.762 34.3043 18.7358 34.3492 18.7241 34.3983C18.7124 34.4473 18.71 34.4974 18.717 34.5485C18.7239 34.5995 18.7378 34.6506 18.7586 34.7017C18.7786 34.7521 18.8004 34.7987 18.824 34.8415C18.7776 34.7925 18.7313 34.7442 18.685 34.6966C18.6387 34.649 18.5914 34.6011 18.543 34.5528C18.5368 34.5466 18.5281 34.5476 18.5171 34.5559C18.5054 34.5635 18.4974 34.5694 18.4933 34.5735C18.4788 34.588 18.466 34.6036 18.455 34.6202C18.444 34.6368 18.4364 34.654 18.4323 34.672C18.4288 34.6893 18.4292 34.7069 18.4333 34.7248C18.4375 34.7414 18.4475 34.7576 18.4634 34.7735C18.6155 34.9252 18.7693 35.0732 18.9248 35.2174C19.0796 35.3609 19.2327 35.5081 19.3841 35.6592L19.8797 36.1539L19.9055 36.1279C19.8813 36.0734 19.8505 36.0144 19.8132 35.9509C19.7765 35.8881 19.7305 35.8194 19.6752 35.7449C19.6199 35.6704 19.5546 35.59 19.4792 35.5038C19.4046 35.4182 19.3171 35.3254 19.2169 35.2254C19.1955 35.204 19.1668 35.1747 19.1308 35.1374C19.0949 35.1002 19.0572 35.0584 19.0178 35.0122C18.9784 34.9646 18.9404 34.9149 18.9037 34.8632C18.8678 34.8107 18.8394 34.7596 18.8186 34.7099C18.7979 34.6589 18.7875 34.6105 18.7874 34.565C18.7881 34.5187 18.8053 34.4786 18.8391 34.4448C18.8681 34.4157 18.8995 34.3967 18.9333 34.3877C18.9671 34.3773 19.001 34.3752 19.0348 34.3814C19.0687 34.3862 19.1018 34.3979 19.1343 34.4165C19.1668 34.4351 19.1961 34.4575 19.2224 34.4837C19.2431 34.5044 19.2639 34.532 19.2846 34.5665C19.3047 34.6004 19.3203 34.6359 19.3313 34.6732C19.3424 34.7105 19.3469 34.7474 19.3449 34.784C19.3422 34.8199 19.3284 34.8503 19.3036 34.8752C19.2836 34.8952 19.2622 34.9063 19.2394 34.9084C19.2173 34.9098 19.1959 34.9091 19.1752 34.9064C19.1544 34.9023 19.1351 34.8988 19.1171 34.8961C19.0999 34.8927 19.0861 34.8961 19.0757 34.9065C19.0674 34.9148 19.063 34.9255 19.0623 34.9386C19.0609 34.951 19.0644 34.9614 19.0727 34.9697C19.09 34.9869 19.1093 34.9986 19.1307 35.0048C19.1528 35.0103 19.1753 35.0121 19.198 35.01C19.2208 35.0065 19.2426 34.9999 19.2633 34.9902C19.284 34.9791 19.3019 34.966 19.3171 34.9508C19.3599 34.9079 19.3881 34.8575 19.4019 34.7995C19.4156 34.7401 19.4183 34.68 19.41 34.6193C19.4017 34.5585 19.384 34.5002 19.357 34.4443ZM19.2581 33.4444C19.2504 33.4244 19.2397 33.4075 19.2259 33.3937C19.2086 33.3764 19.1889 33.3678 19.1668 33.3678C19.1447 33.3678 19.1247 33.3768 19.1068 33.3948C19.093 33.4086 19.083 33.4256 19.0768 33.4456C19.0706 33.4642 19.0675 33.4839 19.0675 33.5046C19.0682 33.5247 19.0724 33.5447 19.08 33.5647C19.0869 33.584 19.0973 33.6006 19.1111 33.6144C19.1291 33.6323 19.1491 33.642 19.1712 33.6433C19.194 33.644 19.2144 33.6354 19.2323 33.6174C19.2461 33.6036 19.2561 33.5866 19.2623 33.5666C19.2685 33.5466 19.2712 33.5265 19.2705 33.5065C19.2698 33.4851 19.2657 33.4644 19.2581 33.4444ZM20.2197 33.9199C20.2197 33.8757 20.2145 33.8326 20.2041 33.7905L20.1937 33.7925C20.1903 33.8485 20.1786 33.9037 20.1587 33.9583C20.1394 34.0122 20.1094 34.0595 20.0687 34.1003C20.0342 34.1349 19.9983 34.1577 19.961 34.1688C19.9237 34.1799 19.8861 34.1823 19.8481 34.1761C19.8108 34.1693 19.7742 34.1555 19.7383 34.1348C19.7024 34.1127 19.6689 34.0862 19.6377 34.0551C19.5838 34.0013 19.5423 33.9392 19.5133 33.8688C19.4849 33.7977 19.4676 33.7252 19.4613 33.6514L19.4395 33.6545C19.4285 33.707 19.422 33.7605 19.42 33.815C19.4187 33.8689 19.4236 33.9221 19.4347 33.9745C19.4451 34.0263 19.4624 34.076 19.4866 34.1237C19.5108 34.1713 19.543 34.2151 19.583 34.2551C19.6204 34.2924 19.6601 34.3217 19.7022 34.343C19.7444 34.363 19.7872 34.3747 19.8307 34.3781C19.8742 34.3802 19.9174 34.3729 19.9602 34.3562C20.0037 34.3389 20.0447 34.3109 20.0834 34.2722C20.1144 34.2411 20.1399 34.2066 20.1599 34.1686C20.1806 34.1299 20.1957 34.0898 20.2054 34.0484C20.215 34.0056 20.2198 33.9627 20.2197 33.9199ZM21.5116 32.6256C21.5053 32.5848 21.496 32.5458 21.4835 32.5086L21.4731 32.5106C21.4766 32.5362 21.4791 32.5635 21.4805 32.5925C21.4819 32.6201 21.4805 32.6477 21.4764 32.6753C21.4716 32.7023 21.464 32.7285 21.4537 32.7541C21.4427 32.7789 21.4275 32.8011 21.4082 32.8204C21.3847 32.8439 21.3554 32.8546 21.3202 32.8526C21.285 32.8506 21.247 32.8409 21.2062 32.8237C21.1648 32.8058 21.1223 32.7827 21.0787 32.7544C21.0345 32.7255 20.9917 32.6958 20.9502 32.6655C20.9094 32.6344 20.8714 32.6048 20.8362 32.5765C20.8016 32.5475 20.7726 32.5248 20.7491 32.5082C20.7387 32.5006 20.7277 32.4944 20.7159 32.4896C20.7035 32.4841 20.6911 32.4807 20.6786 32.4793C20.6655 32.4772 20.6531 32.4779 20.6414 32.4814C20.6289 32.4842 20.6179 32.4904 20.6082 32.5001C20.591 32.5174 20.582 32.5374 20.5814 32.5602C20.5807 32.5816 20.5838 32.6047 20.5907 32.6296C20.606 32.682 20.6243 32.7355 20.6458 32.7901C20.668 32.8439 20.6915 32.8977 20.7164 32.9516C20.7413 33.0054 20.7666 33.0589 20.7922 33.1121C20.8171 33.1645 20.8406 33.2156 20.8627 33.2653C20.8178 33.2425 20.774 33.2167 20.7311 33.1877C20.6876 33.1581 20.6447 33.1271 20.6026 33.0946C20.5604 33.0622 20.519 33.0298 20.4782 32.9974C20.4367 32.9643 20.3956 32.9329 20.3549 32.9033C20.332 32.8874 20.3072 32.8778 20.2802 32.8743C20.254 32.8702 20.2309 32.8782 20.2109 32.8982C20.195 32.9141 20.186 32.9314 20.184 32.95C20.1826 32.968 20.1878 32.9918 20.1996 33.0215C20.2231 33.0781 20.246 33.1319 20.2681 33.183C20.2903 33.2327 20.3128 33.2814 20.3356 33.329C20.3584 33.3766 20.3819 33.4242 20.4062 33.4719C20.4311 33.5188 20.4574 33.5678 20.485 33.6189C20.4373 33.5837 20.3917 33.5485 20.3482 33.5133C20.3047 33.4768 20.2621 33.4385 20.2207 33.3985C20.1785 33.3578 20.1367 33.3147 20.0952 33.2691C20.0537 33.2236 20.0119 33.1736 19.9697 33.1191C19.967 33.1149 19.9628 33.1136 19.9573 33.1149C19.9525 33.1156 19.9476 33.1177 19.9428 33.1212C19.9373 33.1239 19.9325 33.1274 19.9283 33.1315L19.919 33.1409C19.8852 33.1747 19.8673 33.2114 19.8653 33.2507C19.8625 33.2894 19.8805 33.328 19.9192 33.3667C19.9593 33.4067 20.0042 33.4481 20.054 33.4908C20.1038 33.5336 20.1535 33.5736 20.2033 33.6109C20.253 33.6481 20.3004 33.6815 20.3453 33.7112C20.3895 33.7401 20.4261 33.7608 20.4551 33.7732C20.4759 33.7829 20.4959 33.7891 20.5152 33.7918C20.5353 33.7953 20.5542 33.788 20.5722 33.77C20.5832 33.759 20.5894 33.7472 20.5908 33.7348C20.5928 33.7217 20.5918 33.7089 20.5876 33.6965C20.5842 33.6833 20.579 33.6706 20.5721 33.6581C20.5651 33.6443 20.5586 33.6316 20.5524 33.6198C20.5261 33.5701 20.5018 33.5239 20.4797 33.4811C20.4576 33.4369 20.4365 33.3945 20.4164 33.3538C20.3963 33.3117 20.3766 33.2699 20.3572 33.2285C20.3379 33.1857 20.3185 33.1401 20.2991 33.0918C20.3468 33.1311 20.3921 33.168 20.4349 33.2025C20.4777 33.237 20.5192 33.2687 20.5593 33.2977C20.6001 33.326 20.6408 33.3522 20.6816 33.3763C20.7224 33.4004 20.7652 33.4211 20.8101 33.4383L20.8401 33.4497C20.8512 33.4524 20.8619 33.4542 20.8723 33.4548C20.884 33.4555 20.8954 33.4545 20.9064 33.4517C20.9175 33.4489 20.9275 33.443 20.9365 33.4341C20.9489 33.4216 20.9565 33.4078 20.9592 33.3926C20.9619 33.3774 20.9616 33.3619 20.9581 33.346C20.956 33.3301 20.9522 33.3153 20.9467 33.3015C20.9405 33.287 20.9349 33.2739 20.9301 33.2621C20.9065 33.2097 20.883 33.1593 20.8595 33.111C20.836 33.0626 20.8135 33.0154 20.792 32.9691C20.7706 32.9229 20.7512 32.878 20.7339 32.8345C20.7166 32.7897 20.7017 32.7451 20.6892 32.7009C20.7563 32.7541 20.8243 32.8054 20.8934 32.8551C20.9618 32.904 21.0278 32.9437 21.0914 32.974C21.1549 33.003 21.2147 33.0184 21.2706 33.0204C21.3265 33.0225 21.3759 33.002 21.4187 32.9592C21.449 32.9288 21.4714 32.8953 21.4859 32.8587C21.5018 32.822 21.5114 32.7841 21.5148 32.7447C21.5182 32.7053 21.5171 32.6656 21.5116 32.6256Z" fill="white"/>
<path fill-rule="evenodd" clip-rule="evenodd" d="M28.4999 42C23.3572 42 19.0029 38.6243 17.532 33.9679L22.4999 29C21.4999 29.3333 19.7999 29.4 20.9999 27C21.9232 25.1534 25.8658 21.6096 29.0014 19.0107C35.12 19.2733 39.9999 24.3168 39.9999 30.5C39.9999 36.8513 34.8512 42 28.4999 42ZM19.357 34.4443C19.33 34.387 19.2972 34.339 19.2585 34.3004C19.2267 34.2686 19.1914 34.2424 19.1527 34.2218C19.114 34.2011 19.0743 34.1883 19.0336 34.1835C18.9935 34.1781 18.9535 34.1816 18.9134 34.194C18.8741 34.2058 18.8372 34.229 18.8027 34.2635C18.762 34.3043 18.7358 34.3492 18.7241 34.3983C18.7124 34.4473 18.71 34.4974 18.717 34.5485C18.7239 34.5995 18.7378 34.6506 18.7586 34.7017C18.7786 34.7521 18.8004 34.7987 18.824 34.8415C18.7776 34.7925 18.7313 34.7442 18.685 34.6966C18.6387 34.649 18.5914 34.6011 18.543 34.5528C18.5368 34.5466 18.5281 34.5476 18.5171 34.5559C18.5054 34.5635 18.4974 34.5694 18.4933 34.5735C18.4788 34.588 18.466 34.6036 18.455 34.6202C18.444 34.6368 18.4364 34.654 18.4323 34.672C18.4288 34.6893 18.4292 34.7069 18.4333 34.7248C18.4375 34.7414 18.4475 34.7576 18.4634 34.7735C18.6155 34.9252 18.7693 35.0732 18.9248 35.2174C19.0796 35.3609 19.2327 35.5081 19.3841 35.6592L19.8797 36.1539L19.9055 36.1279C19.8813 36.0734 19.8505 36.0144 19.8132 35.9509C19.7765 35.8881 19.7305 35.8194 19.6752 35.7449C19.6199 35.6704 19.5546 35.59 19.4792 35.5038C19.4046 35.4182 19.3171 35.3254 19.2169 35.2254C19.1955 35.204 19.1668 35.1747 19.1308 35.1374C19.0949 35.1002 19.0572 35.0584 19.0178 35.0122C18.9784 34.9646 18.9404 34.9149 18.9037 34.8632C18.8678 34.8107 18.8394 34.7596 18.8186 34.7099C18.7979 34.6589 18.7875 34.6105 18.7874 34.565C18.7881 34.5187 18.8053 34.4786 18.8391 34.4448C18.8681 34.4157 18.8995 34.3967 18.9333 34.3877C18.9671 34.3773 19.001 34.3752 19.0348 34.3814C19.0687 34.3862 19.1018 34.3979 19.1343 34.4165C19.1668 34.4351 19.1961 34.4575 19.2224 34.4837C19.2431 34.5044 19.2639 34.532 19.2846 34.5665C19.3047 34.6004 19.3203 34.6359 19.3313 34.6732C19.3424 34.7105 19.3469 34.7474 19.3449 34.784C19.3422 34.8199 19.3284 34.8503 19.3036 34.8752C19.2836 34.8952 19.2622 34.9063 19.2394 34.9084C19.2173 34.9098 19.1959 34.9091 19.1752 34.9064C19.1544 34.9023 19.1351 34.8988 19.1171 34.8961C19.0999 34.8927 19.0861 34.8961 19.0757 34.9065C19.0674 34.9148 19.063 34.9255 19.0623 34.9386C19.0609 34.951 19.0644 34.9614 19.0727 34.9697C19.09 34.9869 19.1093 34.9986 19.1307 35.0048C19.1528 35.0103 19.1753 35.0121 19.198 35.01C19.2208 35.0065 19.2426 34.9999 19.2633 34.9902C19.284 34.9791 19.3019 34.966 19.3171 34.9508C19.3599 34.9079 19.3881 34.8575 19.4019 34.7995C19.4156 34.7401 19.4183 34.68 19.41 34.6193C19.4017 34.5585 19.384 34.5002 19.357 34.4443ZM19.2581 33.4444C19.2504 33.4244 19.2397 33.4075 19.2259 33.3937C19.2086 33.3764 19.1889 33.3678 19.1668 33.3678C19.1447 33.3678 19.1247 33.3768 19.1068 33.3948C19.093 33.4086 19.083 33.4256 19.0768 33.4456C19.0706 33.4642 19.0675 33.4839 19.0675 33.5046C19.0682 33.5247 19.0724 33.5447 19.08 33.5647C19.0869 33.584 19.0973 33.6006 19.1111 33.6144C19.1291 33.6323 19.1491 33.642 19.1712 33.6433C19.194 33.644 19.2144 33.6354 19.2323 33.6174C19.2461 33.6036 19.2561 33.5866 19.2623 33.5666C19.2685 33.5466 19.2712 33.5265 19.2705 33.5065C19.2698 33.4851 19.2657 33.4644 19.2581 33.4444ZM20.2197 33.9199C20.2197 33.8757 20.2145 33.8326 20.2041 33.7905L20.1937 33.7925C20.1903 33.8485 20.1786 33.9037 20.1587 33.9583C20.1394 34.0122 20.1094 34.0595 20.0687 34.1003C20.0342 34.1349 19.9983 34.1577 19.961 34.1688C19.9237 34.1799 19.8861 34.1823 19.8481 34.1761C19.8108 34.1693 19.7742 34.1555 19.7383 34.1348C19.7024 34.1127 19.6689 34.0862 19.6377 34.0551C19.5838 34.0013 19.5423 33.9392 19.5133 33.8688C19.4849 33.7977 19.4676 33.7252 19.4613 33.6514L19.4395 33.6545C19.4285 33.707 19.422 33.7605 19.42 33.815C19.4187 33.8689 19.4236 33.9221 19.4347 33.9745C19.4451 34.0263 19.4624 34.076 19.4866 34.1237C19.5108 34.1713 19.543 34.2151 19.583 34.2551C19.6204 34.2924 19.6601 34.3217 19.7022 34.343C19.7444 34.363 19.7872 34.3747 19.8307 34.3781C19.8742 34.3802 19.9174 34.3729 19.9602 34.3562C20.0037 34.3389 20.0447 34.3109 20.0834 34.2722C20.1144 34.2411 20.1399 34.2066 20.1599 34.1686C20.1806 34.1299 20.1957 34.0898 20.2054 34.0484C20.215 34.0056 20.2198 33.9627 20.2197 33.9199ZM21.5116 32.6256C21.5053 32.5848 21.496 32.5458 21.4835 32.5086L21.4731 32.5106C21.4766 32.5362 21.4791 32.5635 21.4805 32.5925C21.4819 32.6201 21.4805 32.6477 21.4764 32.6753C21.4716 32.7023 21.464 32.7285 21.4537 32.7541C21.4427 32.7789 21.4275 32.8011 21.4082 32.8204C21.3847 32.8439 21.3554 32.8546 21.3202 32.8526C21.285 32.8506 21.247 32.8409 21.2062 32.8237C21.1648 32.8058 21.1223 32.7827 21.0787 32.7544C21.0345 32.7255 20.9917 32.6958 20.9502 32.6655C20.9094 32.6344 20.8714 32.6048 20.8362 32.5765C20.8016 32.5475 20.7726 32.5248 20.7491 32.5082C20.7387 32.5006 20.7277 32.4944 20.7159 32.4896C20.7035 32.4841 20.6911 32.4807 20.6786 32.4793C20.6655 32.4772 20.6531 32.4779 20.6414 32.4814C20.6289 32.4842 20.6179 32.4904 20.6082 32.5001C20.591 32.5174 20.582 32.5374 20.5814 32.5602C20.5807 32.5816 20.5838 32.6047 20.5907 32.6296C20.606 32.682 20.6243 32.7355 20.6458 32.7901C20.668 32.8439 20.6915 32.8977 20.7164 32.9516C20.7413 33.0054 20.7666 33.0589 20.7922 33.1121C20.8171 33.1645 20.8406 33.2156 20.8627 33.2653C20.8178 33.2425 20.774 33.2167 20.7311 33.1877C20.6876 33.1581 20.6447 33.1271 20.6026 33.0946C20.5604 33.0622 20.519 33.0298 20.4782 32.9974C20.4367 32.9643 20.3956 32.9329 20.3549 32.9033C20.332 32.8874 20.3072 32.8778 20.2802 32.8743C20.254 32.8702 20.2309 32.8782 20.2109 32.8982C20.195 32.9141 20.186 32.9314 20.184 32.95C20.1826 32.968 20.1878 32.9918 20.1996 33.0215C20.2231 33.0781 20.246 33.1319 20.2681 33.183C20.2903 33.2327 20.3128 33.2814 20.3356 33.329C20.3584 33.3766 20.3819 33.4242 20.4062 33.4719C20.4311 33.5188 20.4574 33.5678 20.485 33.6189C20.4373 33.5837 20.3917 33.5485 20.3482 33.5133C20.3047 33.4768 20.2621 33.4385 20.2207 33.3985C20.1785 33.3578 20.1367 33.3147 20.0952 33.2691C20.0537 33.2236 20.0119 33.1736 19.9697 33.1191C19.967 33.1149 19.9628 33.1136 19.9573 33.1149C19.9525 33.1156 19.9476 33.1177 19.9428 33.1212C19.9373 33.1239 19.9325 33.1274 19.9283 33.1315L19.919 33.1409C19.8852 33.1747 19.8673 33.2114 19.8653 33.2507C19.8625 33.2894 19.8805 33.328 19.9192 33.3667C19.9593 33.4067 20.0042 33.4481 20.054 33.4908C20.1038 33.5336 20.1535 33.5736 20.2033 33.6109C20.253 33.6481 20.3004 33.6815 20.3453 33.7112C20.3895 33.7401 20.4261 33.7608 20.4551 33.7732C20.4759 33.7829 20.4959 33.7891 20.5152 33.7918C20.5353 33.7953 20.5542 33.788 20.5722 33.77C20.5832 33.759 20.5894 33.7472 20.5908 33.7348C20.5928 33.7217 20.5918 33.7089 20.5876 33.6965C20.5842 33.6833 20.579 33.6706 20.5721 33.6581C20.5651 33.6443 20.5586 33.6316 20.5524 33.6198C20.5261 33.5701 20.5018 33.5239 20.4797 33.4811C20.4576 33.4369 20.4365 33.3945 20.4164 33.3538C20.3963 33.3117 20.3766 33.2699 20.3572 33.2285C20.3379 33.1857 20.3185 33.1401 20.2991 33.0918C20.3468 33.1311 20.3921 33.168 20.4349 33.2025C20.4777 33.237 20.5192 33.2687 20.5593 33.2977C20.6001 33.326 20.6408 33.3522 20.6816 33.3763C20.7224 33.4004 20.7652 33.4211 20.8101 33.4383L20.8401 33.4497C20.8512 33.4524 20.8619 33.4542 20.8723 33.4548C20.884 33.4555 20.8954 33.4545 20.9064 33.4517C20.9175 33.4489 20.9275 33.443 20.9365 33.4341C20.9489 33.4216 20.9565 33.4078 20.9592 33.3926C20.9619 33.3774 20.9616 33.3619 20.9581 33.346C20.956 33.3301 20.9522 33.3153 20.9467 33.3015C20.9405 33.287 20.9349 33.2739 20.9301 33.2621C20.9065 33.2097 20.883 33.1593 20.8595 33.111C20.836 33.0626 20.8135 33.0154 20.792 32.9691C20.7706 32.9229 20.7512 32.878 20.7339 32.8345C20.7166 32.7897 20.7017 32.7451 20.6892 32.7009C20.7563 32.7541 20.8243 32.8054 20.8934 32.8551C20.9618 32.904 21.0278 32.9437 21.0914 32.974C21.1549 33.003 21.2147 33.0184 21.2706 33.0204C21.3265 33.0225 21.3759 33.002 21.4187 32.9592C21.449 32.9288 21.4714 32.8953 21.4859 32.8587C21.5018 32.822 21.5114 32.7841 21.5148 32.7447C21.5182 32.7053 21.5171 32.6656 21.5116 32.6256Z" fill="url(#paint4_linear_89_1649)" fill-opacity="0.2"/>
<path d="M24 16.5C30.4 11.7 28.3333 3.5 26.5 6.38816e-08C36.9 10.8 34.1667 15.8333 31.5 17C28.5 19.3333 22.2 24.6 21 27C19.8 29.4 21.5 29.3333 22.5 29L10 41.5L13 30.5C13.5 32.5 15.1 33.8 17.5 23C20.5 9.5 16 22.5 24 16.5Z" fill="#FF0000"/>
<path d="M24 16.5C30.4 11.7 28.3333 3.5 26.5 6.38816e-08C36.9 10.8 34.1667 15.8333 31.5 17C28.5 19.3333 22.2 24.6 21 27C19.8 29.4 21.5 29.3333 22.5 29L10 41.5L13 30.5C13.5 32.5 15.1 33.8 17.5 23C20.5 9.5 16 22.5 24 16.5Z" fill="url(#paint5_linear_89_1649)" fill-opacity="0.2"/>
<path d="M12.4868 40.5918C12.5221 40.627 12.558 40.6718 12.5947 40.7263C12.632 40.7802 12.667 40.8392 12.6995 40.9033C12.732 40.9675 12.7607 41.0341 12.7856 41.1032C12.8106 41.1708 12.8279 41.2364 12.8376 41.2999C12.848 41.3628 12.8491 41.4204 12.8409 41.4729C12.8334 41.5261 12.8134 41.5689 12.7809 41.6014C12.7609 41.6214 12.733 41.6308 12.6971 41.6294C12.6612 41.6281 12.6235 41.6216 12.5841 41.6099C12.5455 41.5975 12.5082 41.583 12.4722 41.5665C12.4363 41.5499 12.4083 41.5372 12.3883 41.5282C12.3323 41.5014 12.2781 41.4728 12.2256 41.4424C12.1731 41.4121 12.1206 41.3804 12.0681 41.3473C12.0646 41.3452 12.0584 41.3411 12.0494 41.3349C12.0397 41.328 12.0294 41.3218 12.0183 41.3163C12.008 41.3101 11.9979 41.3056 11.9883 41.3028C11.9786 41.2987 11.9724 41.298 11.9696 41.3008C11.9634 41.307 11.9572 41.3153 11.951 41.3256C11.9455 41.3353 11.9407 41.3457 11.9365 41.3567C11.9317 41.3671 11.9272 41.3778 11.9231 41.3889C11.9197 41.3992 11.9169 41.4082 11.9148 41.4158L11.8962 41.4137C11.8962 41.3972 11.8979 41.3761 11.9013 41.3506C11.9047 41.325 11.9099 41.2998 11.9168 41.2749C11.923 41.2494 11.9312 41.2252 11.9416 41.2024C11.9512 41.1789 11.9622 41.1609 11.9746 41.1485C11.9912 41.1319 12.0123 41.1253 12.0378 41.1288C12.0634 41.1308 12.0924 41.1398 12.1248 41.1556C12.1573 41.1701 12.1932 41.1901 12.2326 41.2156C12.2727 41.2404 12.3149 41.2666 12.3591 41.2942C12.366 41.2983 12.3798 41.3066 12.4005 41.319C12.4213 41.3314 12.4458 41.3455 12.4741 41.3614C12.5017 41.3766 12.5311 41.3928 12.5622 41.41C12.594 41.4265 12.6237 41.441 12.6513 41.4534C12.679 41.4644 12.7031 41.4727 12.7239 41.4782C12.7446 41.4837 12.7584 41.483 12.7653 41.4761C12.7846 41.4567 12.7956 41.4319 12.7984 41.4015C12.8011 41.3697 12.7979 41.3348 12.7889 41.2969C12.7806 41.2582 12.7678 41.2185 12.7505 41.1778C12.7325 41.1364 12.7124 41.0963 12.6903 41.0577C12.6682 41.019 12.645 40.9835 12.6208 40.9511C12.5973 40.918 12.5748 40.8907 12.5534 40.8693C12.5133 40.8293 12.4694 40.7938 12.4217 40.7628C12.3734 40.731 12.325 40.709 12.2767 40.6966C12.2283 40.6828 12.1817 40.6812 12.1368 40.6916C12.0926 40.7013 12.0547 40.7275 12.023 40.7704L12.0105 40.7642C12.0229 40.7338 12.0377 40.7051 12.055 40.6782C12.0722 40.6512 12.0919 40.6267 12.114 40.6046C12.1733 40.5451 12.2351 40.513 12.2993 40.5081C12.3635 40.5032 12.426 40.5311 12.4868 40.5918ZM12.6845 39.9479C12.6983 39.9617 12.709 39.9786 12.7166 39.9987C12.7242 40.0187 12.7284 40.0394 12.7291 40.0608C12.7298 40.0808 12.7271 40.1009 12.7209 40.1209C12.7147 40.1409 12.7047 40.1578 12.6909 40.1717C12.673 40.1896 12.6526 40.1983 12.6298 40.1976C12.6077 40.1963 12.5877 40.1866 12.5697 40.1687C12.5559 40.1549 12.5455 40.1383 12.5386 40.119C12.531 40.099 12.5268 40.079 12.5261 40.0589C12.5261 40.0382 12.5292 40.0185 12.5354 39.9999C12.5415 39.9798 12.5515 39.9629 12.5653 39.9491C12.5833 39.9311 12.6033 39.9221 12.6254 39.9221C12.6475 39.9221 12.6672 39.9307 12.6845 39.9479ZM13.6626 40.3447C13.673 40.3869 13.6783 40.43 13.6783 40.4742C13.6783 40.517 13.6736 40.5598 13.6639 40.6027C13.6543 40.6441 13.6391 40.6842 13.6185 40.7228C13.5985 40.7608 13.573 40.7954 13.5419 40.8265C13.5033 40.8652 13.4622 40.8932 13.4187 40.9105C13.3759 40.9271 13.3328 40.9344 13.2893 40.9324C13.2458 40.929 13.203 40.9173 13.1608 40.8973C13.1187 40.8759 13.0789 40.8466 13.0416 40.8094C13.0015 40.7694 12.9694 40.7256 12.9452 40.6779C12.9209 40.6303 12.9036 40.5806 12.8932 40.5288C12.8821 40.4764 12.8772 40.4232 12.8786 40.3693C12.8806 40.3148 12.8871 40.2612 12.8981 40.2088L12.9198 40.2056C12.9261 40.2795 12.9435 40.352 12.9718 40.4231C13.0009 40.4935 13.0424 40.5556 13.0963 40.6094C13.1274 40.6405 13.1609 40.667 13.1969 40.6891C13.2328 40.7098 13.2694 40.7235 13.3067 40.7304C13.3447 40.7366 13.3823 40.7341 13.4196 40.723C13.4569 40.712 13.4928 40.6891 13.5273 40.6546C13.568 40.6138 13.5979 40.5665 13.6172 40.5126C13.6372 40.458 13.6489 40.4028 13.6523 40.3468L13.6626 40.3447ZM14.612 39.3936C14.6237 39.4315 14.6334 39.4695 14.6411 39.5075C14.6494 39.5448 14.6529 39.5814 14.6515 39.6173C14.6502 39.6532 14.643 39.6881 14.6299 39.7219C14.6168 39.7558 14.5951 39.7879 14.5647 39.8183C14.5302 39.8529 14.4919 39.874 14.4498 39.8816C14.4084 39.8899 14.3649 39.8893 14.3193 39.8796C14.2737 39.8686 14.2274 39.8507 14.1805 39.8259C14.1342 39.8004 14.0889 39.7725 14.0447 39.7422C14.0005 39.7118 13.9586 39.6804 13.9193 39.648C13.8792 39.6149 13.8432 39.5853 13.8114 39.559C13.8087 39.5825 13.8129 39.6184 13.824 39.6668C13.8344 39.7144 13.8496 39.7675 13.8697 39.8262C13.8898 39.8849 13.914 39.9463 13.9424 40.0105C13.9715 40.074 14.0029 40.1337 14.0368 40.1896C14.0444 40.2014 14.051 40.2148 14.0565 40.23C14.0628 40.2445 14.0666 40.2593 14.068 40.2745C14.0708 40.2897 14.0704 40.3046 14.067 40.3191C14.0642 40.3343 14.0574 40.3474 14.0463 40.3585C14.0284 40.3764 14.009 40.3833 13.9883 40.3792C13.9683 40.3744 13.9486 40.3658 13.9293 40.3534C13.8215 40.2858 13.7234 40.2162 13.6349 40.1444C13.5471 40.072 13.4632 39.9958 13.383 39.9158C13.3636 39.8965 13.3501 39.8768 13.3425 39.8568C13.3349 39.8354 13.3321 39.8147 13.3342 39.7946C13.3355 39.7739 13.3417 39.7539 13.3528 39.7345C13.3631 39.7145 13.3765 39.6962 13.3931 39.6796C13.3952 39.6775 13.3983 39.6744 13.4024 39.6703C13.4072 39.6654 13.4124 39.6616 13.4179 39.6589C13.4228 39.6554 13.4276 39.6533 13.4324 39.6526C13.4373 39.6519 13.4411 39.6537 13.4438 39.6578C13.5164 39.7661 13.6001 39.8669 13.6948 39.96C13.7888 40.0525 13.8835 40.1373 13.9788 40.2145C13.9519 40.1724 13.9239 40.1224 13.8948 40.0644C13.8657 40.0051 13.8388 39.9436 13.8138 39.8801C13.7889 39.8153 13.7678 39.7514 13.7505 39.6886C13.7331 39.6244 13.7227 39.5664 13.7192 39.5146C13.7178 39.4897 13.7185 39.4669 13.7212 39.4462C13.724 39.4241 13.7343 39.4041 13.7522 39.3861C13.7626 39.3758 13.7733 39.3692 13.7843 39.3664C13.7954 39.3636 13.8061 39.3633 13.8164 39.3653C13.8275 39.3667 13.8382 39.3705 13.8486 39.3767C13.8589 39.3815 13.8686 39.387 13.8776 39.3933C13.9011 39.4098 13.9304 39.4322 13.9657 39.4605C14.0009 39.4888 14.0389 39.5184 14.0797 39.5495C14.1212 39.5798 14.164 39.6095 14.2082 39.6384C14.2518 39.6667 14.2943 39.6898 14.3357 39.7077C14.3765 39.7249 14.4145 39.7345 14.4497 39.7366C14.4849 39.7386 14.5139 39.7282 14.5366 39.7054C14.5553 39.6868 14.5698 39.6653 14.5801 39.6412C14.5904 39.6156 14.598 39.5894 14.6028 39.5624C14.6069 39.5348 14.6086 39.5068 14.6079 39.4785C14.6065 39.4495 14.604 39.4222 14.6006 39.3967L14.612 39.3936ZM14.2209 38.4085C14.2347 38.4223 14.2455 38.4392 14.2531 38.4592C14.2607 38.4792 14.2649 38.4999 14.2656 38.5213C14.2663 38.5414 14.2635 38.5614 14.2573 38.5814C14.2511 38.6015 14.2411 38.6184 14.2274 38.6322C14.2094 38.6502 14.1891 38.6588 14.1663 38.6582C14.1442 38.6568 14.1241 38.6472 14.1062 38.6292C14.0923 38.6154 14.082 38.5989 14.075 38.5795C14.0674 38.5595 14.0633 38.5395 14.0626 38.5195C14.0625 38.4988 14.0656 38.4791 14.0718 38.4604C14.078 38.4404 14.088 38.4235 14.1018 38.4096C14.1197 38.3917 14.1398 38.3827 14.1619 38.3827C14.184 38.3826 14.2036 38.3912 14.2209 38.4085ZM15.1991 38.8053C15.2095 38.8474 15.2147 38.8906 15.2148 38.9347C15.2148 38.9776 15.21 39.0204 15.2004 39.0632C15.1908 39.1046 15.1756 39.1447 15.1549 39.1834C15.1349 39.2214 15.1094 39.2559 15.0784 39.2871C15.0397 39.3258 14.9987 39.3538 14.9552 39.3711C14.9124 39.3877 14.8693 39.395 14.8257 39.393C14.7822 39.3895 14.7394 39.3778 14.6973 39.3579C14.6551 39.3365 14.6154 39.3072 14.5781 39.2699C14.538 39.2299 14.5058 39.1861 14.4816 39.1385C14.4574 39.0909 14.4401 39.0412 14.4297 38.9894C14.4186 38.9369 14.4137 38.8837 14.415 38.8299C14.417 38.7753 14.4236 38.7218 14.4345 38.6693L14.4563 38.6662C14.4626 38.7401 14.4799 38.8125 14.5083 38.8836C14.5374 38.9541 14.5789 39.0162 14.6328 39.07C14.6639 39.101 14.6974 39.1276 14.7333 39.1496C14.7693 39.1703 14.8059 39.1841 14.8432 39.191C14.8811 39.1971 14.9188 39.1947 14.9561 39.1836C14.9933 39.1725 15.0292 39.1497 15.0637 39.1151C15.1044 39.0743 15.1344 39.027 15.1537 38.9731C15.1737 38.9186 15.1853 38.8633 15.1887 38.8074L15.1991 38.8053ZM15.9073 38.0957C15.9191 38.1433 15.9223 38.1934 15.9168 38.2459C15.9113 38.297 15.8996 38.3481 15.8817 38.3992C15.8638 38.4489 15.8404 38.4966 15.8114 38.5422C15.7838 38.5878 15.7532 38.6276 15.7193 38.6614C15.678 38.7029 15.6331 38.7354 15.5848 38.7589C15.5372 38.7818 15.4881 38.7949 15.4377 38.7984C15.3873 38.8005 15.338 38.7927 15.2896 38.7747C15.2412 38.7555 15.1956 38.7244 15.1528 38.6817C15.1044 38.6334 15.0657 38.5775 15.0366 38.514C15.0082 38.4498 14.9916 38.3842 14.9867 38.3172C14.9825 38.2495 14.9911 38.1836 15.0124 38.1194C15.0337 38.0537 15.0696 37.9957 15.12 37.9452C15.1365 37.9286 15.1548 37.9138 15.1748 37.9006C15.1948 37.8875 15.2159 37.8782 15.238 37.8726C15.2594 37.8664 15.2808 37.8657 15.3022 37.8705C15.3243 37.8746 15.3454 37.8867 15.3654 37.9067C15.3855 37.9267 15.3979 37.9495 15.4028 37.975C15.4069 37.9999 15.4059 38.0251 15.3997 38.0506C15.3935 38.0762 15.3842 38.1014 15.3718 38.1263C15.3594 38.1497 15.3463 38.1712 15.3325 38.1905L15.318 38.176C15.3249 38.1636 15.3315 38.1494 15.3377 38.1335C15.3446 38.117 15.349 38.1 15.3511 38.0828C15.3531 38.0655 15.3521 38.0486 15.3479 38.032C15.3445 38.0148 15.3365 37.9999 15.3241 37.9875C15.3144 37.9778 15.304 37.9723 15.293 37.971C15.2819 37.9682 15.2709 37.9682 15.2598 37.971C15.2495 37.9731 15.2391 37.9772 15.2288 37.9835C15.2184 37.9897 15.2091 37.9969 15.2008 38.0052C15.1656 38.0405 15.1418 38.0802 15.1295 38.1244C15.1171 38.1672 15.114 38.2111 15.1203 38.256C15.1265 38.3009 15.1404 38.3443 15.1618 38.3864C15.184 38.4279 15.2113 38.4648 15.2438 38.4972C15.2811 38.5345 15.3201 38.5624 15.3609 38.581C15.4016 38.5982 15.4427 38.6068 15.4842 38.6068C15.5256 38.6067 15.5667 38.5974 15.6074 38.5787C15.6481 38.56 15.6868 38.5323 15.7233 38.4957C15.7468 38.4722 15.7692 38.4449 15.7906 38.4138C15.812 38.3813 15.8302 38.3478 15.8454 38.3133C15.8612 38.278 15.8736 38.2421 15.8826 38.2055C15.8915 38.1689 15.8956 38.1337 15.8949 38.0999L15.9073 38.0957ZM15.5152 37.1117C15.5291 37.1255 15.5398 37.1424 15.5474 37.1624C15.555 37.1824 15.5592 37.2031 15.5599 37.2245C15.5606 37.2445 15.5579 37.2646 15.5517 37.2846C15.5455 37.3046 15.5355 37.3216 15.5217 37.3354C15.5037 37.3534 15.4834 37.362 15.4606 37.3613C15.4385 37.36 15.4185 37.3503 15.4005 37.3324C15.3867 37.3186 15.3763 37.302 15.3694 37.2827C15.3617 37.2627 15.3576 37.2427 15.3569 37.2226C15.3569 37.2019 15.3599 37.1822 15.3661 37.1636C15.3723 37.1436 15.3823 37.1266 15.3961 37.1128C15.4141 37.0948 15.4341 37.0858 15.4562 37.0858C15.4783 37.0858 15.498 37.0944 15.5152 37.1117ZM16.4934 37.5085C16.5038 37.5506 16.509 37.5937 16.5091 37.6379C16.5091 37.6807 16.5043 37.7235 16.4947 37.7664C16.4851 37.8078 16.4699 37.8479 16.4493 37.8866C16.4293 37.9246 16.4037 37.9591 16.3727 37.9902C16.3341 38.0289 16.293 38.0569 16.2495 38.0742C16.2067 38.0908 16.1636 38.0981 16.1201 38.0961C16.0766 38.0927 16.0337 38.081 15.9916 38.061C15.9495 38.0397 15.9097 38.0103 15.8724 37.9731C15.8323 37.9331 15.8002 37.8893 15.7759 37.8416C15.7517 37.794 15.7344 37.7443 15.724 37.6925C15.7129 37.6401 15.708 37.5869 15.7093 37.533C15.7114 37.4785 15.7179 37.425 15.7289 37.3725L15.7506 37.3693C15.7569 37.4432 15.7742 37.5157 15.8026 37.5868C15.8317 37.6572 15.8732 37.7193 15.9271 37.7731C15.9582 37.8042 15.9917 37.8307 16.0276 37.8528C16.0636 37.8735 16.1002 37.8872 16.1375 37.8941C16.1755 37.9003 16.2131 37.8978 16.2504 37.8868C16.2877 37.8757 16.3235 37.8528 16.358 37.8183C16.3987 37.7775 16.4287 37.7302 16.448 37.6763C16.468 37.6217 16.4797 37.5665 16.4831 37.5105L16.4934 37.5085ZM17.3776 36.6226C17.39 36.6585 17.3973 36.6975 17.3994 36.7396C17.4015 36.7817 17.3992 36.8242 17.3923 36.867C17.3847 36.9092 17.3723 36.9492 17.3551 36.9872C17.3379 37.0252 17.3158 37.0577 17.2889 37.0847C17.2517 37.122 17.2092 37.1417 17.1616 37.1438C17.1153 37.1459 17.0704 37.137 17.0269 37.117C17.0269 37.1709 17.0197 37.223 17.0053 37.2734C16.9902 37.3232 16.9629 37.3677 16.9236 37.4071C16.8884 37.4424 16.8508 37.4676 16.8108 37.4829C16.7707 37.4967 16.7307 37.5016 16.6906 37.4975C16.6506 37.4934 16.6112 37.4817 16.5725 37.4624C16.5345 37.4424 16.4989 37.4158 16.4657 37.3827C16.4284 37.3455 16.3973 37.3041 16.3724 37.2585C16.3468 37.2123 16.3274 37.164 16.3143 37.1136C16.3004 37.0625 16.2924 37.0104 16.2903 36.9572C16.2882 36.904 16.2912 36.8519 16.2995 36.8008L16.3212 36.7976C16.3337 36.8681 16.3566 36.9371 16.3898 37.0047C16.4223 37.0717 16.4645 37.131 16.5163 37.1828C16.5384 37.2048 16.5643 37.2259 16.5941 37.2459C16.6238 37.2659 16.6549 37.281 16.6873 37.2914C16.7198 37.3017 16.7522 37.3051 16.7847 37.3016C16.8171 37.2968 16.8472 37.2805 16.8748 37.2529C16.8982 37.2294 16.9168 37.2031 16.9306 37.1741C16.9437 37.1444 16.9533 37.1126 16.9595 37.0788C16.9499 37.0719 16.9409 37.065 16.9326 37.0581C16.9236 37.0505 16.915 37.0426 16.9067 37.0343C16.8735 37.0012 16.8424 36.9604 16.8133 36.9121C16.7843 36.8638 16.7587 36.8128 16.7365 36.7589C16.7137 36.7044 16.695 36.6499 16.6804 36.5953C16.6659 36.5394 16.6568 36.4883 16.6534 36.442L16.6751 36.4389C16.7125 36.5079 16.7543 36.5759 16.8006 36.6428C16.847 36.7098 16.8978 36.7708 16.9531 36.826C16.978 36.8509 17.0035 36.8736 17.0298 36.8943C17.056 36.9136 17.0833 36.9278 17.1117 36.9367C17.14 36.9443 17.1686 36.9446 17.1976 36.9377C17.2259 36.93 17.2549 36.9114 17.2846 36.8816C17.3177 36.8485 17.3404 36.8091 17.3528 36.7635C17.3645 36.7172 17.3693 36.6709 17.3672 36.6247L17.3776 36.6226ZM17.9263 35.9235C17.9622 35.9594 17.9895 35.9998 18.0082 36.0446C18.0269 36.0895 18.0363 36.1354 18.0363 36.1824C18.0364 36.2293 18.0274 36.2756 18.0095 36.3212C17.9923 36.3661 17.9654 36.4069 17.9288 36.4435C17.9047 36.4677 17.8771 36.4877 17.846 36.5037C17.815 36.5196 17.7825 36.5306 17.7487 36.5369C17.7149 36.5418 17.6807 36.5414 17.6462 36.536C17.6116 36.5305 17.5792 36.5188 17.5488 36.5008L17.5663 36.4708C17.6064 36.4749 17.6454 36.4724 17.6834 36.4634C17.722 36.4537 17.7565 36.4336 17.7869 36.4032C17.8124 36.3777 17.8303 36.3486 17.8407 36.3162C17.8517 36.283 17.8558 36.2499 17.853 36.2167C17.8509 36.1829 17.8422 36.1501 17.827 36.1184C17.8118 36.0852 17.7917 36.0562 17.7669 36.0314C17.7371 36.0017 17.7085 35.9814 17.6808 35.9704C17.6525 35.9587 17.6249 35.9532 17.5979 35.9539C17.571 35.9532 17.5444 35.9564 17.5182 35.9633C17.4913 35.9695 17.464 35.9761 17.4364 35.983C17.4095 35.9893 17.3815 35.9938 17.3525 35.9966C17.3242 35.9987 17.2941 35.9949 17.2624 35.9853C17.3025 36.0267 17.3384 36.0764 17.3702 36.1343C17.4021 36.1923 17.4277 36.2537 17.4471 36.3186C17.4672 36.3828 17.481 36.4477 17.4887 36.5133C17.4963 36.5789 17.4964 36.6404 17.4889 36.6977L17.4661 36.6915C17.4647 36.6459 17.4546 36.5973 17.4359 36.5455C17.4172 36.4937 17.3937 36.4433 17.3653 36.3943C17.337 36.3439 17.3055 36.2967 17.2709 36.2525C17.237 36.2077 17.2039 36.169 17.1714 36.1366C17.1541 36.1194 17.1354 36.1042 17.1154 36.0911C17.0954 36.078 17.0774 36.0635 17.0615 36.0476C17.0421 36.0283 17.0328 36.0079 17.0335 35.9865C17.0348 35.9644 17.0445 35.9444 17.0624 35.9264C17.0762 35.9126 17.0904 35.9047 17.1049 35.9026C17.1193 35.9005 17.1352 35.9012 17.1525 35.9046C17.1691 35.9073 17.1874 35.9118 17.2074 35.918C17.2267 35.9235 17.2485 35.928 17.2727 35.9314C17.2968 35.9335 17.3234 35.9331 17.3524 35.9303C17.3814 35.9261 17.4135 35.9161 17.4487 35.9002C17.4895 35.8815 17.5305 35.8659 17.5719 35.8534C17.6134 35.8396 17.6541 35.8319 17.6942 35.8305C17.7349 35.8284 17.7749 35.8346 17.8143 35.8491C17.853 35.8628 17.8903 35.8877 17.9263 35.9235Z" fill="white"/>
<defs>
<linearGradient id="paint0_linear_89_1649" x1="25.85" y1="13.2429" x2="37.8905" y2="34.9246" gradientUnits="userSpaceOnUse">
<stop stop-opacity="0"/>
<stop offset="0.430351"/>
</linearGradient>
<linearGradient id="paint1_linear_89_1649" x1="31.5" y1="18.4286" x2="41.7197" y2="37.668" gradientUnits="userSpaceOnUse">
<stop stop-opacity="0"/>
<stop offset="0.430351"/>
</linearGradient>
<linearGradient id="paint2_linear_89_1649" x1="17.5" y1="16.7" x2="28.5187" y2="36.4558" gradientUnits="userSpaceOnUse">
<stop stop-opacity="0"/>
<stop offset="0.430351"/>
</linearGradient>
<linearGradient id="paint3_linear_89_1649" x1="14.85" y1="20.7" x2="25.2972" y2="41.3042" gradientUnits="userSpaceOnUse">
<stop stop-opacity="0"/>
<stop offset="0.430351"/>
</linearGradient>
<linearGradient id="paint4_linear_89_1649" x1="32.6978" y1="25.2507" x2="44.5947" y2="47.1395" gradientUnits="userSpaceOnUse">
<stop stop-opacity="0"/>
<stop offset="0.430351"/>
</linearGradient>
<linearGradient id="paint5_linear_89_1649" x1="23.5" y1="22.5" x2="17.5" y2="18.5" gradientUnits="userSpaceOnUse">
<stop stop-opacity="0"/>
<stop offset="1"/>
</linearGradient>
</defs>
</svg>
