<svg width="50" height="50" viewBox="0 0 50 50" fill="none" xmlns="http://www.w3.org/2000/svg">
<circle cx="25" cy="25" r="25" fill="black"/>
<ellipse cx="26" cy="20.5" rx="11" ry="11.5" fill="white"/>
<ellipse cx="26" cy="20.5" rx="11" ry="11.5" fill="url(#paint0_linear_89_1547)" fill-opacity="0.2"/>
<circle cx="32" cy="25" r="10" fill="white"/>
<circle cx="32" cy="25" r="10" fill="url(#paint1_linear_89_1547)" fill-opacity="0.2"/>
<ellipse cx="18" cy="23.5" rx="10" ry="10.5" fill="white"/>
<ellipse cx="18" cy="23.5" rx="10" ry="10.5" fill="url(#paint2_linear_89_1547)" fill-opacity="0.2"/>
<ellipse cx="15" cy="27.5" rx="11" ry="10.5" fill="white"/>
<ellipse cx="15" cy="27.5" rx="11" ry="10.5" fill="url(#paint3_linear_89_1547)" fill-opacity="0.2"/>
<path fill-rule="evenodd" clip-rule="evenodd" d="M32.5 44C27.3573 44 23.003 40.6243 21.5321 35.9679L26.5 31C25.5 31.3333 23.8 31.4 25 29C25.9233 27.1534 29.8659 23.6096 33.0015 21.0107C39.1201 21.2733 44 26.3168 44 32.5C44 38.8513 38.8513 44 32.5 44ZM23.3571 36.4443C23.3301 36.387 23.2973 36.339 23.2586 36.3004C23.2268 36.2686 23.1915 36.2424 23.1529 36.2218C23.1142 36.2011 23.0744 36.1883 23.0337 36.1835C22.9936 36.1781 22.9536 36.1816 22.9136 36.194C22.8742 36.2058 22.8373 36.229 22.8028 36.2635C22.7621 36.3043 22.7359 36.3492 22.7242 36.3983C22.7125 36.4473 22.7101 36.4974 22.7171 36.5485C22.7241 36.5996 22.7379 36.6506 22.7587 36.7017C22.7788 36.7521 22.8006 36.7987 22.8241 36.8415C22.7778 36.7925 22.7314 36.7442 22.6851 36.6966C22.6388 36.649 22.5915 36.6011 22.5431 36.5528C22.5369 36.5466 22.5282 36.5476 22.5172 36.5559C22.5055 36.5635 22.4975 36.5694 22.4934 36.5735C22.4789 36.588 22.4661 36.6036 22.4551 36.6202C22.4441 36.6368 22.4365 36.654 22.4324 36.672C22.4289 36.6893 22.4293 36.7069 22.4335 36.7248C22.4376 36.7414 22.4477 36.7576 22.4635 36.7735C22.6156 36.9252 22.7694 37.0732 22.9249 37.2174C23.0797 37.3609 23.2328 37.5081 23.3842 37.6592L23.8798 38.1539L23.9057 38.1279C23.8814 38.0734 23.8507 38.0144 23.8133 37.9509C23.7766 37.8881 23.7307 37.8194 23.6753 37.7449C23.62 37.6704 23.5547 37.59 23.4793 37.5038C23.4047 37.4182 23.3172 37.3254 23.217 37.2254C23.1956 37.204 23.1669 37.1747 23.131 37.1374C23.095 37.1002 23.0573 37.0584 23.0179 37.0122C22.9785 36.9646 22.9405 36.9149 22.9039 36.8632C22.8679 36.8107 22.8395 36.7596 22.8188 36.7099C22.798 36.6589 22.7876 36.6105 22.7876 36.565C22.7882 36.5187 22.8054 36.4786 22.8392 36.4448C22.8682 36.4157 22.8996 36.3967 22.9334 36.3877C22.9673 36.3773 23.0011 36.3752 23.0349 36.3814C23.0688 36.3862 23.1019 36.3979 23.1344 36.4165C23.1669 36.4351 23.1962 36.4575 23.2225 36.4837C23.2432 36.5044 23.264 36.532 23.2847 36.5666C23.3048 36.6004 23.3204 36.6359 23.3315 36.6732C23.3425 36.7105 23.3471 36.7474 23.345 36.784C23.3423 36.8199 23.3285 36.8503 23.3037 36.8752C23.2837 36.8952 23.2623 36.9063 23.2395 36.9084C23.2174 36.9098 23.196 36.9091 23.1753 36.9064C23.1546 36.9023 23.1352 36.8988 23.1173 36.8961C23.1 36.8927 23.0862 36.8961 23.0758 36.9065C23.0676 36.9148 23.0631 36.9255 23.0624 36.9386C23.061 36.9511 23.0645 36.9614 23.0728 36.9697C23.0901 36.9869 23.1094 36.9987 23.1308 37.0048C23.1529 37.0103 23.1754 37.0121 23.1982 37.01C23.2209 37.0065 23.2427 36.9999 23.2634 36.9902C23.2841 36.9791 23.302 36.966 23.3172 36.9508C23.36 36.9079 23.3883 36.8575 23.402 36.7995C23.4158 36.7401 23.4185 36.68 23.4101 36.6193C23.4018 36.5585 23.3841 36.5002 23.3571 36.4443ZM23.2582 35.4444C23.2506 35.4244 23.2398 35.4075 23.226 35.3937C23.2087 35.3764 23.189 35.3678 23.1669 35.3678C23.1448 35.3679 23.1248 35.3768 23.1069 35.3948C23.0931 35.4086 23.0831 35.4256 23.0769 35.4456C23.0707 35.4643 23.0676 35.4839 23.0676 35.5047C23.0683 35.5247 23.0725 35.5447 23.0801 35.5647C23.0871 35.584 23.0974 35.6006 23.1112 35.6144C23.1292 35.6323 23.1493 35.642 23.1714 35.6433C23.1941 35.644 23.2145 35.6354 23.2324 35.6174C23.2462 35.6036 23.2562 35.5866 23.2624 35.5666C23.2686 35.5466 23.2714 35.5266 23.2707 35.5065C23.2699 35.4851 23.2658 35.4644 23.2582 35.4444ZM24.2199 35.9199C24.2198 35.8757 24.2146 35.8326 24.2042 35.7905L24.1938 35.7925C24.1904 35.8485 24.1788 35.9037 24.1588 35.9583C24.1395 36.0122 24.1095 36.0595 24.0688 36.1003C24.0343 36.1349 23.9984 36.1577 23.9611 36.1688C23.9239 36.1799 23.8862 36.1823 23.8483 36.1761C23.811 36.1693 23.7743 36.1555 23.7384 36.1348C23.7025 36.1127 23.669 36.0862 23.6379 36.0551C23.584 36.0013 23.5425 35.9392 23.5134 35.8688C23.485 35.7977 23.4677 35.7252 23.4614 35.6514L23.4396 35.6545C23.4286 35.707 23.4221 35.7605 23.4201 35.815C23.4188 35.8689 23.4237 35.9221 23.4348 35.9745C23.4452 36.0263 23.4625 36.076 23.4867 36.1237C23.5109 36.1713 23.5431 36.2151 23.5832 36.2551C23.6205 36.2924 23.6602 36.3217 23.7024 36.343C23.7445 36.363 23.7873 36.3747 23.8308 36.3781C23.8743 36.3802 23.9175 36.3729 23.9603 36.3562C24.0038 36.3389 24.0448 36.3109 24.0835 36.2722C24.1145 36.2411 24.14 36.2066 24.16 36.1686C24.1807 36.1299 24.1959 36.0898 24.2055 36.0484C24.2151 36.0056 24.2199 35.9627 24.2199 35.9199ZM25.5117 34.6256C25.5054 34.5848 25.4961 34.5458 25.4836 34.5086L25.4733 34.5106C25.4767 34.5362 25.4792 34.5635 25.4806 34.5925C25.482 34.6201 25.4806 34.6477 25.4765 34.6753C25.4717 34.7023 25.4641 34.7285 25.4538 34.7541C25.4428 34.7789 25.4276 34.8011 25.4083 34.8204C25.3848 34.8439 25.3555 34.8546 25.3203 34.8526C25.2851 34.8506 25.2471 34.8409 25.2063 34.8237C25.1649 34.8058 25.1224 34.7827 25.0789 34.7544C25.0346 34.7255 24.9918 34.6958 24.9503 34.6655C24.9096 34.6344 24.8715 34.6048 24.8363 34.5765C24.8017 34.5475 24.7727 34.5248 24.7492 34.5082C24.7389 34.5006 24.7278 34.4944 24.7161 34.4896C24.7036 34.4841 24.6912 34.4807 24.6788 34.4793C24.6656 34.4772 24.6532 34.4779 24.6415 34.4814C24.6291 34.4842 24.618 34.4904 24.6084 34.5001C24.5911 34.5174 24.5821 34.5374 24.5815 34.5602C24.5808 34.5816 24.5839 34.6047 24.5909 34.6296C24.6061 34.682 24.6245 34.7355 24.6459 34.7901C24.6681 34.8439 24.6916 34.8978 24.7165 34.9516C24.7414 35.0054 24.7667 35.0589 24.7923 35.1121C24.8172 35.1645 24.8407 35.2156 24.8629 35.2653C24.818 35.2426 24.7741 35.2167 24.7312 35.1877C24.6877 35.1581 24.6449 35.1271 24.6027 35.0946C24.5606 35.0622 24.5191 35.0298 24.4783 34.9974C24.4369 34.9643 24.3957 34.9329 24.355 34.9033C24.3322 34.8874 24.3073 34.8778 24.2804 34.8743C24.2541 34.8702 24.231 34.8782 24.211 34.8982C24.1951 34.9141 24.1862 34.9314 24.1841 34.95C24.1827 34.968 24.1879 34.9918 24.1997 35.0215C24.2232 35.0781 24.2461 35.1319 24.2682 35.183C24.2904 35.2327 24.3129 35.2814 24.3357 35.329C24.3585 35.3766 24.3821 35.4242 24.4063 35.4719C24.4312 35.5188 24.4575 35.5678 24.4851 35.6189C24.4375 35.5837 24.3919 35.5485 24.3483 35.5134C24.3048 35.4768 24.2623 35.4385 24.2208 35.3985C24.1786 35.3578 24.1368 35.3147 24.0953 35.2691C24.0539 35.2236 24.012 35.1736 23.9699 35.1191C23.9671 35.1149 23.963 35.1136 23.9574 35.1149C23.9526 35.1156 23.9478 35.1177 23.9429 35.1212C23.9374 35.1239 23.9326 35.1274 23.9284 35.1315L23.9191 35.1409C23.8853 35.1747 23.8674 35.2114 23.8654 35.2507C23.8626 35.2894 23.8806 35.3281 23.9193 35.3667C23.9594 35.4067 24.0044 35.4481 24.0541 35.4908C24.1039 35.5336 24.1536 35.5736 24.2034 35.6109C24.2531 35.6481 24.3005 35.6815 24.3454 35.7112C24.3896 35.7402 24.4262 35.7608 24.4553 35.7732C24.476 35.7829 24.496 35.7891 24.5153 35.7918C24.5354 35.7953 24.5544 35.788 24.5723 35.77C24.5833 35.759 24.5895 35.7472 24.5909 35.7348C24.593 35.7217 24.5919 35.7089 24.5878 35.6965C24.5843 35.6833 24.5791 35.6706 24.5722 35.6581C24.5653 35.6443 24.5587 35.6316 24.5525 35.6198C24.5262 35.5701 24.502 35.5239 24.4798 35.4811C24.4577 35.4369 24.4366 35.3945 24.4165 35.3538C24.3965 35.3117 24.3767 35.2699 24.3574 35.2285C24.338 35.1857 24.3186 35.1401 24.2992 35.0918C24.3469 35.1311 24.3922 35.168 24.435 35.2025C24.4779 35.237 24.5193 35.2687 24.5594 35.2977C24.6002 35.326 24.6409 35.3522 24.6817 35.3763C24.7225 35.4004 24.7653 35.4211 24.8102 35.4383L24.8403 35.4497C24.8513 35.4524 24.862 35.4542 24.8724 35.4548C24.8841 35.4555 24.8955 35.4545 24.9065 35.4517C24.9176 35.4489 24.9276 35.443 24.9366 35.4341C24.949 35.4216 24.9566 35.4078 24.9593 35.3926C24.9621 35.3774 24.9617 35.3619 24.9582 35.346C24.9561 35.3301 24.9523 35.3153 24.9468 35.3015C24.9406 35.287 24.935 35.2739 24.9302 35.2621C24.9067 35.2097 24.8831 35.1593 24.8596 35.111C24.8361 35.0626 24.8136 35.0154 24.7921 34.9691C24.7707 34.9229 24.7513 34.878 24.734 34.8345C24.7167 34.7897 24.7018 34.7451 24.6893 34.701C24.7564 34.7541 24.8244 34.8054 24.8935 34.8551C24.962 34.904 25.0279 34.9437 25.0915 34.974C25.1551 35.003 25.2148 35.0184 25.2707 35.0204C25.3267 35.0225 25.376 35.002 25.4188 34.9592C25.4491 34.9288 25.4716 34.8953 25.486 34.8587C25.5019 34.822 25.5115 34.7841 25.5149 34.7447C25.5183 34.7053 25.5173 34.6656 25.5117 34.6256Z" fill="white"/>
<path fill-rule="evenodd" clip-rule="evenodd" d="M32.5 44C27.3573 44 23.003 40.6243 21.5321 35.9679L26.5 31C25.5 31.3333 23.8 31.4 25 29C25.9233 27.1534 29.8659 23.6096 33.0015 21.0107C39.1201 21.2733 44 26.3168 44 32.5C44 38.8513 38.8513 44 32.5 44ZM23.3571 36.4443C23.3301 36.387 23.2973 36.339 23.2586 36.3004C23.2268 36.2686 23.1915 36.2424 23.1529 36.2218C23.1142 36.2011 23.0744 36.1883 23.0337 36.1835C22.9936 36.1781 22.9536 36.1816 22.9136 36.194C22.8742 36.2058 22.8373 36.229 22.8028 36.2635C22.7621 36.3043 22.7359 36.3492 22.7242 36.3983C22.7125 36.4473 22.7101 36.4974 22.7171 36.5485C22.7241 36.5996 22.7379 36.6506 22.7587 36.7017C22.7788 36.7521 22.8006 36.7987 22.8241 36.8415C22.7778 36.7925 22.7314 36.7442 22.6851 36.6966C22.6388 36.649 22.5915 36.6011 22.5431 36.5528C22.5369 36.5466 22.5282 36.5476 22.5172 36.5559C22.5055 36.5635 22.4975 36.5694 22.4934 36.5735C22.4789 36.588 22.4661 36.6036 22.4551 36.6202C22.4441 36.6368 22.4365 36.654 22.4324 36.672C22.4289 36.6893 22.4293 36.7069 22.4335 36.7248C22.4376 36.7414 22.4477 36.7576 22.4635 36.7735C22.6156 36.9252 22.7694 37.0732 22.9249 37.2174C23.0797 37.3609 23.2328 37.5081 23.3842 37.6592L23.8798 38.1539L23.9057 38.1279C23.8814 38.0734 23.8507 38.0144 23.8133 37.9509C23.7766 37.8881 23.7307 37.8194 23.6753 37.7449C23.62 37.6704 23.5547 37.59 23.4793 37.5038C23.4047 37.4182 23.3172 37.3254 23.217 37.2254C23.1956 37.204 23.1669 37.1747 23.131 37.1374C23.095 37.1002 23.0573 37.0584 23.0179 37.0122C22.9785 36.9646 22.9405 36.9149 22.9039 36.8632C22.8679 36.8107 22.8395 36.7596 22.8188 36.7099C22.798 36.6589 22.7876 36.6105 22.7876 36.565C22.7882 36.5187 22.8054 36.4786 22.8392 36.4448C22.8682 36.4157 22.8996 36.3967 22.9334 36.3877C22.9673 36.3773 23.0011 36.3752 23.0349 36.3814C23.0688 36.3862 23.1019 36.3979 23.1344 36.4165C23.1669 36.4351 23.1962 36.4575 23.2225 36.4837C23.2432 36.5044 23.264 36.532 23.2847 36.5666C23.3048 36.6004 23.3204 36.6359 23.3315 36.6732C23.3425 36.7105 23.3471 36.7474 23.345 36.784C23.3423 36.8199 23.3285 36.8503 23.3037 36.8752C23.2837 36.8952 23.2623 36.9063 23.2395 36.9084C23.2174 36.9098 23.196 36.9091 23.1753 36.9064C23.1546 36.9023 23.1352 36.8988 23.1173 36.8961C23.1 36.8927 23.0862 36.8961 23.0758 36.9065C23.0676 36.9148 23.0631 36.9255 23.0624 36.9386C23.061 36.9511 23.0645 36.9614 23.0728 36.9697C23.0901 36.9869 23.1094 36.9987 23.1308 37.0048C23.1529 37.0103 23.1754 37.0121 23.1982 37.01C23.2209 37.0065 23.2427 36.9999 23.2634 36.9902C23.2841 36.9791 23.302 36.966 23.3172 36.9508C23.36 36.9079 23.3883 36.8575 23.402 36.7995C23.4158 36.7401 23.4185 36.68 23.4101 36.6193C23.4018 36.5585 23.3841 36.5002 23.3571 36.4443ZM23.2582 35.4444C23.2506 35.4244 23.2398 35.4075 23.226 35.3937C23.2087 35.3764 23.189 35.3678 23.1669 35.3678C23.1448 35.3679 23.1248 35.3768 23.1069 35.3948C23.0931 35.4086 23.0831 35.4256 23.0769 35.4456C23.0707 35.4643 23.0676 35.4839 23.0676 35.5047C23.0683 35.5247 23.0725 35.5447 23.0801 35.5647C23.0871 35.584 23.0974 35.6006 23.1112 35.6144C23.1292 35.6323 23.1493 35.642 23.1714 35.6433C23.1941 35.644 23.2145 35.6354 23.2324 35.6174C23.2462 35.6036 23.2562 35.5866 23.2624 35.5666C23.2686 35.5466 23.2714 35.5266 23.2707 35.5065C23.2699 35.4851 23.2658 35.4644 23.2582 35.4444ZM24.2199 35.9199C24.2198 35.8757 24.2146 35.8326 24.2042 35.7905L24.1938 35.7925C24.1904 35.8485 24.1788 35.9037 24.1588 35.9583C24.1395 36.0122 24.1095 36.0595 24.0688 36.1003C24.0343 36.1349 23.9984 36.1577 23.9611 36.1688C23.9239 36.1799 23.8862 36.1823 23.8483 36.1761C23.811 36.1693 23.7743 36.1555 23.7384 36.1348C23.7025 36.1127 23.669 36.0862 23.6379 36.0551C23.584 36.0013 23.5425 35.9392 23.5134 35.8688C23.485 35.7977 23.4677 35.7252 23.4614 35.6514L23.4396 35.6545C23.4286 35.707 23.4221 35.7605 23.4201 35.815C23.4188 35.8689 23.4237 35.9221 23.4348 35.9745C23.4452 36.0263 23.4625 36.076 23.4867 36.1237C23.5109 36.1713 23.5431 36.2151 23.5832 36.2551C23.6205 36.2924 23.6602 36.3217 23.7024 36.343C23.7445 36.363 23.7873 36.3747 23.8308 36.3781C23.8743 36.3802 23.9175 36.3729 23.9603 36.3562C24.0038 36.3389 24.0448 36.3109 24.0835 36.2722C24.1145 36.2411 24.14 36.2066 24.16 36.1686C24.1807 36.1299 24.1959 36.0898 24.2055 36.0484C24.2151 36.0056 24.2199 35.9627 24.2199 35.9199ZM25.5117 34.6256C25.5054 34.5848 25.4961 34.5458 25.4836 34.5086L25.4733 34.5106C25.4767 34.5362 25.4792 34.5635 25.4806 34.5925C25.482 34.6201 25.4806 34.6477 25.4765 34.6753C25.4717 34.7023 25.4641 34.7285 25.4538 34.7541C25.4428 34.7789 25.4276 34.8011 25.4083 34.8204C25.3848 34.8439 25.3555 34.8546 25.3203 34.8526C25.2851 34.8506 25.2471 34.8409 25.2063 34.8237C25.1649 34.8058 25.1224 34.7827 25.0789 34.7544C25.0346 34.7255 24.9918 34.6958 24.9503 34.6655C24.9096 34.6344 24.8715 34.6048 24.8363 34.5765C24.8017 34.5475 24.7727 34.5248 24.7492 34.5082C24.7389 34.5006 24.7278 34.4944 24.7161 34.4896C24.7036 34.4841 24.6912 34.4807 24.6788 34.4793C24.6656 34.4772 24.6532 34.4779 24.6415 34.4814C24.6291 34.4842 24.618 34.4904 24.6084 34.5001C24.5911 34.5174 24.5821 34.5374 24.5815 34.5602C24.5808 34.5816 24.5839 34.6047 24.5909 34.6296C24.6061 34.682 24.6245 34.7355 24.6459 34.7901C24.6681 34.8439 24.6916 34.8978 24.7165 34.9516C24.7414 35.0054 24.7667 35.0589 24.7923 35.1121C24.8172 35.1645 24.8407 35.2156 24.8629 35.2653C24.818 35.2426 24.7741 35.2167 24.7312 35.1877C24.6877 35.1581 24.6449 35.1271 24.6027 35.0946C24.5606 35.0622 24.5191 35.0298 24.4783 34.9974C24.4369 34.9643 24.3957 34.9329 24.355 34.9033C24.3322 34.8874 24.3073 34.8778 24.2804 34.8743C24.2541 34.8702 24.231 34.8782 24.211 34.8982C24.1951 34.9141 24.1862 34.9314 24.1841 34.95C24.1827 34.968 24.1879 34.9918 24.1997 35.0215C24.2232 35.0781 24.2461 35.1319 24.2682 35.183C24.2904 35.2327 24.3129 35.2814 24.3357 35.329C24.3585 35.3766 24.3821 35.4242 24.4063 35.4719C24.4312 35.5188 24.4575 35.5678 24.4851 35.6189C24.4375 35.5837 24.3919 35.5485 24.3483 35.5134C24.3048 35.4768 24.2623 35.4385 24.2208 35.3985C24.1786 35.3578 24.1368 35.3147 24.0953 35.2691C24.0539 35.2236 24.012 35.1736 23.9699 35.1191C23.9671 35.1149 23.963 35.1136 23.9574 35.1149C23.9526 35.1156 23.9478 35.1177 23.9429 35.1212C23.9374 35.1239 23.9326 35.1274 23.9284 35.1315L23.9191 35.1409C23.8853 35.1747 23.8674 35.2114 23.8654 35.2507C23.8626 35.2894 23.8806 35.3281 23.9193 35.3667C23.9594 35.4067 24.0044 35.4481 24.0541 35.4908C24.1039 35.5336 24.1536 35.5736 24.2034 35.6109C24.2531 35.6481 24.3005 35.6815 24.3454 35.7112C24.3896 35.7402 24.4262 35.7608 24.4553 35.7732C24.476 35.7829 24.496 35.7891 24.5153 35.7918C24.5354 35.7953 24.5544 35.788 24.5723 35.77C24.5833 35.759 24.5895 35.7472 24.5909 35.7348C24.593 35.7217 24.5919 35.7089 24.5878 35.6965C24.5843 35.6833 24.5791 35.6706 24.5722 35.6581C24.5653 35.6443 24.5587 35.6316 24.5525 35.6198C24.5262 35.5701 24.502 35.5239 24.4798 35.4811C24.4577 35.4369 24.4366 35.3945 24.4165 35.3538C24.3965 35.3117 24.3767 35.2699 24.3574 35.2285C24.338 35.1857 24.3186 35.1401 24.2992 35.0918C24.3469 35.1311 24.3922 35.168 24.435 35.2025C24.4779 35.237 24.5193 35.2687 24.5594 35.2977C24.6002 35.326 24.6409 35.3522 24.6817 35.3763C24.7225 35.4004 24.7653 35.4211 24.8102 35.4383L24.8403 35.4497C24.8513 35.4524 24.862 35.4542 24.8724 35.4548C24.8841 35.4555 24.8955 35.4545 24.9065 35.4517C24.9176 35.4489 24.9276 35.443 24.9366 35.4341C24.949 35.4216 24.9566 35.4078 24.9593 35.3926C24.9621 35.3774 24.9617 35.3619 24.9582 35.346C24.9561 35.3301 24.9523 35.3153 24.9468 35.3015C24.9406 35.287 24.935 35.2739 24.9302 35.2621C24.9067 35.2097 24.8831 35.1593 24.8596 35.111C24.8361 35.0626 24.8136 35.0154 24.7921 34.9691C24.7707 34.9229 24.7513 34.878 24.734 34.8345C24.7167 34.7897 24.7018 34.7451 24.6893 34.701C24.7564 34.7541 24.8244 34.8054 24.8935 34.8551C24.962 34.904 25.0279 34.9437 25.0915 34.974C25.1551 35.003 25.2148 35.0184 25.2707 35.0204C25.3267 35.0225 25.376 35.002 25.4188 34.9592C25.4491 34.9288 25.4716 34.8953 25.486 34.8587C25.5019 34.822 25.5115 34.7841 25.5149 34.7447C25.5183 34.7053 25.5173 34.6656 25.5117 34.6256Z" fill="url(#paint4_linear_89_1547)" fill-opacity="0.2"/>
<path d="M28 18.5C34.4 13.7 32.3333 5.5 30.5 2C40.9 12.8 38.1667 17.8333 35.5 19C32.5 21.3333 26.2 26.6 25 29C23.8 31.4 25.5 31.3333 26.5 31L14 43.5L17 32.5C17.5 34.5 19.1 35.8 21.5 25C24.5 11.5 20 24.5 28 18.5Z" fill="#FF0000"/>
<path d="M28 18.5C34.4 13.7 32.3333 5.5 30.5 2C40.9 12.8 38.1667 17.8333 35.5 19C32.5 21.3333 26.2 26.6 25 29C23.8 31.4 25.5 31.3333 26.5 31L14 43.5L17 32.5C17.5 34.5 19.1 35.8 21.5 25C24.5 11.5 20 24.5 28 18.5Z" fill="url(#paint5_linear_89_1547)" fill-opacity="0.2"/>
<path d="M16.4868 42.5918C16.5221 42.627 16.558 42.6718 16.5947 42.7263C16.632 42.7802 16.667 42.8392 16.6995 42.9033C16.732 42.9675 16.7607 43.0341 16.7856 43.1032C16.8106 43.1708 16.8279 43.2364 16.8376 43.2999C16.848 43.3628 16.8491 43.4204 16.8409 43.4729C16.8334 43.5261 16.8134 43.5689 16.7809 43.6014C16.7609 43.6214 16.733 43.6308 16.6971 43.6294C16.6612 43.6281 16.6235 43.6216 16.5841 43.6099C16.5455 43.5975 16.5082 43.583 16.4722 43.5665C16.4363 43.5499 16.4083 43.5372 16.3883 43.5282C16.3323 43.5014 16.2781 43.4728 16.2256 43.4424C16.1731 43.4121 16.1206 43.3804 16.0681 43.3473C16.0646 43.3452 16.0584 43.3411 16.0494 43.3349C16.0397 43.328 16.0294 43.3218 16.0183 43.3163C16.008 43.3101 15.9979 43.3056 15.9883 43.3028C15.9786 43.2987 15.9724 43.298 15.9696 43.3008C15.9634 43.307 15.9572 43.3153 15.951 43.3256C15.9455 43.3353 15.9407 43.3457 15.9365 43.3567C15.9317 43.3671 15.9272 43.3778 15.9231 43.3889C15.9197 43.3992 15.9169 43.4082 15.9148 43.4158L15.8962 43.4137C15.8962 43.3972 15.8979 43.3761 15.9013 43.3506C15.9047 43.325 15.9099 43.2998 15.9168 43.2749C15.923 43.2494 15.9312 43.2252 15.9416 43.2024C15.9512 43.1789 15.9622 43.1609 15.9746 43.1485C15.9912 43.1319 16.0123 43.1253 16.0378 43.1288C16.0634 43.1308 16.0924 43.1398 16.1248 43.1556C16.1573 43.1701 16.1932 43.1901 16.2326 43.2156C16.2727 43.2404 16.3149 43.2666 16.3591 43.2942C16.366 43.2983 16.3798 43.3066 16.4005 43.319C16.4213 43.3314 16.4458 43.3455 16.4741 43.3614C16.5017 43.3766 16.5311 43.3928 16.5622 43.41C16.594 43.4265 16.6237 43.441 16.6513 43.4534C16.679 43.4644 16.7031 43.4727 16.7239 43.4782C16.7446 43.4837 16.7584 43.483 16.7653 43.4761C16.7846 43.4567 16.7956 43.4319 16.7984 43.4015C16.8011 43.3697 16.7979 43.3348 16.7889 43.2969C16.7806 43.2582 16.7678 43.2185 16.7505 43.1778C16.7325 43.1364 16.7124 43.0963 16.6903 43.0577C16.6682 43.019 16.645 42.9835 16.6208 42.9511C16.5973 42.918 16.5748 42.8907 16.5534 42.8693C16.5133 42.8293 16.4694 42.7938 16.4217 42.7628C16.3734 42.731 16.325 42.709 16.2767 42.6966C16.2283 42.6828 16.1817 42.6812 16.1368 42.6916C16.0926 42.7013 16.0547 42.7275 16.023 42.7704L16.0105 42.7642C16.0229 42.7338 16.0377 42.7051 16.055 42.6782C16.0722 42.6512 16.0919 42.6267 16.114 42.6046C16.1733 42.5451 16.2351 42.513 16.2993 42.5081C16.3635 42.5032 16.426 42.5311 16.4868 42.5918ZM16.6845 41.9479C16.6983 41.9617 16.709 41.9786 16.7166 41.9987C16.7242 42.0187 16.7284 42.0394 16.7291 42.0608C16.7298 42.0808 16.7271 42.1009 16.7209 42.1209C16.7147 42.1409 16.7047 42.1578 16.6909 42.1717C16.673 42.1896 16.6526 42.1983 16.6298 42.1976C16.6077 42.1963 16.5877 42.1866 16.5697 42.1687C16.5559 42.1549 16.5455 42.1383 16.5386 42.119C16.531 42.099 16.5268 42.079 16.5261 42.0589C16.5261 42.0382 16.5292 42.0185 16.5354 41.9999C16.5415 41.9798 16.5515 41.9629 16.5653 41.9491C16.5833 41.9311 16.6033 41.9221 16.6254 41.9221C16.6475 41.9221 16.6672 41.9307 16.6845 41.9479ZM17.6626 42.3447C17.673 42.3869 17.6783 42.43 17.6783 42.4742C17.6783 42.517 17.6736 42.5598 17.6639 42.6027C17.6543 42.6441 17.6391 42.6842 17.6185 42.7228C17.5985 42.7608 17.573 42.7954 17.5419 42.8265C17.5033 42.8652 17.4622 42.8932 17.4187 42.9105C17.3759 42.9271 17.3328 42.9344 17.2893 42.9324C17.2458 42.929 17.203 42.9173 17.1608 42.8973C17.1187 42.8759 17.0789 42.8466 17.0416 42.8094C17.0015 42.7694 16.9694 42.7256 16.9452 42.6779C16.9209 42.6303 16.9036 42.5806 16.8932 42.5288C16.8821 42.4764 16.8772 42.4232 16.8786 42.3693C16.8806 42.3148 16.8871 42.2612 16.8981 42.2088L16.9198 42.2056C16.9261 42.2795 16.9435 42.352 16.9718 42.4231C17.0009 42.4935 17.0424 42.5556 17.0963 42.6094C17.1274 42.6405 17.1609 42.667 17.1969 42.6891C17.2328 42.7098 17.2694 42.7235 17.3067 42.7304C17.3447 42.7366 17.3823 42.7341 17.4196 42.723C17.4569 42.712 17.4928 42.6891 17.5273 42.6546C17.568 42.6138 17.5979 42.5665 17.6172 42.5126C17.6372 42.458 17.6489 42.4028 17.6523 42.3468L17.6626 42.3447ZM18.612 41.3936C18.6237 41.4315 18.6334 41.4695 18.6411 41.5075C18.6494 41.5448 18.6529 41.5814 18.6515 41.6173C18.6502 41.6532 18.643 41.6881 18.6299 41.7219C18.6168 41.7558 18.5951 41.7879 18.5647 41.8183C18.5302 41.8529 18.4919 41.874 18.4498 41.8816C18.4084 41.8899 18.3649 41.8893 18.3193 41.8796C18.2737 41.8686 18.2274 41.8507 18.1805 41.8259C18.1342 41.8004 18.0889 41.7725 18.0447 41.7422C18.0005 41.7118 17.9586 41.6804 17.9193 41.648C17.8792 41.6149 17.8432 41.5853 17.8114 41.559C17.8087 41.5825 17.8129 41.6184 17.824 41.6668C17.8344 41.7144 17.8496 41.7675 17.8697 41.8262C17.8898 41.8849 17.914 41.9463 17.9424 42.0105C17.9715 42.074 18.0029 42.1337 18.0368 42.1896C18.0444 42.2014 18.051 42.2148 18.0565 42.23C18.0628 42.2445 18.0666 42.2593 18.068 42.2745C18.0708 42.2897 18.0704 42.3046 18.067 42.3191C18.0642 42.3343 18.0574 42.3474 18.0463 42.3585C18.0284 42.3764 18.009 42.3833 17.9883 42.3792C17.9683 42.3744 17.9486 42.3658 17.9293 42.3534C17.8215 42.2858 17.7234 42.2162 17.6349 42.1444C17.5471 42.072 17.4632 41.9958 17.383 41.9158C17.3636 41.8965 17.3501 41.8768 17.3425 41.8568C17.3349 41.8354 17.3321 41.8147 17.3342 41.7946C17.3355 41.7739 17.3417 41.7539 17.3528 41.7345C17.3631 41.7145 17.3765 41.6962 17.3931 41.6796C17.3952 41.6775 17.3983 41.6744 17.4024 41.6703C17.4072 41.6654 17.4124 41.6616 17.4179 41.6589C17.4228 41.6554 17.4276 41.6533 17.4324 41.6526C17.4373 41.6519 17.4411 41.6537 17.4438 41.6578C17.5164 41.7661 17.6001 41.8669 17.6948 41.96C17.7888 42.0525 17.8835 42.1373 17.9788 42.2145C17.9519 42.1724 17.9239 42.1224 17.8948 42.0644C17.8657 42.0051 17.8388 41.9436 17.8138 41.8801C17.7889 41.8153 17.7678 41.7514 17.7505 41.6886C17.7331 41.6244 17.7227 41.5664 17.7192 41.5146C17.7178 41.4897 17.7185 41.4669 17.7212 41.4462C17.724 41.4241 17.7343 41.4041 17.7522 41.3861C17.7626 41.3758 17.7733 41.3692 17.7843 41.3664C17.7954 41.3636 17.8061 41.3633 17.8164 41.3653C17.8275 41.3667 17.8382 41.3705 17.8486 41.3767C17.8589 41.3815 17.8686 41.387 17.8776 41.3933C17.9011 41.4098 17.9304 41.4322 17.9657 41.4605C18.0009 41.4888 18.0389 41.5184 18.0797 41.5495C18.1212 41.5798 18.164 41.6095 18.2082 41.6384C18.2518 41.6667 18.2943 41.6898 18.3357 41.7077C18.3765 41.7249 18.4145 41.7345 18.4497 41.7366C18.4849 41.7386 18.5139 41.7282 18.5366 41.7054C18.5553 41.6868 18.5698 41.6653 18.5801 41.6412C18.5904 41.6156 18.598 41.5894 18.6028 41.5624C18.6069 41.5348 18.6086 41.5068 18.6079 41.4785C18.6065 41.4495 18.604 41.4222 18.6006 41.3967L18.612 41.3936ZM18.2209 40.4085C18.2347 40.4223 18.2455 40.4392 18.2531 40.4592C18.2607 40.4792 18.2649 40.4999 18.2656 40.5213C18.2663 40.5414 18.2635 40.5614 18.2573 40.5814C18.2511 40.6015 18.2411 40.6184 18.2274 40.6322C18.2094 40.6502 18.1891 40.6588 18.1663 40.6582C18.1442 40.6568 18.1241 40.6472 18.1062 40.6292C18.0923 40.6154 18.082 40.5989 18.075 40.5795C18.0674 40.5595 18.0633 40.5395 18.0626 40.5195C18.0625 40.4988 18.0656 40.4791 18.0718 40.4604C18.078 40.4404 18.088 40.4235 18.1018 40.4096C18.1197 40.3917 18.1398 40.3827 18.1619 40.3827C18.184 40.3826 18.2036 40.3912 18.2209 40.4085ZM19.1991 40.8053C19.2095 40.8474 19.2147 40.8906 19.2148 40.9347C19.2148 40.9776 19.21 41.0204 19.2004 41.0632C19.1908 41.1046 19.1756 41.1447 19.1549 41.1834C19.1349 41.2214 19.1094 41.2559 19.0784 41.2871C19.0397 41.3258 18.9987 41.3538 18.9552 41.3711C18.9124 41.3877 18.8693 41.395 18.8257 41.393C18.7822 41.3895 18.7394 41.3778 18.6973 41.3579C18.6551 41.3365 18.6154 41.3072 18.5781 41.2699C18.538 41.2299 18.5058 41.1861 18.4816 41.1385C18.4574 41.0909 18.4401 41.0412 18.4297 40.9894C18.4186 40.9369 18.4137 40.8837 18.415 40.8299C18.417 40.7753 18.4236 40.7218 18.4345 40.6693L18.4563 40.6662C18.4626 40.7401 18.4799 40.8125 18.5083 40.8836C18.5374 40.9541 18.5789 41.0162 18.6328 41.07C18.6639 41.101 18.6974 41.1276 18.7333 41.1496C18.7693 41.1703 18.8059 41.1841 18.8432 41.191C18.8811 41.1971 18.9188 41.1947 18.9561 41.1836C18.9933 41.1725 19.0292 41.1497 19.0637 41.1151C19.1044 41.0743 19.1344 41.027 19.1537 40.9731C19.1737 40.9186 19.1853 40.8633 19.1887 40.8074L19.1991 40.8053ZM19.9073 40.0957C19.9191 40.1433 19.9223 40.1934 19.9168 40.2459C19.9113 40.297 19.8996 40.3481 19.8817 40.3992C19.8638 40.4489 19.8404 40.4966 19.8114 40.5422C19.7838 40.5878 19.7532 40.6276 19.7193 40.6614C19.678 40.7029 19.6331 40.7354 19.5848 40.7589C19.5372 40.7818 19.4881 40.7949 19.4377 40.7984C19.3873 40.8005 19.338 40.7927 19.2896 40.7747C19.2412 40.7555 19.1956 40.7244 19.1528 40.6817C19.1044 40.6334 19.0657 40.5775 19.0366 40.514C19.0082 40.4498 18.9916 40.3842 18.9867 40.3172C18.9825 40.2495 18.9911 40.1836 19.0124 40.1194C19.0337 40.0537 19.0696 39.9957 19.12 39.9452C19.1365 39.9286 19.1548 39.9138 19.1748 39.9006C19.1948 39.8875 19.2159 39.8782 19.238 39.8726C19.2594 39.8664 19.2808 39.8657 19.3022 39.8705C19.3243 39.8746 19.3454 39.8867 19.3654 39.9067C19.3855 39.9267 19.3979 39.9495 19.4028 39.975C19.4069 39.9999 19.4059 40.0251 19.3997 40.0506C19.3935 40.0762 19.3842 40.1014 19.3718 40.1263C19.3594 40.1497 19.3463 40.1712 19.3325 40.1905L19.318 40.176C19.3249 40.1636 19.3315 40.1494 19.3377 40.1335C19.3446 40.117 19.349 40.1 19.3511 40.0828C19.3531 40.0655 19.3521 40.0486 19.3479 40.032C19.3445 40.0148 19.3365 39.9999 19.3241 39.9875C19.3144 39.9778 19.304 39.9723 19.293 39.971C19.2819 39.9682 19.2709 39.9682 19.2598 39.971C19.2495 39.9731 19.2391 39.9772 19.2288 39.9835C19.2184 39.9897 19.2091 39.9969 19.2008 40.0052C19.1656 40.0405 19.1418 40.0802 19.1295 40.1244C19.1171 40.1672 19.114 40.2111 19.1203 40.256C19.1265 40.3009 19.1404 40.3443 19.1618 40.3864C19.184 40.4279 19.2113 40.4648 19.2438 40.4972C19.2811 40.5345 19.3201 40.5624 19.3609 40.581C19.4016 40.5982 19.4427 40.6068 19.4842 40.6068C19.5256 40.6067 19.5667 40.5974 19.6074 40.5787C19.6481 40.56 19.6868 40.5323 19.7233 40.4957C19.7468 40.4722 19.7692 40.4449 19.7906 40.4138C19.812 40.3813 19.8302 40.3478 19.8454 40.3133C19.8612 40.278 19.8736 40.2421 19.8826 40.2055C19.8915 40.1689 19.8956 40.1337 19.8949 40.0999L19.9073 40.0957ZM19.5152 39.1117C19.5291 39.1255 19.5398 39.1424 19.5474 39.1624C19.555 39.1824 19.5592 39.2031 19.5599 39.2245C19.5606 39.2445 19.5579 39.2646 19.5517 39.2846C19.5455 39.3046 19.5355 39.3216 19.5217 39.3354C19.5037 39.3534 19.4834 39.362 19.4606 39.3613C19.4385 39.36 19.4185 39.3503 19.4005 39.3324C19.3867 39.3186 19.3763 39.302 19.3694 39.2827C19.3617 39.2627 19.3576 39.2427 19.3569 39.2226C19.3569 39.2019 19.3599 39.1822 19.3661 39.1636C19.3723 39.1436 19.3823 39.1266 19.3961 39.1128C19.4141 39.0948 19.4341 39.0858 19.4562 39.0858C19.4783 39.0858 19.498 39.0944 19.5152 39.1117ZM20.4934 39.5085C20.5038 39.5506 20.509 39.5937 20.5091 39.6379C20.5091 39.6807 20.5043 39.7235 20.4947 39.7664C20.4851 39.8078 20.4699 39.8479 20.4493 39.8866C20.4293 39.9246 20.4037 39.9591 20.3727 39.9902C20.3341 40.0289 20.293 40.0569 20.2495 40.0742C20.2067 40.0908 20.1636 40.0981 20.1201 40.0961C20.0766 40.0927 20.0337 40.081 19.9916 40.061C19.9495 40.0397 19.9097 40.0103 19.8724 39.9731C19.8323 39.9331 19.8002 39.8893 19.7759 39.8416C19.7517 39.794 19.7344 39.7443 19.724 39.6925C19.7129 39.6401 19.708 39.5869 19.7093 39.533C19.7114 39.4785 19.7179 39.425 19.7289 39.3725L19.7506 39.3693C19.7569 39.4432 19.7742 39.5157 19.8026 39.5868C19.8317 39.6572 19.8732 39.7193 19.9271 39.7731C19.9582 39.8042 19.9917 39.8307 20.0276 39.8528C20.0636 39.8735 20.1002 39.8872 20.1375 39.8941C20.1755 39.9003 20.2131 39.8978 20.2504 39.8868C20.2877 39.8757 20.3235 39.8528 20.358 39.8183C20.3987 39.7775 20.4287 39.7302 20.448 39.6763C20.468 39.6217 20.4797 39.5665 20.4831 39.5105L20.4934 39.5085ZM21.3776 38.6226C21.39 38.6585 21.3973 38.6975 21.3994 38.7396C21.4015 38.7817 21.3992 38.8242 21.3923 38.867C21.3847 38.9092 21.3723 38.9492 21.3551 38.9872C21.3379 39.0252 21.3158 39.0577 21.2889 39.0847C21.2517 39.122 21.2092 39.1417 21.1616 39.1438C21.1153 39.1459 21.0704 39.137 21.0269 39.117C21.0269 39.1709 21.0197 39.223 21.0053 39.2734C20.9902 39.3232 20.9629 39.3677 20.9236 39.4071C20.8884 39.4424 20.8508 39.4676 20.8108 39.4829C20.7707 39.4967 20.7307 39.5016 20.6906 39.4975C20.6506 39.4934 20.6112 39.4817 20.5725 39.4624C20.5345 39.4424 20.4989 39.4158 20.4657 39.3827C20.4284 39.3455 20.3973 39.3041 20.3724 39.2585C20.3468 39.2123 20.3274 39.164 20.3143 39.1136C20.3004 39.0625 20.2924 39.0104 20.2903 38.9572C20.2882 38.904 20.2912 38.8519 20.2995 38.8008L20.3212 38.7976C20.3337 38.8681 20.3566 38.9371 20.3898 39.0047C20.4223 39.0717 20.4645 39.131 20.5163 39.1828C20.5384 39.2048 20.5643 39.2259 20.5941 39.2459C20.6238 39.2659 20.6549 39.281 20.6873 39.2914C20.7198 39.3017 20.7522 39.3051 20.7847 39.3016C20.8171 39.2968 20.8472 39.2805 20.8748 39.2529C20.8982 39.2294 20.9168 39.2031 20.9306 39.1741C20.9437 39.1444 20.9533 39.1126 20.9595 39.0788C20.9499 39.0719 20.9409 39.065 20.9326 39.0581C20.9236 39.0505 20.915 39.0426 20.9067 39.0343C20.8735 39.0012 20.8424 38.9604 20.8133 38.9121C20.7843 38.8638 20.7587 38.8128 20.7365 38.7589C20.7137 38.7044 20.695 38.6499 20.6804 38.5953C20.6659 38.5394 20.6568 38.4883 20.6534 38.442L20.6751 38.4389C20.7125 38.5079 20.7543 38.5759 20.8006 38.6428C20.847 38.7098 20.8978 38.7708 20.9531 38.826C20.978 38.8509 21.0035 38.8736 21.0298 38.8943C21.056 38.9136 21.0833 38.9278 21.1117 38.9367C21.14 38.9443 21.1686 38.9446 21.1976 38.9377C21.2259 38.93 21.2549 38.9114 21.2846 38.8816C21.3177 38.8485 21.3404 38.8091 21.3528 38.7635C21.3645 38.7172 21.3693 38.6709 21.3672 38.6247L21.3776 38.6226ZM21.9263 37.9235C21.9622 37.9594 21.9895 37.9998 22.0082 38.0446C22.0269 38.0895 22.0363 38.1354 22.0363 38.1824C22.0364 38.2293 22.0274 38.2756 22.0095 38.3212C21.9923 38.3661 21.9654 38.4069 21.9288 38.4435C21.9047 38.4677 21.8771 38.4877 21.846 38.5037C21.815 38.5196 21.7825 38.5306 21.7487 38.5369C21.7149 38.5418 21.6807 38.5414 21.6462 38.536C21.6116 38.5305 21.5792 38.5188 21.5488 38.5008L21.5663 38.4708C21.6064 38.4749 21.6454 38.4724 21.6834 38.4634C21.722 38.4537 21.7565 38.4336 21.7869 38.4032C21.8124 38.3777 21.8303 38.3486 21.8407 38.3162C21.8517 38.283 21.8558 38.2499 21.853 38.2167C21.8509 38.1829 21.8422 38.1501 21.827 38.1184C21.8118 38.0852 21.7917 38.0562 21.7669 38.0314C21.7371 38.0017 21.7085 37.9814 21.6808 37.9704C21.6525 37.9587 21.6249 37.9532 21.5979 37.9539C21.571 37.9532 21.5444 37.9564 21.5182 37.9633C21.4913 37.9695 21.464 37.9761 21.4364 37.983C21.4095 37.9893 21.3815 37.9938 21.3525 37.9966C21.3242 37.9987 21.2941 37.9949 21.2624 37.9853C21.3025 38.0267 21.3384 38.0764 21.3702 38.1343C21.4021 38.1923 21.4277 38.2537 21.4471 38.3186C21.4672 38.3828 21.481 38.4477 21.4887 38.5133C21.4963 38.5789 21.4964 38.6404 21.4889 38.6977L21.4661 38.6915C21.4647 38.6459 21.4546 38.5973 21.4359 38.5455C21.4172 38.4937 21.3937 38.4433 21.3653 38.3943C21.337 38.3439 21.3055 38.2967 21.2709 38.2525C21.237 38.2077 21.2039 38.169 21.1714 38.1366C21.1541 38.1194 21.1354 38.1042 21.1154 38.0911C21.0954 38.078 21.0774 38.0635 21.0615 38.0476C21.0421 38.0283 21.0328 38.0079 21.0335 37.9865C21.0348 37.9644 21.0445 37.9444 21.0624 37.9264C21.0762 37.9126 21.0904 37.9047 21.1049 37.9026C21.1193 37.9005 21.1352 37.9012 21.1525 37.9046C21.1691 37.9073 21.1874 37.9118 21.2074 37.918C21.2267 37.9235 21.2485 37.928 21.2727 37.9314C21.2968 37.9335 21.3234 37.9331 21.3524 37.9303C21.3814 37.9261 21.4135 37.9161 21.4487 37.9002C21.4895 37.8815 21.5305 37.8659 21.5719 37.8534C21.6134 37.8396 21.6541 37.8319 21.6942 37.8305C21.7349 37.8284 21.7749 37.8346 21.8143 37.8491C21.853 37.8628 21.8903 37.8877 21.9263 37.9235Z" fill="white"/>
<defs>
<linearGradient id="paint0_linear_89_1547" x1="29.85" y1="15.2429" x2="43.739" y2="40.6331" gradientUnits="userSpaceOnUse">
<stop stop-opacity="0"/>
<stop offset="0.430351"/>
</linearGradient>
<linearGradient id="paint1_linear_89_1547" x1="35.5" y1="20.4286" x2="47.2831" y2="42.9483" gradientUnits="userSpaceOnUse">
<stop stop-opacity="0"/>
<stop offset="0.430351"/>
</linearGradient>
<linearGradient id="paint2_linear_89_1547" x1="21.5" y1="18.7" x2="34.2108" y2="41.836" gradientUnits="userSpaceOnUse">
<stop stop-opacity="0"/>
<stop offset="0.430351"/>
</linearGradient>
<linearGradient id="paint3_linear_89_1547" x1="18.85" y1="22.7" x2="30.8898" y2="46.806" gradientUnits="userSpaceOnUse">
<stop stop-opacity="0"/>
<stop offset="0.430351"/>
</linearGradient>
<linearGradient id="paint4_linear_89_1547" x1="36.6979" y1="27.2507" x2="50.418" y2="52.8776" gradientUnits="userSpaceOnUse">
<stop stop-opacity="0"/>
<stop offset="0.430351"/>
</linearGradient>
<linearGradient id="paint5_linear_89_1547" x1="27.5" y1="24.5" x2="21.5" y2="20.5" gradientUnits="userSpaceOnUse">
<stop stop-opacity="0"/>
<stop offset="1"/>
</linearGradient>
</defs>
</svg>
